SplineFontDB: 3.2
FontName: BubbleGum
FullName: BubbleGum
FamilyName: BubbleGum
Weight: Book
Copyright:  (c) Copyright 1994 by Thomas W. Ziller 
Version: Altsys Fontographer 4.0 11/14/95
ItalicAngle: 0
UnderlinePosition: -952
UnderlineWidth: 133
Ascent: 816
Descent: 204
InvalidEm: 0
sfntRevision: 0x00010000
LayerCount: 2
Layer: 0 1 "+BBcEMAQ0BD0EOAQ5 +BD8EOwQwBD0A" 1
Layer: 1 1 "+BB8ENQRABDUENAQ9BDgEOQAA +BD8EOwQwBD0A" 0
XUID: [1021 133 -1459687307 32327]
StyleMap: 0x0040
FSType: 1
OS2Version: 1
OS2_WeightWidthSlopeOnly: 0
OS2_UseTypoMetrics: 0
CreationTime: -2385781412156873487
ModificationTime: 1720963319
PfmFamily: 81
TTFWeight: 400
TTFWidth: 5
LineGap: 0
VLineGap: 0
Panose: 0 0 4 0 0 0 0 0 0 0
OS2TypoAscent: 885
OS2TypoAOffset: 0
OS2TypoDescent: -200
OS2TypoDOffset: 0
OS2TypoLinegap: 0
OS2WinAscent: 885
OS2WinAOffset: 0
OS2WinDescent: 117
OS2WinDOffset: 0
HheadAscent: 885
HheadAOffset: 0
HheadDescent: -200
HheadDOffset: 0
OS2SubXSize: 714
OS2SubYSize: 663
OS2SubXOff: 0
OS2SubYOff: 146
OS2SupXSize: 714
OS2SupYSize: 663
OS2SupXOff: 0
OS2SupYOff: 462
OS2StrikeYSize: 51
OS2StrikeYPos: 264
OS2Vendor: 'Alts'
OS2CodePages: 00000004.00000000
OS2UnicodeRanges: 00000000.00000000.00000000.00000000
DEI: 91125
TtTable: prep
NPUSHB
 5
 1
 1
 0
 0
 1
SCANTYPE
PUSHW_1
 511
SCANCTRL
RCVT
ROUND[Grey]
WCVTP
RCVT
ROUND[Grey]
WCVTP
PUSHB_4
 3
 2
 70
 0
CALL
PUSHB_4
 5
 4
 70
 0
CALL
PUSHB_2
 2
 2
RCVT
ROUND[Grey]
WCVTP
PUSHB_2
 4
 4
RCVT
ROUND[Grey]
WCVTP
EndTTInstrs
TtTable: fpgm
NPUSHB
 1
 0
FDEF
SROUND
RCVT
DUP
PUSHB_1
 3
CINDEX
RCVT
SWAP
SUB
ROUND[Grey]
RTG
SWAP
ROUND[Grey]
ADD
WCVTP
ENDF
EndTTInstrs
ShortTable: cvt  6
  3
  792
  249
  233
  143
  82
EndShort
ShortTable: maxp 16
  1
  0
  167
  121
  4
  0
  0
  2
  8
  64
  10
  0
  64
  100
  0
  0
EndShort
LangName: 1033 " +AKkA Copyright 1994 by Thomas W. Ziller " "" "Regular" "Altsys Fontographer 4.0 BubbleGum" "" "Altsys Fontographer 4.0 11/14/95"
Encoding: UnicodeBmp
UnicodeInterp: none
NameList: AGL For New Fonts

StartChar: .notdef
Encoding: 65536 -1 0
Width: 510
GlyphClass: 1
Flags: W
LayerCount: 2
Fore
SplineSet
64 0 m 1,0,-1
 64 820 l 1,1,-1
 446 820 l 1,2,-1
 446 0 l 1,3,-1
 64 0 l 1,0,-1
128 64 m 1,4,-1
 383 64 l 1,5,-1
 383 756 l 1,6,-1
 128 756 l 1,7,-1
 128 64 l 1,4,-1
EndSplineSet
EndChar

StartChar: exclam
Encoding: 33 33 4
Width: 369
GlyphClass: 1
Flags: W
LayerCount: 2
Fore
SplineSet
316 766 m 1,0,-1
 317 767 l 1,1,2
 336 736 336 736 336 696 c 0,3,4
 336 665 336 665 318.5 596 c 128,-1,5
 301 527 301 527 302 492 c 1,6,7
 280 365 280 365 278 296 c 1,8,9
 269 263 269 263 210 255 c 0,10,11
 192 252 192 252 176 252 c 0,12,13
 123 252 123 252 95 281 c 0,14,15
 71 305 71 305 67 381 c 1,16,17
 70 411 70 411 70 446 c 0,18,19
 70 484 70 484 64.5 556 c 128,-1,20
 59 628 59 628 59 663 c 0,21,22
 59 731 59 731 75 785 c 1,23,-1
 77 782 l 1,24,25
 87 801 87 801 92 807 c 0,26,27
 103 823 103 823 118.5 827.5 c 128,-1,28
 134 832 134 832 153 832 c 0,29,30
 171 832 171 832 239 819 c 1,31,32
 295 800 295 800 316 766 c 1,0,-1
274 166 m 0,33,34
 289 137 289 137 289 102 c 0,35,36
 289 71 289 71 277 39 c 1,37,38
 240 -11 240 -11 153 -11 c 0,39,40
 134 -11 134 -11 115 -9 c 1,41,42
 45 28 45 28 37 103 c 1,43,-1
 37 103 l 1,44,45
 38 117 38 117 35 144 c 1,46,47
 56 214 56 214 138 232 c 1,48,49
 198 225 198 225 216 219 c 0,50,51
 258 204 258 204 274 166 c 0,33,34
EndSplineSet
EndChar

StartChar: quotedbl
Encoding: 34 34 5
Width: 427
GlyphClass: 1
Flags: W
LayerCount: 2
Fore
SplineSet
213 803 m 1,0,-1
 213 802 l 1,1,2
 229 779 229 779 219 744 c 0,3,4
 213 710 213 710 180 645 c 1,5,6
 157 630 157 630 144 630 c 0,7,8
 137 630 137 630 129 633 c 0,9,10
 106 646 106 646 99 652 c 0,11,12
 85 666 85 666 82 690 c 0,13,14
 81 697 81 697 75 730 c 0,15,16
 70 754 70 754 70 768 c 0,17,18
 70 806 70 806 105 815 c 0,19,20
 176 826 176 826 169 826 c 1,21,22
 197 826 197 826 213 803 c 1,0,-1
388 802 m 1,23,-1
 389 801 l 1,24,25
 406 777 406 777 394 743 c 1,26,27
 388 712 388 712 356 644 c 1,28,29
 333 629 333 629 320 629 c 0,30,31
 312 629 312 629 304 632 c 0,32,33
 281 645 281 645 274 651 c 0,34,35
 260 665 260 665 257 689 c 0,36,37
 256 696 256 696 250 729 c 0,38,39
 245 753 245 753 245 767 c 0,40,41
 245 805 245 805 280 814 c 0,42,43
 351 825 351 825 344 825 c 1,44,45
 372 825 372 825 388 802 c 1,23,-1
EndSplineSet
EndChar

StartChar: numbersign
Encoding: 35 35 6
Width: 475
GlyphClass: 1
Flags: W
LayerCount: 2
Fore
SplineSet
218 620 m 1,0,-1
 219 575 l 1,1,-1
 265 574 l 1,2,-1
 263 620 l 1,3,-1
 218 620 l 1,0,-1
226 489 m 1,4,5
 229 431 229 431 210 414 c 0,6,7
 204 409 204 409 182 407 c 0,8,9
 153 404 153 404 143 437 c 0,10,11
 140 446 140 446 135 491 c 1,12,13
 113 492 113 492 91 492 c 1,14,15
 61 499 61 499 60 529 c 0,16,17
 59 547 59 547 84 565 c 0,18,19
 93 571 93 571 134 574 c 1,20,21
 134 588 134 588 132 616 c 1,22,23
 95 618 95 618 82 624 c 0,24,25
 55 635 55 635 59 668 c 0,26,27
 63 696 63 696 90 703 c 1,28,29
 111 704 111 704 132 705 c 1,30,31
 134 742 134 742 137 757 c 0,32,33
 146 792 146 792 172 795 c 0,34,35
 193 797 193 797 202 785 c 0,36,37
 207 776 207 776 213 766 c 0,38,39
 215 759 215 759 218 705 c 1,40,-1
 258 705 l 1,41,42
 261 793 261 793 313 793 c 0,43,44
 346 793 346 793 350 703 c 1,45,46
 383 710 383 710 399 701 c 0,47,48
 425 686 425 686 425 663 c 0,49,50
 425 650 425 650 418 633 c 1,51,52
 406 622 406 622 385 621 c 1,53,54
 390 621 390 621 349 621 c 1,55,-1
 353 580 l 1,56,57
 407 583 407 583 420 566 c 0,58,59
 423 563 423 563 424 539 c 0,60,61
 426 505 426 505 396 497 c 0,62,63
 394 497 394 497 347 495 c 1,64,65
 350 480 350 480 350 464 c 0,66,67
 350 410 350 410 313 403 c 0,68,69
 307 402 307 402 301 402 c 0,70,71
 277 402 277 402 268 425 c 0,72,73
 264 438 264 438 262 469 c 0,74,75
 261 493 261 493 255 493 c 0,76,77
 248 493 248 493 226 489 c 1,4,5
EndSplineSet
EndChar

StartChar: dollar
Encoding: 36 36 7
Width: 184
GlyphClass: 1
Flags: W
LayerCount: 2
Fore
SplineSet
203 560 m 1,0,-1
 205 560 l 1,1,2
 205 533 205 533 188 508 c 0,3,4
 169 479 169 479 136 476 c 1,5,6
 131 465 131 465 133 452 c 0,7,8
 133 436 133 436 148.5 382.5 c 128,-1,9
 164 329 164 329 164 317 c 0,10,11
 164 285 164 285 131 270 c 0,12,13
 125 268 125 268 121 268 c 0,14,15
 92 268 92 268 84 329 c 0,16,17
 80 358 80 358 80 380 c 0,18,19
 80 419 80 419 96 479 c 1,20,21
 65 479 65 479 49.5 496.5 c 128,-1,22
 34 514 34 514 34 525 c 0,23,24
 34 535 34 535 41.5 545.5 c 128,-1,25
 49 556 49 556 59 556 c 0,26,27
 64 556 64 556 83 548 c 128,-1,28
 102 540 102 540 106 540 c 0,29,30
 122 540 122 540 122 559 c 0,31,32
 122 569 122 569 98 579 c 0,33,34
 80 586 80 586 57 598 c 0,35,36
 34 614 34 614 34 650 c 0,37,38
 36 667 36 667 55 686.5 c 128,-1,39
 74 706 74 706 95 707 c 1,40,41
 82 740 82 740 82 750 c 0,42,43
 82 764 82 764 93 782 c 0,44,45
 99 792 99 792 114 792 c 0,46,47
 126 792 126 792 139 784 c 0,48,49
 149 775 149 775 149 764 c 0,50,51
 144 746 144 746 141 721 c 0,52,53
 141 715 141 715 144 709 c 1,54,55
 148 710 148 710 155 710 c 0,56,57
 160 710 160 710 192 694 c 0,58,59
 202 686 202 686 204 676 c 0,60,61
 204 663 204 663 196 652.5 c 128,-1,62
 188 642 188 642 177 642 c 0,63,64
 175 642 175 642 144 651 c 0,65,66
 129 655 129 655 119 651 c 0,67,68
 110 646 110 646 113 638 c 0,69,70
 113 627 113 627 137 618 c 0,71,72
 178 603 178 603 181 600 c 0,73,74
 193 592 193 592 203 560 c 1,0,-1
EndSplineSet
EndChar

StartChar: percent
Encoding: 37 37 8
Width: 843
GlyphClass: 1
Flags: W
LayerCount: 2
Fore
SplineSet
792 804 m 1,0,-1
 792 803 l 1,1,2
 806 782 806 782 806 752 c 0,3,4
 806 726 806 726 796 702 c 0,5,6
 770 637 770 637 680 547 c 0,7,8
 609 476 609 476 537 405 c 0,9,10
 502 365 502 365 378 210 c 0,11,12
 279 86 279 86 214 22 c 0,13,14
 182 -10 182 -10 130 -10 c 0,15,16
 62 -10 62 -10 40 52 c 0,17,18
 35 71 35 71 35 89 c 0,19,20
 35 140 35 140 80 189 c 0,21,22
 122 230 122 230 165 270 c 0,23,24
 365 471 365 471 600 766 c 1,25,26
 644 804 644 804 657 813 c 0,27,28
 689 834 689 834 722 834 c 1,29,30
 741 828 741 828 759 822 c 0,31,32
 781 815 781 815 792 804 c 1,0,-1
155 817 m 1,33,-1
 155 818 l 1,34,35
 180 826 180 826 209 826 c 0,36,37
 255 826 255 826 292 806 c 0,38,39
 333 784 333 784 349 742 c 0,40,41
 353 731 353 731 353 710 c 0,42,43
 353 653 353 653 325 610 c 0,44,45
 287 554 287 554 211 554 c 1,46,47
 80 566 80 566 60 651 c 0,48,49
 55 673 55 673 55 692 c 0,50,51
 55 782 55 782 155 817 c 1,33,-1
583 265 m 0,52,53
 610 274 610 274 641 274 c 0,54,55
 688 274 688 274 726 253 c 0,56,57
 768 230 768 230 785 187 c 0,58,59
 790 175 790 175 790 153 c 0,60,61
 790 93 790 93 760 48 c 0,62,63
 721 -11 721 -11 642 -11 c 1,64,65
 576 -4 576 -4 542 15 c 0,66,67
 498 40 498 40 485 92 c 0,68,69
 479 115 479 115 479 135 c 0,70,71
 479 229 479 229 583 265 c 0,52,53
EndSplineSet
EndChar

StartChar: ampersand
Encoding: 38 38 9
Width: 491
GlyphClass: 1
Flags: W
LayerCount: 2
Fore
SplineSet
118 401 m 1,0,1
 121 412 121 412 109 414 c 0,2,3
 91 418 91 418 90 420 c 0,4,5
 49 450 49 450 48 514 c 0,6,7
 47 602 47 602 107 661 c 0,8,9
 171 724 171 724 276 724 c 0,10,11
 369 724 369 724 412 670 c 0,12,13
 439 636 439 636 439 590 c 0,14,15
 439 550 439 550 418 525 c 0,16,17
 408 508 408 508 384 508 c 0,18,19
 375 508 375 508 345.5 516 c 128,-1,20
 316 524 316 524 307 524 c 0,21,22
 281 524 281 524 279 493 c 1,23,24
 285 473 285 473 309 465 c 0,25,26
 316 463 316 463 331 460.5 c 128,-1,27
 346 458 346 458 354 457 c 0,28,29
 376 450 376 450 379 424 c 0,30,31
 382 415 382 415 382 403 c 0,32,33
 382 379 382 379 369 366 c 0,34,35
 363 360 363 360 318 345 c 0,36,37
 284 334 284 334 281 310 c 1,38,39
 288 290 288 290 304 289 c 0,40,41
 319 288 319 288 348 298 c 128,-1,42
 377 308 377 308 382 308 c 0,43,44
 407 308 407 308 428.5 285 c 128,-1,45
 450 262 450 262 450 234 c 0,46,47
 449 172 449 172 359 123 c 0,48,49
 321 102 321 102 269 103 c 0,50,51
 189 104 189 104 131 144 c 0,52,53
 57 196 57 196 48 254 c 0,54,55
 47 261 47 261 47 278 c 0,56,57
 47 363 47 363 118 401 c 1,0,1
239 878 m 1,58,-1
 238 879 l 1,59,60
 240 879 240 879 258 884 c 0,61,62
 259 881 259 881 263.5 883 c 128,-1,63
 268 885 268 885 268 882 c 0,64,65
 309 867 309 867 309 819 c 0,66,67
 309 775 309 775 276 761 c 0,68,69
 269 758 269 758 258 758 c 0,70,71
 204 758 204 758 204 811 c 1,72,73
 210 871 210 871 239 878 c 1,58,-1
307 -33 m 0,74,75
 300 -53 300 -53 280 -68 c 1,76,77
 234 -74 234 -74 214 -42 c 1,78,79
 206 -19 206 -19 206 1 c 0,80,81
 206 19 206 19 213 32 c 0,82,83
 220 53 220 53 254 53 c 0,84,85
 286 53 286 53 302 30 c 1,86,87
 316 -8 316 -8 307 -33 c 0,74,75
EndSplineSet
EndChar

StartChar: quotesingle
Encoding: 39 39 10
Width: 211
GlyphClass: 1
Flags: W
LayerCount: 2
Fore
SplineSet
234 747 m 1,1,2
 205 691 205 691 120 627 c 0,3,4
 114 626 114 626 104.5 622 c 128,-1,5
 95 618 95 618 90 618 c 0,6,7
 72 618 72 618 53 639.5 c 128,-1,8
 34 661 34 661 37 685 c 0,9,10
 45 723 45 723 54 762 c 1,11,12
 69 805 69 805 104 815 c 1,13,14
 164 824 164 824 172 824 c 0,15,16
 210 824 210 824 227 801 c 128,-1,0
 244 778 244 778 234 747 c 1,1,2
EndSplineSet
EndChar

StartChar: parenleft
Encoding: 40 40 11
Width: 415
GlyphClass: 1
Flags: W
LayerCount: 2
Fore
SplineSet
372 787 m 1,0,-1
 371 787 l 1,1,2
 383 762 383 762 383 725 c 0,3,4
 383 703 383 703 378 688 c 0,5,6
 280 528 280 528 280 398 c 0,7,8
 280 338 280 338 300 284 c 1,9,10
 304 253 304 253 339 189 c 0,11,12
 371 129 371 129 371 96 c 0,13,14
 371 60 371 60 343 27 c 0,15,16
 307 -15 307 -15 242 -15 c 0,17,18
 218 -15 218 -15 197 -8 c 0,19,20
 158 4 158 4 132 52 c 0,21,22
 92 122 92 122 86 129 c 0,23,24
 76 158 76 158 50 213 c 1,25,26
 31 287 31 287 31 367 c 0,27,28
 31 574 31 574 143 750 c 0,29,30
 202 843 202 843 290 843 c 0,31,32
 356 843 356 843 372 787 c 1,0,-1
EndSplineSet
EndChar

StartChar: parenright
Encoding: 41 41 12
Width: 406
GlyphClass: 1
Flags: W
LayerCount: 2
Fore
SplineSet
298 711 m 1,0,-1
 297 711 l 1,1,2
 375 589 375 589 375 414 c 0,3,4
 375 277 375 277 326 167 c 1,5,6
 302 77 302 77 210 -3 c 1,7,8
 178 -14 178 -14 150 -14 c 0,9,10
 105 -14 105 -14 84 14 c 0,11,12
 65 33 65 33 56 64 c 0,13,14
 55 70 55 70 47 121 c 1,15,16
 58 137 58 137 75 175 c 0,17,18
 91 210 91 210 104 228 c 1,19,20
 136 346 136 346 136 429 c 0,21,22
 136 530 136 530 92 600 c 0,23,24
 59 653 59 653 48 675 c 0,25,26
 28 720 28 720 30 760 c 1,27,28
 53 824 53 824 159 849 c 0,29,30
 170 852 170 852 180 852 c 0,31,32
 223 852 223 852 253 799 c 0,33,34
 276 755 276 755 298 711 c 1,0,-1
EndSplineSet
EndChar

StartChar: asterisk
Encoding: 42 42 13
Width: 464
GlyphClass: 1
Flags: W
LayerCount: 2
Fore
SplineSet
138 794 m 1,0,-1
 139 794 l 1,1,2
 154 805 154 805 167 805 c 0,3,4
 204 805 204 805 233 696 c 1,5,6
 245 728 245 728 258 760 c 0,7,8
 279 806 279 806 301 806 c 0,9,10
 313 806 313 806 325 794 c 0,11,12
 345 773 345 773 345 756 c 0,13,14
 345 733 345 733 289 683 c 1,15,16
 303 685 303 685 335 690 c 0,17,18
 359 694 359 694 370 694 c 0,19,20
 405 694 405 694 403 648 c 0,21,22
 401 607 401 607 359 607 c 0,23,24
 343 607 343 607 292 618 c 1,25,26
 347 576 347 576 347 534 c 0,27,28
 347 512 347 512 327 499 c 0,29,30
 317 493 317 493 307 493 c 0,31,32
 282 493 282 493 262 532 c 0,33,34
 257 542 257 542 236 597 c 1,35,36
 212 489 212 489 170 489 c 0,37,38
 164 489 164 489 158 492 c 0,39,40
 126 505 126 505 126 530 c 0,41,42
 126 563 126 563 181 620 c 1,43,44
 176 619 176 619 144 609 c 0,45,46
 119 602 119 602 105 602 c 0,47,48
 70 602 70 602 67 643 c 1,49,50
 69 689 69 689 104 689 c 0,51,52
 116 689 116 689 145 681.5 c 128,-1,53
 174 674 174 674 186 675 c 1,54,55
 164 694 164 694 143 713 c 128,-1,56
 122 732 122 732 122 752 c 0,57,58
 122 770 122 770 138 794 c 1,0,-1
EndSplineSet
EndChar

StartChar: plus
Encoding: 43 43 14
Width: 462
GlyphClass: 1
Flags: W
LayerCount: 2
Fore
SplineSet
311 539 m 1,0,-1
 312 540 l 1,1,2
 315 510 315 510 332 454 c 1,3,4
 362 456 362 456 370 456 c 0,5,6
 411 456 411 456 427 431 c 1,7,8
 440 401 440 401 440 367 c 0,9,10
 440 331 440 331 424 307 c 0,11,12
 406 287 406 287 377 282 c 128,-1,13
 348 277 348 277 320 272 c 1,14,15
 313 259 313 259 313 234 c 1,16,-1
 313 234 l 1,17,18
 313 217 313 217 308 185.5 c 128,-1,19
 303 154 303 154 257 112 c 1,20,21
 247 114 247 114 215 113 c 0,22,23
 190 112 190 112 175 122 c 0,24,25
 142 143 142 143 142 193 c 0,26,27
 142 203 142 203 144 230 c 0,28,29
 146 253 146 253 145 266 c 1,30,31
 109 272 109 272 73 278 c 0,32,33
 32 289 32 289 26 325 c 0,34,35
 21 336 21 336 21 350 c 0,36,37
 21 377 21 377 40 414 c 0,38,39
 46 425 46 425 64 431 c 0,40,41
 86 438 86 438 91 443 c 1,42,43
 127 439 127 439 150 448 c 1,44,45
 146 473 146 473 146 494 c 0,46,47
 146 554 146 554 181 590 c 0,48,49
 192 601 192 601 210 607 c 128,-1,50
 228 613 228 613 244 618 c 1,51,52
 273 617 273 617 289 590 c 0,53,54
 300 565 300 565 311 539 c 1,0,-1
EndSplineSet
EndChar

StartChar: comma
Encoding: 44 44 15
Width: 221
GlyphClass: 1
Flags: W
LayerCount: 2
Fore
SplineSet
218 127 m 1,0,-1
 219 127 l 1,1,2
 248 91 248 91 248 34 c 0,3,4
 248 1 248 1 238 -37 c 1,5,6
 207 -111 207 -111 165 -117 c 1,7,8
 167 -117 167 -117 137 -117 c 0,9,10
 121 -117 121 -117 111 -110 c 0,11,12
 94 -90 94 -90 94 -67 c 0,13,14
 94 -52 94 -52 102 -33 c 1,15,16
 39 -20 39 -20 21 26 c 0,17,18
 20 35 20 35 20 44 c 0,19,20
 20 86 20 86 58 139 c 1,21,22
 90 158 90 158 133 158 c 0,23,24
 189 158 189 158 218 127 c 1,0,-1
EndSplineSet
EndChar

StartChar: hyphen
Encoding: 45 45 16
Width: 423
GlyphClass: 1
Flags: W
LayerCount: 2
Fore
SplineSet
377 448 m 1,0,-1
 376 448 l 1,1,2
 399 415 399 415 399 370 c 0,3,4
 399 357 399 357 397 344 c 0,5,6
 389 317 389 317 387 312 c 0,7,8
 379 294 379 294 363 286 c 0,9,10
 315 272 315 272 234 272 c 0,11,12
 221 272 221 272 160 273 c 0,13,14
 115 274 115 274 89 273 c 1,15,16
 61 286 61 286 59 287 c 0,17,18
 44 296 44 296 40 313 c 0,19,20
 40 319 40 319 38 340 c 0,21,22
 37 356 37 356 37 366 c 0,23,24
 37 421 37 421 78 441 c 1,25,26
 110 464 110 464 171 465 c 0,27,28
 247 467 247 467 267 473 c 1,29,30
 296 471 296 471 325 469 c 0,31,32
 358 465 358 465 377 448 c 1,0,-1
EndSplineSet
EndChar

StartChar: period
Encoding: 46 46 17
Width: 311
GlyphClass: 1
Flags: W
LayerCount: 2
Fore
SplineSet
112 203 m 1,0,-1
 111 203 l 1,1,2
 132 210 132 210 157 210 c 0,3,4
 243 210 243 210 270 143 c 0,5,6
 275 130 275 130 275 107 c 0,7,8
 275 65 275 65 254 36 c 0,9,10
 227 -3 227 -3 169 -3 c 1,11,12
 106 3 106 3 87 11 c 0,13,14
 47 25 47 25 36 68 c 0,15,16
 30 90 30 90 30 108 c 0,17,18
 30 174 30 174 112 203 c 1,0,-1
EndSplineSet
EndChar

StartChar: slash
Encoding: 47 47 18
Width: 485
GlyphClass: 1
Flags: W
LayerCount: 2
Fore
SplineSet
397 804 m 1,0,-1
 396 804 l 1,1,2
 451 796 451 796 466 750 c 1,3,4
 470 674 470 674 436 578 c 1,5,6
 403 498 403 498 371 418 c 0,7,8
 312 257 312 257 200 26 c 1,9,10
 177 -11 177 -11 118 -11 c 0,11,12
 81 -11 81 -11 56 3 c 1,13,14
 9 39 9 39 9 100 c 0,15,16
 9 143 9 143 40 227 c 0,17,18
 103 390 103 390 231 727 c 1,19,20
 276 813 276 813 336 820 c 0,21,22
 343 817 343 817 367 815 c 0,23,24
 387 812 387 812 397 804 c 1,0,-1
EndSplineSet
EndChar

StartChar: zero
Encoding: 48 48 19
Width: 620
GlyphClass: 1
Flags: W
LayerCount: 2
Fore
SplineSet
553 628 m 1,0,-1
 553 629 l 1,1,2
 588 536 588 536 588 422 c 0,3,4
 588 262 588 262 527 133 c 1,5,6
 512 90 512 90 474 55 c 128,-1,7
 436 20 436 20 392 9 c 0,8,9
 365 2 365 2 336 2 c 0,10,11
 254 2 254 2 171 54 c 1,12,13
 107 105 107 105 73 187 c 0,14,15
 50 243 50 243 32 346 c 1,16,17
 29 552 29 552 115 692 c 1,18,19
 173 747 173 747 199 763 c 0,20,21
 250 795 250 795 305 791 c 0,22,23
 390 785 390 785 457.5 740.5 c 128,-1,24
 525 696 525 696 551 628 c 1,25,-1
 553 628 l 1,0,-1
339 528 m 1,26,-1
 341 527 l 1,27,28
 343 544 343 544 326 544 c 0,29,30
 314 544 314 544 309 533 c 0,31,32
 284 477 284 477 284 391 c 0,33,34
 284 333 284 333 296 248 c 1,35,-1
 302 244 l 1,36,37
 313 244 313 244 317 257 c 0,38,39
 342 411 342 411 342 470 c 0,40,41
 342 499 342 499 339 528 c 1,26,-1
EndSplineSet
EndChar

StartChar: one
Encoding: 49 49 20
Width: 604
GlyphClass: 1
Flags: W
LayerCount: 2
Fore
SplineSet
503 393 m 1,0,-1
 502 393 l 1,1,2
 503 320 503 320 482 195 c 0,3,4
 464 90 464 90 460 86 c 0,5,6
 448 46 448 46 405 22 c 0,7,8
 366 0 366 0 317 0 c 0,9,10
 266 0 266 0 233 32 c 0,11,12
 170 94 170 94 170 175 c 0,13,14
 170 192 170 192 180 286 c 0,15,16
 186 341 186 341 192 391 c 0,17,18
 201 467 201 467 208 475 c 1,19,20
 208 486 208 486 197 484 c 2,21,-1
 178 484 l 2,22,23
 133 487 133 487 119 532 c 1,24,25
 117 556 117 556 117 565 c 0,26,27
 117 656 117 656 175 715 c 0,28,29
 189 729 189 729 232 758 c 0,30,31
 264 779 264 779 278 786 c 0,32,33
 305 799 305 799 334 799 c 0,34,35
 404 799 404 799 449 723 c 0,36,37
 486 660 486 660 497 565 c 0,38,39
 501 528 501 528 503 392 c 1,40,-1
 503 393 l 1,0,-1
EndSplineSet
EndChar

StartChar: two
Encoding: 50 50 21
Width: 620
GlyphClass: 1
Flags: W
LayerCount: 2
Fore
SplineSet
546 499 m 0,0,1
 522 402 522 402 464 331.5 c 128,-1,2
 406 261 406 261 323 234 c 1,3,-1
 325 223 l 1,4,5
 334 223 334 223 379 225.5 c 128,-1,6
 424 228 424 228 439 228 c 0,7,8
 495 228 495 228 518 214 c 0,9,10
 562 187 562 187 562 124 c 0,11,12
 562 81 562 81 536 59 c 0,13,14
 488 19 488 19 408 9 c 0,15,16
 368 4 368 4 277 4 c 1,17,18
 187 17 187 17 140 45 c 0,19,20
 97 71 97 71 78 119 c 0,21,22
 62 161 62 161 61 197 c 0,23,24
 60 252 60 252 114 359 c 0,25,26
 143 417 143 417 227 484 c 0,27,28
 303 545 303 545 305 545 c 1,29,-1
 295 550 l 1,30,31
 243 516 243 516 168 516 c 0,32,33
 144 516 144 516 130 521 c 0,34,35
 71 541 71 541 58 601 c 1,36,37
 55 662 55 662 92 703 c 0,38,39
 176 795 176 795 297 795 c 0,40,41
 340 795 340 795 379 784 c 0,42,43
 454 763 454 763 505 674 c 0,44,45
 549 597 549 597 548 525 c 0,46,47
 548 511 548 511 546 499 c 0,0,1
EndSplineSet
EndChar

StartChar: three
Encoding: 51 51 22
Width: 620
GlyphClass: 1
Flags: W
LayerCount: 2
Fore
SplineSet
476 418 m 1,0,-1
 477 418 l 1,1,2
 473 405 473 405 488 402 c 0,3,4
 509 398 509 398 513 394 c 0,5,6
 565 355 565 355 565 273 c 0,7,8
 565 240 565 240 557 201 c 0,9,10
 544 140 544 140 491 87 c 128,-1,11
 438 34 438 34 371 18 c 0,12,13
 322 6 322 6 275 6 c 0,14,15
 157 6 157 6 102 75 c 0,16,17
 67 119 67 119 68 177 c 0,18,19
 69 208 69 208 77 233 c 1,20,21
 88 253 88 253 94 260 c 0,22,23
 104 274 104 274 115 277.5 c 128,-1,24
 126 281 126 281 137 281 c 0,25,26
 149 281 149 281 187 271 c 128,-1,27
 225 261 225 261 235 261 c 0,28,29
 268 261 268 261 272 301 c 1,30,31
 264 328 264 328 233 335 c 0,32,33
 214 338 214 338 176 346 c 1,34,35
 147 357 147 357 144 388 c 0,36,37
 140 399 140 399 140 415 c 0,38,39
 140 446 140 446 157 463 c 0,40,41
 165 471 165 471 222 490 c 0,42,43
 265 504 265 504 267 534 c 1,44,45
 262 554 262 554 239 562 c 1,46,47
 220 563 220 563 182.5 550 c 128,-1,48
 145 537 145 537 141 537 c 0,49,50
 110 537 110 537 81 566.5 c 128,-1,51
 52 596 52 596 52 631 c 0,52,53
 52 709 52 709 168 772 c 0,54,55
 217 799 217 799 284 799 c 0,56,57
 384 799 384 799 460 745 c 0,58,59
 555 677 555 677 565 606 c 0,60,61
 567 591 567 591 567 575 c 0,62,63
 567 466 567 466 476 418 c 1,0,-1
EndSplineSet
EndChar

StartChar: four
Encoding: 52 52 23
Width: 620
GlyphClass: 1
Flags: W
LayerCount: 2
Fore
SplineSet
597 295 m 1,0,-1
 596 295 l 1,1,2
 596 237 596 237 549 217 c 1,3,4
 518 217 518 217 518 186 c 0,5,6
 518 119 518 119 511 91 c 0,7,8
 489 2 489 2 377 2 c 0,9,10
 346 2 346 2 321 11 c 0,11,12
 260 33 260 33 246 125 c 0,13,14
 245 127 245 127 245 152 c 0,15,16
 245 174 245 174 238 181 c 1,17,18
 120 182 120 182 64 228 c 1,19,20
 23 271 23 271 23 328 c 0,21,22
 23 372 23 372 48 435 c 0,23,24
 61 468 61 468 89 535 c 0,25,26
 162 694 162 694 223 759 c 0,27,28
 256 794 256 794 340 794 c 0,29,30
 382 794 382 794 418 784 c 0,31,32
 497 753 497 753 532 697 c 0,33,34
 558 655 558 655 558 578 c 0,35,36
 558 495 558 495 533 401 c 1,37,38
 581 393 581 393 593 352 c 0,39,40
 597 339 597 339 597 295 c 1,0,-1
255 407 m 1,41,-1
 254 407 l 1,42,43
 260 387 260 387 286 387 c 0,44,45
 304 387 304 387 309 398 c 0,46,47
 319 422 319 422 319 457 c 0,48,49
 319 491 319 491 313 551 c 1,50,51
 299 525 299 525 272 472 c 0,52,53
 250 427 250 427 255 407 c 1,41,-1
EndSplineSet
EndChar

StartChar: five
Encoding: 53 53 24
Width: 620
GlyphClass: 1
Flags: W
LayerCount: 2
Fore
SplineSet
542 707 m 0,0,1
 549 690 549 690 549 674 c 0,2,3
 549 645 549 645 534 623 c 0,4,5
 471 555 471 555 406 555 c 0,6,7
 388 555 388 555 372 559 c 2,8,-1
 325 584 l 1,9,10
 318 576 318 576 320 557 c 0,11,12
 322 535 322 535 319 527 c 0,13,14
 320 523 320 523 317 514.5 c 128,-1,15
 314 506 314 506 314 500 c 0,16,17
 314 496 314 496 319 491 c 1,18,19
 453 497 453 497 531 403 c 1,20,21
 559 343 559 343 559 271 c 0,22,23
 559 174 559 174 510 112 c 0,24,25
 424 4 424 4 274 4 c 0,26,27
 239 4 239 4 229 5 c 0,28,29
 151 13 151 13 120 46 c 1,30,31
 80 80 80 80 81 144 c 0,32,33
 82 232 82 232 139 233 c 0,34,35
 164 234 164 234 214 236 c 0,36,37
 254 239 254 239 275 268 c 0,38,39
 280 275 280 275 273 307 c 1,40,41
 258 324 258 324 234 324 c 0,42,43
 226 324 226 324 196.5 317 c 128,-1,44
 167 310 167 310 159 310 c 0,45,46
 146 310 146 310 134 316 c 0,47,48
 60 354 60 354 61 463 c 0,49,50
 61 488 61 488 65 536 c 1,51,52
 79 616 79 616 85 657 c 1,53,54
 103 724 103 724 154 750 c 0,55,56
 246 797 246 797 373 802 c 0,57,58
 432 804 432 804 477.5 778.5 c 128,-1,59
 523 753 523 753 542 707 c 0,0,1
EndSplineSet
EndChar

StartChar: six
Encoding: 54 54 25
Width: 620
GlyphClass: 1
Flags: W
LayerCount: 2
Fore
SplineSet
494 73 m 1,0,-1
 493 73 l 1,1,2
 417 2 417 2 329 2 c 0,3,4
 279 2 279 2 218 29 c 0,5,6
 88 86 88 86 63 251 c 0,7,8
 58 284 58 284 58 327 c 0,9,10
 58 472 58 472 111 597 c 0,11,12
 175 749 175 749 288 783 c 0,13,14
 315 791 315 791 338 791 c 0,15,16
 388 791 388 791 422.5 758 c 128,-1,17
 457 725 457 725 457 679 c 0,18,19
 457 622 457 622 396 560 c 0,20,21
 384 548 384 548 296 475 c 1,22,23
 300 474 300 474 331 478 c 0,24,25
 368 483 368 483 395 483 c 0,26,27
 453 483 453 483 483 459 c 0,28,29
 562 396 562 396 562 277 c 0,30,31
 562 217 562 217 542 158 c 128,-1,32
 522 99 522 99 494 73 c 1,0,-1
325 314 m 1,33,34
 324 323 324 323 316 326 c 0,35,36
 312 327 312 327 287 330 c 1,37,38
 271 320 271 320 268 295 c 0,39,40
 266 280 266 280 263 250 c 0,41,42
 262 205 262 205 272 193 c 0,43,44
 277 190 277 190 294 200 c 1,45,46
 322 249 322 249 324 314 c 1,47,-1
 325 314 l 1,33,34
EndSplineSet
EndChar

StartChar: seven
Encoding: 55 55 26
Width: 620
GlyphClass: 1
Flags: W
LayerCount: 2
Fore
SplineSet
542 543 m 1,0,1
 538 511 538 511 511.5 388.5 c 128,-1,2
 485 266 485 266 481 226 c 0,3,4
 472 142 472 142 432.5 83.5 c 128,-1,5
 393 25 393 25 332 10 c 0,6,7
 310 8 310 8 300 8 c 0,8,9
 219 8 219 8 180 66 c 1,10,11
 162 102 162 102 162 159 c 0,12,13
 162 250 162 250 204.5 363.5 c 128,-1,14
 247 477 247 477 292 508 c 0,15,16
 300 516 300 516 287 522 c 1,17,18
 210 505 210 505 182 505 c 0,19,20
 75 505 75 505 75 631 c 0,21,22
 75 640 75 640 77 658 c 0,23,24
 103 735 103 735 184 774 c 1,25,26
 279 794 279 794 295 794 c 0,27,28
 429 793 429 793 489 740 c 0,29,30
 545 691 545 691 545 592 c 0,31,32
 545 569 545 569 542 541 c 1,33,-1
 542 543 l 1,0,1
EndSplineSet
EndChar

StartChar: eight
Encoding: 56 56 27
Width: 620
GlyphClass: 1
Flags: W
LayerCount: 2
Fore
SplineSet
515 74 m 0,0,1
 474 25 474 25 417 14 c 0,2,3
 348 1 348 1 292 1 c 0,4,5
 166 1 166 1 96 76 c 1,6,7
 44 144 44 144 44 222 c 0,8,9
 44 276 44 276 71 323 c 0,10,11
 85 348 85 348 160 409 c 1,12,13
 127 421 127 421 113 427 c 0,14,15
 90 438 90 438 82 448 c 0,16,17
 50 489 50 489 50 549 c 0,18,19
 50 683 50 683 164 755 c 0,20,21
 229 796 229 796 302 796 c 0,22,23
 369 796 369 796 434 771 c 0,24,25
 456 762 456 762 480 738 c 0,26,27
 499 715 499 715 519 692 c 1,28,29
 544 654 544 654 544 598 c 256,30,31
 544 542 544 542 517 490 c 128,-1,32
 490 438 490 438 447 411 c 1,33,34
 452 403 452 403 480.5 392.5 c 128,-1,35
 509 382 509 382 512 378 c 0,36,37
 576 306 576 306 576 231 c 0,38,39
 576 147 576 147 515 74 c 0,0,1
327 608 m 1,40,41
 327 624 327 624 311 623 c 1,42,43
 290 616 290 616 280 592 c 0,44,45
 272 564 272 564 267 550 c 1,46,47
 267 501 267 501 266 513 c 1,48,49
 267 493 267 493 281 486 c 1,50,51
 337 542 337 542 329 608 c 1,52,-1
 327 608 l 1,40,41
323 282 m 1,53,-1
 324 281 l 1,54,55
 316 296 316 296 294 296 c 1,56,57
 259 259 259 259 264 188 c 0,58,59
 265 180 265 180 272 170 c 1,60,61
 290 176 290 176 318 210 c 1,62,63
 329 234 329 234 329 252 c 0,64,65
 329 268 329 268 323 282 c 1,53,-1
EndSplineSet
EndChar

StartChar: nine
Encoding: 57 57 28
Width: 620
GlyphClass: 1
Flags: W
LayerCount: 2
Fore
SplineSet
574 420 m 1,0,-1
 575 420 l 1,1,2
 547 264 547 264 459 120 c 0,3,4
 384 -3 384 -3 253 6 c 0,5,6
 219 8 219 8 190 26.5 c 128,-1,7
 161 45 161 45 155 69.5 c 128,-1,8
 149 94 149 94 149 122 c 0,9,10
 149 192 149 192 197 242 c 0,11,12
 217 263 217 263 254 286 c 1,13,14
 219 285 219 285 206 288 c 0,15,16
 158 301 158 301 116.5 336.5 c 128,-1,17
 75 372 75 372 56 416 c 0,18,19
 38 457 38 457 39 506 c 0,20,21
 40 561 40 561 64 616.5 c 128,-1,22
 88 672 88 672 123 706 c 1,23,24
 201 799 201 799 327 799 c 0,25,26
 358 799 358 799 388 793 c 0,27,28
 475 776 475 776 538 689 c 0,29,30
 581 630 581 630 581 530 c 0,31,32
 581 493 581 493 574 420 c 1,0,-1
349 566 m 1,33,-1
 350 566 l 1,34,35
 339 598 339 598 326 598 c 0,36,37
 320 598 320 598 315 594 c 0,38,39
 284 575 284 575 284 509 c 0,40,41
 284 490 284 490 286 479 c 0,42,43
 289 463 289 463 301 458 c 0,44,45
 323 449 323 449 334 465 c 0,46,47
 354 494 354 494 355 533 c 0,48,49
 355 548 355 548 349 566 c 1,33,-1
EndSplineSet
EndChar

StartChar: colon
Encoding: 58 58 29
Width: 313
GlyphClass: 1
Flags: W
LayerCount: 2
Fore
SplineSet
124 554 m 1,0,-1
 123 554 l 1,1,2
 144 561 144 561 169 561 c 0,3,4
 255 561 255 561 282 494 c 0,5,6
 287 481 287 481 287 458 c 0,7,8
 287 416 287 416 266 387 c 0,9,10
 239 349 239 349 181 349 c 1,11,12
 109 356 109 356 100 359 c 0,13,14
 62 372 62 372 47 419 c 0,15,16
 41 439 41 439 41 456 c 0,17,18
 41 525 41 525 124 554 c 1,0,-1
216 198 m 1,19,-1
 217 198 l 1,20,21
 248 183 248 183 257 175 c 0,22,23
 272 160 272 160 282 127 c 0,24,25
 284 114 284 114 284 103 c 0,26,27
 284 43 284 43 235 11 c 1,28,29
 191 -5 191 -5 152 -5 c 0,30,31
 114 -5 114 -5 87 11 c 1,32,33
 53 41 53 41 44 75 c 0,34,35
 41 85 41 85 41 97 c 0,36,37
 41 126 41 126 55 153 c 128,-1,38
 69 180 69 180 91 191 c 0,39,40
 130 210 130 210 165 210 c 0,41,42
 192 210 192 210 216 198 c 1,19,-1
EndSplineSet
EndChar

StartChar: semicolon
Encoding: 59 59 30
Width: 250
GlyphClass: 1
Flags: W
LayerCount: 2
Fore
SplineSet
38 485 m 1,0,1
 61 528 61 528 144 545 c 1,2,3
 200 536 200 536 217 529 c 0,4,5
 255 515 255 515 272 477 c 0,6,7
 278 464 278 464 278 448 c 0,8,9
 278 422 278 422 258 382 c 1,10,11
 229 344 229 344 171 341 c 0,12,13
 115 338 115 338 78 366 c 0,14,15
 36 397 36 397 36 456 c 0,16,17
 36 470 36 470 38 485 c 1,0,1
238 158 m 1,18,-1
 239 158 l 1,19,20
 268 122 268 122 268 65 c 0,21,22
 268 32 268 32 258 -6 c 1,23,24
 227 -80 227 -80 184 -86 c 1,25,26
 186 -86 186 -86 156 -86 c 0,27,28
 140 -86 140 -86 131 -79 c 0,29,30
 114 -59 114 -59 114 -36 c 0,31,32
 114 -21 114 -21 122 -2 c 1,33,34
 59 11 59 11 41 57 c 0,35,36
 40 66 40 66 40 75 c 0,37,38
 40 117 40 117 78 170 c 1,39,40
 110 189 110 189 153 189 c 0,41,42
 209 189 209 189 238 158 c 1,18,-1
EndSplineSet
EndChar

StartChar: equal
Encoding: 61 61 32
Width: 475
GlyphClass: 1
Flags: W
LayerCount: 2
Fore
SplineSet
392 539 m 1,0,1
 421 518 421 518 421 468 c 0,2,3
 421 444 421 444 414 414 c 1,4,5
 393 382 393 382 344 378 c 0,6,7
 304 378 304 378 263 377 c 0,8,9
 206 376 206 376 92 385 c 1,10,11
 36 414 36 414 39 486 c 0,12,13
 38 508 38 508 61 525 c 0,14,15
 81 540 81 540 109 545 c 0,16,17
 129 548 129 548 163 546 c 0,18,19
 203 545 203 545 218 546 c 1,20,21
 220 551 220 551 222 551 c 256,22,23
 224 551 224 551 227.5 548 c 128,-1,24
 231 545 231 545 233 545 c 256,25,26
 235 545 235 545 236 546 c 2,27,-1
 392 539 l 1,0,1
403 299 m 1,28,-1
 404 300 l 1,29,30
 425 257 425 257 421 232 c 0,31,32
 413 183 413 183 373 167 c 0,33,34
 349 157 349 157 290 156 c 0,35,36
 228 155 228 155 204 147 c 1,37,38
 160 150 160 150 116 153 c 0,39,40
 65 158 65 158 46 196 c 0,41,42
 37 208 37 208 37 222 c 0,43,44
 37 237 37 237 47 256 c 0,45,46
 56 272 56 272 65 288 c 1,47,48
 84 301 84 301 143 311 c 1,49,50
 253 308 253 308 351 325 c 0,51,52
 365 327 365 327 380 317 c 0,53,54
 391 308 391 308 403 299 c 1,28,-1
EndSplineSet
EndChar

StartChar: question
Encoding: 63 63 34
Width: 587
GlyphClass: 1
Flags: W
LayerCount: 2
Fore
SplineSet
547 692 m 1,0,-1
 546 692 l 1,1,2
 572 634 572 634 572 584 c 0,3,4
 572 526 572 526 536 493 c 1,5,6
 457 435 457 435 448 304 c 1,7,8
 435 250 435 250 376 232 c 0,9,10
 365 228 365 228 268 215 c 0,11,12
 253 213 253 213 233 217 c 0,13,14
 217 221 217 221 201 224 c 1,15,16
 168 265 168 265 168 301 c 0,17,18
 168 344 168 344 226.5 424.5 c 128,-1,19
 285 505 285 505 287 553 c 1,20,-1
 280 561 l 1,21,22
 259 536 259 536 236 511.5 c 128,-1,23
 213 487 213 487 183 479 c 0,24,25
 166 475 166 475 150 475 c 0,26,27
 112 475 112 475 69 498 c 0,28,29
 10 530 10 530 16 627 c 1,30,31
 74 747 74 747 199 782 c 0,32,33
 210 781 210 781 237 788.5 c 128,-1,34
 264 796 264 796 278 796 c 0,35,36
 497 801 497 801 547 692 c 1,0,-1
438 127 m 1,37,-1
 438 128 l 1,38,39
 446 111 446 111 446 90 c 0,40,41
 446 73 446 73 434 22 c 1,42,43
 384 -52 384 -52 296 -52 c 0,44,45
 199 -52 199 -52 165 19 c 0,46,47
 159 37 159 37 159 56 c 0,48,49
 159 116 159 116 211 163 c 1,50,51
 264 190 264 190 322 190 c 0,52,53
 407 190 407 190 438 127 c 1,37,-1
EndSplineSet
EndChar

StartChar: at
Encoding: 64 64 35
Width: 840
GlyphClass: 1
Flags: W
LayerCount: 2
Fore
SplineSet
615 245 m 0,0,1
 577 245 577 245 551 264 c 0,2,3
 546 268 546 268 536.5 285 c 128,-1,4
 527 302 527 302 520 302 c 0,5,6
 511 302 511 302 509 290.5 c 128,-1,7
 507 279 507 279 506 269 c 0,8,9
 499 250 499 250 474.5 238.5 c 128,-1,10
 450 227 450 227 425 227 c 0,11,12
 418 227 418 227 412 228 c 0,13,14
 260 257 260 257 260 358 c 0,15,16
 260 402 260 402 292.5 443 c 128,-1,17
 325 484 325 484 367 484 c 0,18,19
 377 484 377 484 397 481 c 128,-1,20
 417 478 417 478 427 478 c 0,21,22
 449 478 449 478 451.5 495 c 128,-1,23
 454 512 454 512 472 512 c 0,24,25
 506 512 506 512 533 469 c 1,26,27
 552 429 552 429 571 389 c 0,28,29
 592 345 592 345 614 345 c 0,30,31
 641 345 641 345 641 389 c 0,32,33
 641 449 641 449 614 485 c 0,34,35
 562 553 562 553 527 568 c 0,36,37
 497 581 497 581 412 581 c 0,38,39
 330 581 330 581 268 516.5 c 128,-1,40
 206 452 206 452 206 369 c 0,41,42
 206 274 206 274 274 216 c 0,43,44
 338 160 338 160 434 160 c 0,45,46
 472 160 472 160 517.5 181 c 128,-1,47
 563 202 563 202 572 202 c 0,48,49
 599 202 599 202 622 181 c 128,-1,50
 645 160 645 160 645 134 c 0,51,52
 645 96 645 96 551 58 c 0,53,54
 468 25 468 25 421 25 c 0,55,56
 283 25 283 25 179 130.5 c 128,-1,57
 75 236 75 236 75 374 c 0,58,59
 75 509 75 509 176 612 c 128,-1,60
 277 715 277 715 411 715 c 0,61,62
 550 715 550 715 651 636 c 0,63,64
 763 548 763 548 765 400 c 0,65,66
 767 319 767 319 731 282 c 128,-1,67
 695 245 695 245 615 245 c 0,0,1
458 351 m 0,68,69
 458 371 458 371 434.5 388.5 c 128,-1,70
 411 406 411 406 391 406 c 0,71,72
 378 406 378 406 368.5 396 c 128,-1,73
 359 386 359 386 359 373 c 0,74,75
 359 348 359 348 378 334 c 128,-1,76
 397 320 397 320 422 320 c 0,77,78
 458 320 458 320 458 351 c 0,68,69
EndSplineSet
EndChar

StartChar: A
Encoding: 65 65 36
Width: 656
GlyphClass: 1
Flags: W
LayerCount: 2
Fore
SplineSet
609 88 m 1,0,-1
 609 87 l 1,1,2
 600 39 600 39 550 27 c 0,3,4
 525 21 525 21 498 21 c 0,5,6
 449 21 449 21 418 44 c 1,7,8
 396 73 396 73 392 82 c 0,9,10
 379 108 379 108 379 149 c 1,11,12
 339 151 339 151 288 145 c 1,13,14
 290 136 290 136 292 118 c 0,15,16
 292 77 292 77 269 33 c 1,17,18
 240 -8 240 -8 184 -8 c 0,19,20
 157 -8 157 -8 117 2 c 1,21,-1
 115 4 l 1,22,23
 30 46 30 46 30 213 c 0,24,25
 30 224 30 224 32 265 c 0,26,27
 40 422 40 422 61 511 c 0,28,29
 91 637 91 637 167 737 c 0,30,31
 226 814 226 814 338 814 c 0,32,33
 458 814 458 814 519 739 c 0,34,35
 555 695 555 695 570 636 c 0,36,37
 625 425 625 425 625 265 c 0,38,39
 625 171 625 171 609 88 c 1,0,-1
356 350 m 0,40,41
 363 431 363 431 346 603 c 1,42,43
 339 610 339 610 325 598 c 1,44,45
 312 513 312 513 306 460 c 0,46,47
 296 367 296 367 299 354 c 0,48,49
 304 343 304 343 316 343 c 0,50,51
 320 343 320 343 336.5 346.5 c 128,-1,52
 353 350 353 350 356 350 c 0,40,41
EndSplineSet
EndChar

StartChar: B
Encoding: 66 66 37
Width: 605
GlyphClass: 1
Flags: W
LayerCount: 2
Fore
SplineSet
570 241 m 0,0,1
 561 132 561 132 487 75 c 0,2,3
 448 45 448 45 346 8 c 1,4,5
 301 0 301 0 253 0 c 0,6,7
 112 0 112 0 50 59 c 0,8,9
 35 78 35 78 35 362 c 0,10,11
 35 699 35 699 51 732 c 1,12,13
 121 792 121 792 262 792 c 0,14,15
 303 792 303 792 324 788 c 0,16,17
 434 767 434 767 488 707.5 c 128,-1,18
 542 648 542 648 545 556 c 1,19,20
 537 502 537 502 501 468 c 0,21,22
 485 453 485 453 433 425 c 1,23,24
 498 413 498 413 536.5 359 c 128,-1,25
 575 305 575 305 570 241 c 0,0,1
316 586 m 1,26,-1
 315 585 l 1,27,28
 310 611 310 611 271 611 c 0,29,30
 258 611 258 611 256 609 c 0,31,32
 249 608 249 608 243 596 c 1,33,34
 250 537 250 537 244 464 c 1,35,-1
 288 492 l 1,36,37
 318 544 318 544 318 571 c 0,38,39
 318 576 318 576 316 586 c 1,26,-1
297 247 m 1,40,-1
 297 246 l 1,41,42
 304 269 304 269 304 285 c 0,43,44
 304 331 304 331 273 331 c 0,45,46
 256 331 256 331 240 318 c 1,47,48
 241 305 241 305 237 270 c 0,49,50
 231 228 231 228 231 219 c 0,51,52
 231 213 231 213 233 188 c 1,53,54
 263 192 263 192 279 211 c 0,55,56
 286 220 286 220 297 247 c 1,40,-1
EndSplineSet
EndChar

StartChar: C
Encoding: 67 67 38
Width: 582
GlyphClass: 1
Flags: W
LayerCount: 2
Fore
SplineSet
552 257 m 2,0,-1
 552 256 l 2,1,2
 552 251 552 251 552 242 c 0,3,4
 553 232 553 232 553 228 c 0,5,6
 553 82 553 82 442 30 c 0,7,8
 380 1 380 1 309 1 c 0,9,10
 214 1 214 1 154 54 c 0,11,12
 28 165 28 165 29 366 c 0,13,14
 29 454 29 454 50 566 c 0,15,16
 66 652 66 652 119 725 c 0,17,18
 145 761 145 761 194.5 783.5 c 128,-1,19
 244 806 244 806 301 806 c 0,20,21
 367 806 367 806 424.5 771.5 c 128,-1,22
 482 737 482 737 514 679 c 0,23,24
 533 644 533 644 534 601 c 0,25,26
 535 560 535 560 514 526 c 0,27,28
 486 480 486 480 442 475 c 0,29,30
 372 468 372 468 318 538 c 0,31,32
 317 541 317 541 314 562 c 0,33,34
 312 578 312 578 299 577 c 1,35,-1
 289 559 l 1,36,37
 279 347 279 347 279 342 c 0,38,39
 279 313 279 313 281 285 c 128,-1,40
 283 257 283 257 305 248 c 1,41,42
 328 249 328 249 384.5 299 c 128,-1,43
 441 349 441 349 462 349 c 0,44,45
 478 349 478 349 495 342 c 0,46,47
 552 325 552 325 552 257 c 2,0,-1
EndSplineSet
EndChar

StartChar: D
Encoding: 68 68 39
Width: 567
GlyphClass: 1
Flags: W
LayerCount: 2
Fore
SplineSet
534 439 m 0,0,1
 534 301 534 301 474 190 c 0,2,3
 401 53 401 53 257 12 c 1,4,5
 179 7 179 7 116.5 30.5 c 128,-1,6
 54 54 54 54 51 92 c 0,7,8
 33 359 33 359 33 605 c 0,9,10
 33 696 33 696 37 735 c 1,11,12
 62 789 62 789 198 789 c 0,13,14
 275 789 275 789 335 771 c 1,15,16
 398 742 398 742 449 675 c 0,17,18
 534 563 534 563 534 439 c 0,0,1
284 529 m 0,19,20
 270 546 270 546 257 546 c 0,21,22
 251 546 251 546 242 542 c 128,-1,23
 233 538 233 538 232 538 c 1,24,25
 243 467 243 467 246 302 c 1,26,27
 275 322 275 322 294.5 361 c 128,-1,28
 314 400 314 400 314 440 c 0,29,30
 314 492 314 492 284 529 c 0,19,20
EndSplineSet
EndChar

StartChar: E
Encoding: 69 69 40
Width: 513
GlyphClass: 1
Flags: W
LayerCount: 2
Fore
SplineSet
490 677 m 1024,0,-1
478 486 m 1,1,2
 482 471 482 471 481 455 c 0,3,4
 481 402 481 402 438 366 c 0,5,6
 399 332 399 332 354 337 c 0,7,8
 346 340 346 340 324 338 c 1,9,10
 326 326 326 326 317 274 c 1,11,12
 317 250 317 250 338 238 c 1,13,14
 379 249 379 249 405 238 c 0,15,16
 446 222 446 222 450 184 c 0,17,18
 455 141 455 141 425 96.5 c 128,-1,19
 395 52 395 52 342 22 c 0,20,21
 295 -5 295 -5 231 -5 c 0,22,23
 175 -5 175 -5 130 16 c 0,24,25
 111 25 111 25 73 72 c 1,26,27
 32 140 32 140 31 359 c 0,28,29
 30 485 30 485 52 647 c 0,30,31
 65 741 65 741 106 769 c 1,32,-1
 273 786 l 1,33,34
 316 795 316 795 355 795 c 0,35,36
 433 795 433 795 447 756 c 0,37,38
 453 740 453 740 453 720 c 0,39,40
 453 677 453 677 421 650 c 128,-1,41
 389 623 389 623 332 623 c 0,42,43
 318 623 318 623 310 624 c 1,44,45
 303 609 303 609 302 576 c 0,46,47
 300 534 300 534 299 528 c 0,48,49
 302 514 302 514 320 510 c 1,50,51
 349 533 349 533 393 533 c 0,52,53
 444 533 444 533 478 486 c 1,1,2
EndSplineSet
EndChar

StartChar: F
Encoding: 70 70 41
Width: 496
GlyphClass: 1
Flags: W
LayerCount: 2
Fore
SplineSet
454 439 m 1,0,-1
 454 440 l 1,1,2
 468 414 468 414 468 392 c 0,3,4
 468 367 468 367 444 328 c 1,5,6
 423 281 423 281 370 269 c 0,7,8
 352 269 352 269 286 262 c 1,9,10
 285 244 285 244 290 186 c 0,11,12
 296 123 296 123 296 112 c 0,13,14
 296 5 296 5 217 5 c 0,15,16
 185 5 185 5 116 29 c 1,17,18
 52 94 52 94 46 222 c 2,19,-1
 29 562 l 1,20,21
 32 599 32 599 36 673 c 1,22,23
 47 736 47 736 95 759 c 1,24,25
 146 792 146 792 281 792 c 0,26,27
 354 792 354 792 398 778 c 1,28,29
 446 736 446 736 446 688 c 0,30,31
 446 624 446 624 399 595 c 0,32,33
 392 588 392 588 344 576 c 0,34,35
 300 564 300 564 295 554 c 1,36,37
 295 531 295 531 283 488 c 1,38,39
 288 483 288 483 297 483 c 0,40,41
 304 483 304 483 333.5 491 c 128,-1,42
 363 499 363 499 368 499 c 0,43,44
 422 498 422 498 454 439 c 1,0,-1
EndSplineSet
EndChar

StartChar: G
Encoding: 71 71 42
Width: 576
GlyphClass: 1
Flags: W
LayerCount: 2
Fore
SplineSet
544 610 m 1,0,1
 547 593 547 593 547 576 c 0,2,3
 547 522 547 522 525 492 c 0,4,5
 491 445 491 445 423 448 c 0,6,7
 361 451 361 451 340 506 c 1,8,-1
 340 534 l 2,9,10
 340 547 340 547 330 555 c 1,11,-1
 324 554 l 1,12,13
 260 392 260 392 260 282 c 0,14,15
 260 245 260 245 259 256 c 1,16,17
 260 242 260 242 276 226 c 1,18,19
 320 230 320 230 331 253 c 0,20,21
 336 267 336 267 320 279 c 1,22,23
 304 281 304 281 300 285 c 0,24,25
 289 290 289 290 288 301 c 0,26,27
 286 326 286 326 303 355 c 1,28,-1
 328 375 l 1,29,30
 338 375 338 375 380.5 378.5 c 128,-1,31
 423 382 423 382 437 382 c 0,32,33
 495 382 495 382 524 353 c 1,34,35
 543 325 543 325 543 278 c 0,36,37
 543 223 543 223 521 165 c 0,38,39
 497 101 497 101 453 57 c 0,40,41
 403 7 403 7 342 -1 c 0,42,43
 311 -5 311 -5 288 -5 c 0,44,45
 200 -5 200 -5 131 52 c 0,46,47
 83 92 83 92 56 171.5 c 128,-1,48
 29 251 29 251 29 353 c 0,49,50
 29 490 29 490 74 605 c 128,-1,51
 119 720 119 720 195 770 c 1,52,53
 247 797 247 797 312 797 c 0,54,55
 369 797 369 797 417 774 c 1,56,57
 534 694 534 694 542 610 c 1,58,-1
 544 610 l 1,0,1
EndSplineSet
EndChar

StartChar: H
Encoding: 72 72 43
Width: 636
GlyphClass: 1
Flags: W
LayerCount: 2
Fore
SplineSet
64 730 m 1,0,-1
 63 730 l 1,1,2
 107 774 107 774 174 774 c 0,3,4
 230 774 230 774 256 759 c 1,5,6
 285 730 285 730 287 668 c 1,7,8
 281 619 281 619 278 537 c 1,9,10
 290 493 290 493 314 493 c 0,11,12
 323 493 323 493 342 502 c 0,13,14
 353 507 353 507 359 543 c 1,15,16
 353 595 353 595 351 686 c 1,17,18
 355 738 355 738 417 776 c 0,19,20
 429 783 429 783 476 785 c 0,21,22
 511 786 511 786 523 783 c 0,23,24
 568 771 568 771 583 715 c 0,25,26
 588 698 588 698 594 681 c 0,27,28
 603 648 603 648 604 614 c 0,29,30
 610 474 610 474 610 404 c 0,31,32
 610 256 610 256 559 78 c 0,33,34
 543 23 543 23 471 8 c 0,35,36
 425 -2 425 -2 397 17 c 0,37,38
 359 42 359 42 353 100 c 0,39,40
 351 116 351 116 354.5 157 c 128,-1,41
 358 198 358 198 357 214 c 0,42,43
 351 239 351 239 325 239 c 0,44,45
 300 239 300 239 280.5 220 c 128,-1,46
 261 201 261 201 262 171 c 1,47,48
 267 151 267 151 276 100 c 0,49,50
 281 66 281 66 273 48 c 0,51,52
 261 21 261 21 234 9 c 0,53,54
 216 1 216 1 168 1 c 0,55,56
 122 1 122 1 92 33 c 0,57,58
 67 60 67 60 50 122 c 0,59,60
 30 191 30 191 28 275 c 0,61,62
 25 396 25 396 25 482 c 0,63,64
 25 673 25 673 64 730 c 1,0,-1
EndSplineSet
EndChar

StartChar: I
Encoding: 73 73 44
Width: 362
GlyphClass: 1
Flags: W
LayerCount: 2
Fore
SplineSet
320 659 m 1,0,1
 320 618 320 618 322 559 c 128,-1,2
 324 500 324 500 324 483 c 0,3,4
 325 285 325 285 297 129 c 0,5,6
 279 28 279 28 205 8 c 0,7,8
 183 6 183 6 175 6 c 0,9,10
 74 6 74 6 61 99 c 0,11,12
 38 259 38 259 39 388 c 0,13,14
 40 524 40 524 60 629 c 1,15,-1
 87 696 l 1,16,17
 139 771 139 771 235 771 c 0,18,19
 257 771 257 771 274 767 c 0,20,21
 302 754 302 754 311 720 c 2,22,-1
 320 659 l 1,0,1
EndSplineSet
EndChar

StartChar: J
Encoding: 74 74 45
Width: 506
GlyphClass: 1
Flags: W
LayerCount: 2
Fore
SplineSet
479 424 m 1,0,1
 479 398 479 398 480.5 337 c 128,-1,2
 482 276 482 276 482 266 c 0,3,4
 482 197 482 197 469 154 c 0,5,6
 453 101 453 101 411 53 c 1,7,8
 367 14 367 14 275 14 c 0,9,10
 234 14 234 14 194 21 c 0,11,12
 72 42 72 42 38 155 c 0,13,14
 23 205 23 205 23 236 c 0,15,16
 23 273 23 273 50 303 c 0,17,18
 65 320 65 320 109 352 c 0,19,20
 135 371 135 371 152 371 c 256,21,22
 169 371 169 371 177 351 c 0,23,24
 178 348 178 348 191 300 c 0,25,26
 201 261 201 261 221 261 c 0,27,28
 245 261 245 261 257 298 c 1,29,30
 261 380 261 380 246 487 c 2,31,-1
 222 656 l 1,32,33
 222 722 222 722 273 755 c 1,34,35
 340 773 340 773 366 773 c 0,36,37
 409 773 409 773 430 745 c 0,38,39
 461 704 461 704 480 424 c 1,40,-1
 479 424 l 1,0,1
EndSplineSet
EndChar

StartChar: K
Encoding: 75 75 46
Width: 648
GlyphClass: 1
Flags: W
LayerCount: 2
Fore
SplineSet
103 764 m 1,0,-1
 104 764 l 1,1,2
 135 806 135 806 199 806 c 0,3,4
 276 806 276 806 300 749 c 1,5,6
 302 723 302 723 302 707 c 0,7,8
 302 687 302 687 298 629 c 128,-1,9
 294 571 294 571 294 560 c 1,10,11
 298 551 298 551 307 551 c 0,12,13
 315 551 315 551 318 559 c 0,14,15
 317 560 317 560 317 566 c 0,16,17
 317 611 317 611 353 696 c 0,18,19
 396 798 396 798 449 813 c 1,20,21
 562 820 562 820 601 750 c 0,22,23
 615 725 615 725 615 691 c 0,24,25
 615 599 615 599 550 499 c 0,26,27
 528 466 528 466 485 400 c 1,28,29
 499 377 499 377 534 316 c 0,30,31
 601 195 601 195 601 126 c 0,32,33
 601 73 601 73 571 33 c 0,34,35
 549 3 549 3 496 -2 c 0,36,37
 448 -7 448 -7 381 105 c 0,38,39
 332 186 332 186 316 240 c 0,40,41
 312 244 312 244 296 249 c 1,42,-1
 289 242 l 1,43,44
 300 178 300 178 300 141 c 0,45,46
 300 77 300 77 276 40 c 1,47,48
 237 10 237 10 180 10 c 0,49,50
 133 10 133 10 103 33 c 0,51,52
 32 87 32 87 33 345 c 0,53,54
 33 486 33 486 54.5 617.5 c 128,-1,55
 76 749 76 749 103 764 c 1,0,-1
EndSplineSet
EndChar

StartChar: L
Encoding: 76 76 47
Width: 474
GlyphClass: 1
Flags: W
LayerCount: 2
Fore
SplineSet
448 157 m 1,0,-1
 447 157 l 1,1,2
 436 71 436 71 384 43 c 1,3,4
 312 14 312 14 238 14 c 0,5,6
 26 14 26 14 26 243 c 0,7,8
 26 302 26 302 26 302 c 2,9,10
 26 313 26 313 27 336 c 0,11,12
 28 354 28 354 28 362 c 0,13,14
 23 564 23 564 45 685 c 1,15,16
 63 736 63 736 86.5 755 c 128,-1,17
 110 774 110 774 159 778 c 0,18,19
 170 779 170 779 183 779 c 0,20,21
 226 779 226 779 245 761 c 0,22,23
 253 753 253 753 275 714 c 1,24,25
 292 648 292 648 292 546 c 0,26,27
 292 483 292 483 280 349 c 0,28,29
 272 256 272 256 278 250 c 1,30,31
 316 269 316 269 372 269 c 0,32,33
 386 269 386 269 392 266 c 0,34,35
 421 256 421 256 435 221 c 0,36,37
 444 198 444 198 448 155 c 1,38,-1
 448 157 l 1,0,-1
EndSplineSet
EndChar

StartChar: M
Encoding: 77 77 48
Width: 790
GlyphClass: 1
Flags: W
LayerCount: 2
Fore
SplineSet
755 134 m 2,0,1
 755 82 755 82 734 53 c 0,2,3
 717 30 717 30 690 23 c 0,4,5
 676 19 676 19 649 13 c 0,6,7
 628 8 628 8 622 8 c 0,8,9
 579 8 579 8 549 46.5 c 128,-1,10
 519 85 519 85 519 142 c 0,11,12
 519 164 519 164 530 244 c 0,13,14
 539 306 539 306 531 342 c 1,15,16
 526 327 526 327 500 251 c 0,17,18
 466 155 466 155 439 134 c 0,19,20
 424 122 424 122 403 122 c 0,21,22
 387 122 387 122 370 133 c 1,23,24
 316 189 316 189 286 350 c 1,25,26
 281 325 281 325 281 299 c 0,27,28
 281 284 281 284 289 204 c 0,29,30
 295 147 295 147 289 113 c 0,31,32
 281 69 281 69 246 35 c 1,33,34
 211 15 211 15 179 15 c 0,35,36
 135 15 135 15 98 54 c 1,37,38
 57 124 57 124 50 147 c 0,39,40
 35 192 35 192 35 282 c 0,41,42
 35 365 35 365 49 576 c 0,43,44
 54 649 54 649 93.5 700.5 c 128,-1,45
 133 752 133 752 200 771 c 1,46,47
 333 775 333 775 402 542 c 1,48,49
 407 585 407 585 433 656 c 0,50,51
 471 760 471 760 519 783 c 1,52,53
 566 797 566 797 599 797 c 0,54,55
 654 797 654 797 683 763 c 1,56,57
 721 728 721 728 736 673 c 0,58,59
 746 636 746 636 749 555 c 0,60,61
 750 481 750 481 751 407 c 0,62,63
 755 243 755 243 755 135 c 2,64,-1
 755 134 l 2,0,1
EndSplineSet
EndChar

StartChar: N
Encoding: 78 78 49
Width: 667
GlyphClass: 1
Flags: W
LayerCount: 2
Fore
SplineSet
620 590 m 1,0,-1
 620 591 l 1,1,2
 630 475 630 475 630 372 c 0,3,4
 630 55 630 55 525 16 c 0,5,6
 509 10 509 10 488 10 c 0,7,8
 463 10 463 10 423 20 c 1,9,10
 373 48 373 48 270 341 c 1,11,12
 288 264 288 264 288 189 c 0,13,14
 288 106 288 106 264 57 c 0,15,16
 253 34 253 34 224.5 17.5 c 128,-1,17
 196 1 196 1 170 4 c 0,18,19
 87 12 87 12 57 105 c 0,20,21
 37 167 37 167 37 297 c 0,22,23
 37 550 37 550 58 637 c 0,24,25
 74 702 74 702 131 744 c 0,26,27
 164 768 164 768 205 768 c 0,28,29
 227 768 227 768 249 761 c 1,30,31
 307 730 307 730 363 576 c 0,32,33
 386 514 386 514 406 429 c 1,34,35
 396 495 396 495 389 545 c 0,36,37
 377 633 377 633 377 674 c 0,38,39
 377 723 377 723 403 755 c 0,40,41
 433 792 433 792 488 792 c 0,42,43
 585 792 585 792 609 684 c 0,44,45
 614 661 614 661 620 590 c 1,0,-1
EndSplineSet
EndChar

StartChar: O
Encoding: 79 79 50
Width: 650
GlyphClass: 1
Flags: W
LayerCount: 2
Fore
SplineSet
593 176 m 1,0,-1
 594 175 l 1,1,2
 568 94 568 94 502.5 47 c 128,-1,3
 437 0 437 0 351 0 c 0,4,5
 192 0 192 0 104 120 c 0,6,7
 29 222 29 222 29 368 c 0,8,9
 29 435 29 435 41 492 c 0,10,11
 96 753 96 753 274 786 c 0,12,13
 290 789 290 789 308 789 c 0,14,15
 388 789 388 789 463.5 736 c 128,-1,16
 539 683 539 683 565 607 c 0,17,18
 621 442 621 442 621 350 c 0,19,20
 621 272 621 272 592 176 c 1,21,-1
 593 176 l 1,0,-1
345 248 m 1,22,-1
 345 249 l 1,23,24
 374 254 374 254 374 360 c 0,25,26
 374 421 374 421 363 472.5 c 128,-1,27
 352 524 352 524 339 526 c 0,28,29
 317 532 317 532 299 478 c 128,-1,30
 281 424 281 424 281 359 c 0,31,32
 281 238 281 238 345 248 c 1,22,-1
EndSplineSet
EndChar

StartChar: P
Encoding: 80 80 51
Width: 572
GlyphClass: 1
Flags: W
LayerCount: 2
Fore
SplineSet
530 680 m 1,0,-1
 529 679 l 1,1,2
 582 597 582 597 582 511 c 0,3,4
 582 418 582 418 521 337 c 0,5,6
 470 269 470 269 297 242 c 1,7,8
 295 223 295 223 301 181 c 0,9,10
 309 136 309 136 309 130 c 0,11,12
 309 94 309 94 289 52 c 0,13,14
 279 31 279 31 247.5 17 c 128,-1,15
 216 3 216 3 177 3 c 0,16,17
 119 3 119 3 84.5 34.5 c 128,-1,18
 50 66 50 66 47 122 c 1,19,20
 24 220 24 220 25 328 c 2,21,-1
 25 542 l 2,22,23
 25 551 25 551 29 616 c 0,24,25
 33 675 33 675 49 715 c 0,26,27
 70 767 70 767 109 777 c 0,28,29
 199 800 199 800 272 800 c 0,30,31
 449 800 449 800 529 680 c 1,32,-1
 530 680 l 1,0,-1
337 499 m 1,33,34
 349 523 349 523 349 545 c 0,35,36
 349 601 349 601 276 607 c 1,37,38
 271 565 271 565 271 543 c 0,39,40
 271 512 271 512 272 497 c 0,41,42
 274 474 274 474 277 430 c 1,43,44
 286 438 286 438 300 453 c 0,45,46
 326 479 326 479 336 500 c 1,47,-1
 337 499 l 1,33,34
EndSplineSet
EndChar

StartChar: Q
Encoding: 81 81 52
Width: 646
GlyphClass: 1
Flags: W
LayerCount: 2
Fore
SplineSet
615 1 m 1,0,1
 604 -55 604 -55 508 -75 c 0,2,3
 499 -77 499 -77 487 -77 c 0,4,5
 423 -77 423 -77 372 1 c 1,6,7
 335 -8 335 -8 261 -3 c 0,8,9
 191 2 191 2 130 55 c 128,-1,10
 69 108 69 108 48 186.5 c 128,-1,11
 27 265 27 265 27 353 c 0,12,13
 27 648 27 648 183 771 c 1,14,15
 234 791 234 791 291 791 c 0,16,17
 371 791 371 791 429 746 c 0,18,19
 454 726 454 726 502 677 c 0,20,21
 594 582 594 582 595 402 c 0,22,23
 595 320 595 320 573 199 c 0,24,25
 573 197 573 197 564.5 173.5 c 128,-1,26
 556 150 556 150 556 142 c 1,27,28
 619 68 619 68 619 19 c 0,29,30
 619 13 619 13 617 1 c 1,31,-1
 615 1 l 1,0,1
342 269 m 2,32,-1
 315 482 l 2,33,34
 315 498 315 498 298 497 c 1,35,36
 276 475 276 475 269 434.5 c 128,-1,37
 262 394 262 394 262 357 c 256,38,39
 262 320 262 320 263 294 c 0,40,41
 264 273 264 273 264 268 c 0,42,43
 265 264 265 264 265 279 c 1,44,45
 265 257 265 257 267 219 c 0,46,47
 269 217 269 217 271 217 c 0,48,49
 275 217 275 217 281 222 c 1,50,51
 286 261 286 261 312 274 c 0,52,53
 314 274 314 274 321 266 c 128,-1,54
 328 258 328 258 331 258 c 0,55,56
 337 256 337 256 340 259.5 c 128,-1,57
 343 263 343 263 342 269 c 2,32,-1
EndSplineSet
EndChar

StartChar: R
Encoding: 82 82 53
Width: 634
GlyphClass: 1
Flags: W
LayerCount: 2
Fore
SplineSet
599 106 m 1,0,-1
 598 106 l 1,1,2
 584 76 584 76 551 45 c 0,3,4
 508 6 508 6 464 1 c 0,5,6
 379 -8 379 -8 290 174 c 1,7,8
 293 148 293 148 293 129 c 0,9,10
 293 67 293 67 263 31 c 1,11,12
 217 -1 217 -1 171 -1 c 0,13,14
 151 -1 151 -1 135 3 c 0,15,16
 76 18 76 18 58 41 c 0,17,18
 34 71 34 71 34 149 c 2,19,-1
 34 189 l 2,20,21
 31 192 31 192 36 368 c 0,22,23
 42 567 42 567 59 671 c 0,24,25
 72 746 72 746 165 774 c 0,26,27
 209 787 209 787 338 800 c 1,28,29
 491 795 491 795 548 698 c 1,30,31
 591 601 591 601 590 520 c 0,32,33
 589 437 589 437 545 381 c 0,34,35
 538 372 538 372 488 328 c 1,36,37
 601 206 601 206 601 124 c 0,38,39
 601 118 601 118 599 106 c 1,0,-1
313 572 m 1,40,-1
 312 572 l 2,41,42
 306 574 306 574 302 574 c 256,43,44
 298 574 298 574 271 560 c 0,45,46
 267 556 267 556 268 509 c 0,47,48
 269 454 269 454 269 405 c 1,49,50
 307 418 307 418 333.5 442.5 c 128,-1,51
 360 467 360 467 360 494 c 0,52,53
 360 531 360 531 313 572 c 1,40,-1
EndSplineSet
EndChar

StartChar: S
Encoding: 83 83 54
Width: 562
GlyphClass: 1
Flags: W
LayerCount: 2
Fore
SplineSet
213 205 m 1,0,-1
 214 205 l 1,1,2
 250 214 250 214 251 241 c 0,3,4
 251 251 251 251 242.5 260 c 128,-1,5
 234 269 234 269 179 303 c 0,6,7
 133 332 133 332 112 352 c 0,8,9
 83 380 83 380 59 428 c 0,10,11
 28 491 28 491 28 556 c 0,12,13
 28 650 28 650 102 724 c 0,14,15
 184 806 184 806 298 806 c 0,16,17
 364 806 364 806 417 775 c 0,18,19
 450 755 450 755 488 701 c 0,20,21
 504 677 504 677 505 656 c 0,22,23
 506 631 506 631 481 595 c 1,24,-1
 482 594 l 1,25,26
 450 549 450 549 415 549 c 0,27,28
 403 549 403 549 382 554 c 0,29,30
 350 562 350 562 345 610 c 0,31,32
 343 629 343 629 316 629 c 0,33,34
 302 629 302 629 291 622 c 1,35,36
 280 602 280 602 280 582 c 0,37,38
 280 548 280 548 312 525 c 0,39,40
 430 441 430 441 451 421 c 0,41,42
 526 350 526 350 531 272 c 0,43,44
 532 253 532 253 534 221 c 0,45,46
 536 92 536 92 379 20 c 0,47,48
 320 -7 320 -7 267 -7 c 0,49,50
 259 -7 259 -7 245 -5 c 1,51,-1
 243 -4 l 1,52,53
 51 27 51 27 36 141 c 0,54,55
 32 167 32 167 30.5 177.5 c 128,-1,56
 29 188 29 188 29 184 c 1,57,58
 29 211 29 211 45 231 c 128,-1,59
 61 251 61 251 81 251 c 0,60,61
 90 251 90 251 134 227.5 c 128,-1,62
 178 204 178 204 195 204 c 0,63,64
 202 204 202 204 212 206 c 1,65,-1
 213 205 l 1,0,-1
EndSplineSet
EndChar

StartChar: T
Encoding: 84 84 55
Width: 599
GlyphClass: 1
Flags: W
LayerCount: 2
Fore
SplineSet
241 583 m 1024,0,-1
582 664 m 1,1,-1
 583 664 l 1,2,3
 586 649 586 649 586 625 c 0,4,5
 585 575 585 575 562 549 c 0,6,7
 553 539 553 539 481.5 525.5 c 128,-1,8
 410 512 410 512 408 508 c 0,9,10
 406 497 406 497 431 299 c 0,11,12
 436 259 436 259 436 219 c 0,13,14
 436 128 436 128 412 69 c 0,15,16
 382 -5 382 -5 324 -3 c 0,17,18
 230 0 230 0 193 56 c 0,19,20
 165 98 165 98 164 189 c 1,21,22
 164 181 164 181 168 294 c 2,23,-1
 173 422 l 2,24,25
 177 482 177 482 186 526 c 1,26,27
 180 524 180 524 168 524 c 0,28,29
 134 524 134 524 100 535 c 0,30,31
 54 550 54 550 37 579 c 0,32,33
 13 620 13 620 13 656 c 0,34,35
 13 716 13 716 79 749 c 0,36,37
 164 792 164 792 284 792 c 0,38,39
 347 792 347 792 416 780 c 1,40,41
 449 768 449 768 516 743 c 1,42,43
 572 714 572 714 582 664 c 1,1,-1
EndSplineSet
EndChar

StartChar: U
Encoding: 85 85 56
Width: 670
GlyphClass: 1
Flags: W
LayerCount: 2
Fore
SplineSet
633 675 m 1,0,-1
 634 676 l 1,1,2
 638 629 638 629 638 571 c 0,3,4
 638 342 638 342 565 147 c 0,5,6
 546 96 546 96 505.5 54.5 c 128,-1,7
 465 13 465 13 421 0 c 1,8,9
 380 -6 380 -6 341 -6 c 0,10,11
 230 -6 230 -6 155 46 c 0,12,13
 83 95 83 95 54 185 c 0,14,15
 32 253 32 253 32 373 c 0,16,17
 32 553 32 553 67 673 c 0,18,19
 78 710 78 710 114.5 739 c 128,-1,20
 151 768 151 768 188 772 c 0,21,22
 220 775 220 775 251.5 755.5 c 128,-1,23
 283 736 283 736 298 705 c 1,24,25
 301 681 301 681 301 654 c 0,26,27
 301 621 301 621 283 513 c 128,-1,28
 265 405 265 405 265 374 c 0,29,30
 265 344 265 344 269 321 c 0,31,32
 275 304 275 304 302 287 c 1,33,34
 335 283 335 283 349 295 c 0,35,36
 375 323 375 323 381 369 c 1,37,38
 380 438 380 438 384 544 c 1,39,40
 394 630 394 630 397 650 c 0,41,42
 405 707 405 707 416 737 c 1,43,44
 452 795 452 795 498 794 c 0,45,46
 541 793 541 793 577 761 c 128,-1,47
 613 729 613 729 633 675 c 1,0,-1
EndSplineSet
EndChar

StartChar: V
Encoding: 86 86 57
Width: 669
GlyphClass: 1
Flags: W
LayerCount: 2
Fore
SplineSet
605 752 m 1,0,1
 643 725 643 725 643 647 c 0,2,3
 643 479 643 479 478 103 c 0,4,5
 438 12 438 12 343 -3 c 0,6,7
 330 -5 330 -5 321 -5 c 0,8,9
 271 -5 271 -5 226 15 c 128,-1,10
 181 35 181 35 160 68 c 0,11,12
 93 173 93 173 57 320 c 0,13,14
 26 448 26 448 26 562 c 0,15,16
 26 644 26 644 38 681 c 0,17,18
 53 726 53 726 96 749 c 0,19,20
 133 769 133 769 167 767 c 0,21,22
 235 763 235 763 262 710 c 0,23,24
 285 663 285 663 300 523 c 2,25,-1
 313 398 l 1,26,27
 321 470 321 470 339 611.5 c 128,-1,28
 357 753 357 753 412 779 c 0,29,30
 448 796 448 796 489 796 c 0,31,32
 558 796 558 796 605 752 c 1,0,1
EndSplineSet
EndChar

StartChar: W
Encoding: 87 87 58
Width: 848
GlyphClass: 1
Flags: W
LayerCount: 2
Fore
SplineSet
94 754 m 0,0,1
 126 779 126 779 162 779 c 0,2,3
 238 779 238 779 261 694 c 0,4,5
 265 678 265 678 275 600 c 1,6,-1
 278 426 l 1,7,8
 285 417 285 417 293 417 c 1,9,10
 301 427 301 427 303 452 c 0,11,12
 305 482 305 482 305 482 c 1,13,14
 317 518 317 518 343 589 c 0,15,16
 368 651 368 651 428 662 c 1,17,18
 471 663 471 663 492 624 c 0,19,20
 507 596 507 596 517 528 c 0,21,22
 525 474 525 474 523 461 c 0,23,24
 516 439 516 439 525 413 c 1,25,26
 539 410 539 410 540 421 c 0,27,28
 553 640 553 640 612 739 c 0,29,30
 630 770 630 770 652 780 c 0,31,32
 666 789 666 789 694 792 c 0,33,34
 743 797 743 797 786 755 c 0,35,36
 819 723 819 723 819 665 c 0,37,38
 819 643 819 643 803 562 c 0,39,40
 786 466 786 466 750 275 c 0,41,42
 717 106 717 106 645 25 c 1,43,44
 619 4 619 4 576 4 c 0,45,46
 526 4 526 4 484 28 c 1,47,48
 450 56 450 56 439 103 c 0,49,50
 430 140 430 140 429 195 c 0,51,52
 427 261 427 261 422 285 c 1,53,54
 412 294 412 294 405 293 c 1,55,56
 402 278 402 278 392 173 c 0,57,58
 384 94 384 94 369 56 c 0,59,60
 345 -2 345 -2 276 -7 c 0,61,62
 165 -15 165 -15 106 89 c 1,63,64
 70 139 70 139 49.5 240.5 c 128,-1,65
 29 342 29 342 30 463 c 0,66,67
 32 705 32 705 94 754 c 0,0,1
EndSplineSet
EndChar

StartChar: X
Encoding: 88 88 59
Width: 626
GlyphClass: 1
Flags: W
LayerCount: 2
Fore
SplineSet
591 590 m 1,0,-1
 590 591 l 1,1,2
 598 626 598 626 597 651 c 0,3,4
 595 729 595 729 525 782 c 0,5,6
 489 809 489 809 460 809 c 0,7,8
 367 809 367 809 348 683 c 0,9,10
 343 646 343 646 333 573 c 1,11,12
 328 571 328 571 318 576 c 1,13,14
 320 590 320 590 320 597 c 0,15,16
 320 641 320 641 296.5 695.5 c 128,-1,17
 273 750 273 750 242 774 c 1,18,19
 209 788 209 788 174 788 c 0,20,21
 128 788 128 788 104 763 c 0,22,23
 66 724 66 724 66 655 c 0,24,25
 66 607 66 607 84 528 c 0,26,27
 88 510 88 510 127 458 c 0,28,29
 163 409 163 409 162 386 c 1,30,31
 133 346 133 346 76 267 c 0,32,33
 29 198 29 198 28 134 c 0,34,35
 27 71 27 71 70 29 c 0,36,37
 97 3 97 3 142 3 c 0,38,39
 174 3 174 3 212 16 c 0,40,41
 247 32 247 32 259 72 c 0,42,43
 277 131 277 131 296 157 c 0,44,45
 305 169 305 169 311 158 c 1,46,47
 312 69 312 69 363 23 c 1,48,49
 406 -2 406 -2 456 -2 c 0,50,51
 492 -2 492 -2 519 12 c 0,52,53
 572 40 572 40 571 123 c 0,54,55
 571 158 571 158 565 190 c 0,56,57
 558 229 558 229 504 290 c 0,58,59
 460 340 460 340 464 386 c 0,60,61
 468 393 468 393 535 485 c 0,62,63
 581 549 581 549 591 590 c 1,0,-1
EndSplineSet
EndChar

StartChar: Y
Encoding: 89 89 60
Width: 597
GlyphClass: 1
Flags: W
LayerCount: 2
Fore
SplineSet
71 770 m 1,0,-1
 72 770 l 1,1,2
 97 783 97 783 126 783 c 0,3,4
 188 783 188 783 215 734 c 1,5,6
 237 710 237 710 257 646 c 0,7,8
 283 562 283 562 287 555 c 1,9,10
 331 743 331 743 390 801 c 1,11,12
 418 812 418 812 449 812 c 0,13,14
 496 812 496 812 524 787 c 1,15,16
 577 752 577 752 577 672 c 1,17,18
 568 589 568 589 526 493 c 0,19,20
 501 437 501 437 442 328 c 1,21,22
 442 285 442 285 441 201 c 0,23,24
 439 127 439 127 418 78 c 0,25,26
 392 19 392 19 331 -2 c 0,27,28
 315 -4 315 -4 308 -4 c 0,29,30
 228 -4 228 -4 197 59 c 1,31,32
 183 99 183 99 183 164 c 0,33,34
 183 195 183 195 184 222 c 0,35,36
 185 258 185 258 184 276 c 1,37,38
 20 556 20 556 20 674 c 0,39,40
 20 744 20 744 71 770 c 1,0,-1
EndSplineSet
EndChar

StartChar: Z
Encoding: 90 90 61
Width: 622
GlyphClass: 1
Flags: W
LayerCount: 2
Fore
SplineSet
592 703 m 1,0,-1
 595 673 l 1,1,2
 595 488 595 488 334 265 c 1,3,4
 326 248 326 248 345 244 c 1,5,6
 382 263 382 263 464 263 c 0,7,8
 514 263 514 263 538 255 c 0,9,10
 585 239 585 239 586 172 c 0,11,12
 586 156 586 156 580 136 c 0,13,14
 555 54 555 54 513 32 c 1,15,16
 397 4 397 4 291 4 c 0,17,18
 173 4 173 4 94 40 c 0,19,20
 45 62 45 62 27 133 c 1,21,22
 31 231 31 231 66 303.5 c 128,-1,23
 101 376 101 376 188 463 c 1,24,25
 265 510 265 510 277 552 c 1,26,27
 269 557 269 557 256 557 c 0,28,29
 242 557 242 557 225 554 c 128,-1,30
 208 551 208 551 198 549 c 128,-1,31
 188 547 188 547 165 547 c 0,32,33
 100 547 100 547 69 601 c 0,34,35
 58 620 58 620 58 652 c 0,36,37
 58 738 58 738 106 769 c 0,38,39
 170 810 170 810 367 810 c 0,40,41
 465 810 465 810 476 802 c 1,42,43
 513 796 513 796 547 768 c 128,-1,44
 581 740 581 740 592 705 c 1,45,-1
 592 703 l 1,0,-1
EndSplineSet
EndChar

StartChar: underscore
Encoding: 95 95 66
Width: 589
GlyphClass: 1
Flags: W
LayerCount: 2
Fore
SplineSet
552 36 m 2,0,-1
 552 35 l 2,1,2
 552 4 552 4 468 5 c 0,3,4
 423 6 423 6 354 12 c 0,5,6
 313 16 313 16 272 15 c 0,7,8
 219 14 219 14 227 14 c 1,9,10
 211 16 211 16 196 17 c 0,11,12
 172 19 172 19 152 17 c 0,13,14
 100 11 100 11 81 11 c 0,15,16
 34 11 34 11 38 41 c 0,17,18
 44 81 44 81 117 81 c 0,19,20
 187 81 187 81 228 74 c 0,21,22
 280 65 280 65 307 65 c 1,23,24
 306 65 306 65 336 62 c 0,25,26
 361 59 361 59 385 61 c 0,27,28
 454 67 454 67 475 67 c 0,29,30
 552 67 552 67 552 36 c 2,0,-1
EndSplineSet
EndChar

StartChar: grave
Encoding: 96 96 67
Width: 237
GlyphClass: 1
Flags: W
LayerCount: 2
Fore
SplineSet
31 747 m 1,1,2
 60 691 60 691 145 627 c 0,3,4
 151 626 151 626 160.5 622 c 128,-1,5
 170 618 170 618 175 618 c 0,6,7
 193 618 193 618 212 639.5 c 128,-1,8
 231 661 231 661 228 685 c 0,9,10
 219 723 219 723 211 762 c 1,11,12
 196 805 196 805 161 815 c 1,13,14
 101 824 101 824 93 824 c 0,15,16
 55 824 55 824 39 801.5 c 128,-1,0
 23 779 23 779 31 747 c 1,1,2
EndSplineSet
EndChar

StartChar: a
Encoding: 97 97 68
Width: 656
GlyphClass: 1
Flags: W
LayerCount: 2
Fore
SplineSet
609 88 m 1,0,-1
 609 87 l 1,1,2
 600 39 600 39 550 27 c 0,3,4
 525 21 525 21 498 21 c 0,5,6
 449 21 449 21 418 44 c 1,7,8
 396 73 396 73 392 82 c 0,9,10
 379 108 379 108 379 149 c 1,11,12
 339 151 339 151 288 145 c 1,13,14
 290 136 290 136 292 118 c 0,15,16
 292 77 292 77 269 33 c 1,17,18
 240 -8 240 -8 184 -8 c 0,19,20
 157 -8 157 -8 117 2 c 1,21,-1
 115 4 l 1,22,23
 30 46 30 46 30 213 c 0,24,25
 30 224 30 224 32 265 c 0,26,27
 40 422 40 422 61 511 c 0,28,29
 91 637 91 637 167 737 c 0,30,31
 226 814 226 814 338 814 c 0,32,33
 458 814 458 814 519 739 c 0,34,35
 555 695 555 695 570 636 c 0,36,37
 625 425 625 425 625 265 c 0,38,39
 625 171 625 171 609 88 c 1,0,-1
356 350 m 0,40,41
 363 431 363 431 346 603 c 1,42,43
 339 610 339 610 325 598 c 1,44,45
 312 513 312 513 306 460 c 0,46,47
 296 367 296 367 299 354 c 0,48,49
 304 343 304 343 316 343 c 0,50,51
 320 343 320 343 336.5 346.5 c 128,-1,52
 353 350 353 350 356 350 c 0,40,41
EndSplineSet
EndChar

StartChar: b
Encoding: 98 98 69
Width: 605
GlyphClass: 1
Flags: W
LayerCount: 2
Fore
SplineSet
570 241 m 0,0,1
 561 132 561 132 487 75 c 0,2,3
 448 45 448 45 346 8 c 1,4,5
 301 0 301 0 253 0 c 0,6,7
 112 0 112 0 50 59 c 0,8,9
 35 78 35 78 35 362 c 0,10,11
 35 699 35 699 51 732 c 1,12,13
 121 792 121 792 262 792 c 0,14,15
 303 792 303 792 324 788 c 0,16,17
 434 767 434 767 488 707.5 c 128,-1,18
 542 648 542 648 545 556 c 1,19,20
 537 502 537 502 501 468 c 0,21,22
 485 453 485 453 433 425 c 1,23,24
 498 413 498 413 536.5 359 c 128,-1,25
 575 305 575 305 570 241 c 0,0,1
316 586 m 1,26,-1
 315 585 l 1,27,28
 310 611 310 611 271 611 c 0,29,30
 258 611 258 611 256 609 c 0,31,32
 249 608 249 608 243 596 c 1,33,34
 250 537 250 537 244 464 c 1,35,-1
 288 492 l 1,36,37
 318 544 318 544 318 571 c 0,38,39
 318 576 318 576 316 586 c 1,26,-1
297 247 m 1,40,-1
 297 246 l 1,41,42
 304 269 304 269 304 285 c 0,43,44
 304 331 304 331 273 331 c 0,45,46
 256 331 256 331 240 318 c 1,47,48
 241 305 241 305 237 270 c 0,49,50
 231 228 231 228 231 219 c 0,51,52
 231 213 231 213 233 188 c 1,53,54
 263 192 263 192 279 211 c 0,55,56
 286 220 286 220 297 247 c 1,40,-1
EndSplineSet
EndChar

StartChar: c
Encoding: 99 99 70
Width: 582
GlyphClass: 1
Flags: W
LayerCount: 2
Fore
SplineSet
552 257 m 2,0,-1
 552 256 l 2,1,2
 552 251 552 251 552 242 c 0,3,4
 553 232 553 232 553 228 c 0,5,6
 553 82 553 82 442 30 c 0,7,8
 380 1 380 1 309 1 c 0,9,10
 214 1 214 1 154 54 c 0,11,12
 28 165 28 165 29 366 c 0,13,14
 29 454 29 454 50 566 c 0,15,16
 66 652 66 652 119 725 c 0,17,18
 145 761 145 761 194.5 783.5 c 128,-1,19
 244 806 244 806 301 806 c 0,20,21
 367 806 367 806 424.5 771.5 c 128,-1,22
 482 737 482 737 514 679 c 0,23,24
 533 644 533 644 534 601 c 0,25,26
 535 560 535 560 514 526 c 0,27,28
 486 480 486 480 442 475 c 0,29,30
 372 468 372 468 318 538 c 0,31,32
 317 541 317 541 314 562 c 0,33,34
 312 578 312 578 299 577 c 1,35,-1
 289 559 l 1,36,37
 279 347 279 347 279 342 c 0,38,39
 279 313 279 313 281 285 c 128,-1,40
 283 257 283 257 305 248 c 1,41,42
 328 249 328 249 384.5 299 c 128,-1,43
 441 349 441 349 462 349 c 0,44,45
 478 349 478 349 495 342 c 0,46,47
 552 325 552 325 552 257 c 2,0,-1
EndSplineSet
EndChar

StartChar: d
Encoding: 100 100 71
Width: 567
GlyphClass: 1
Flags: W
LayerCount: 2
Fore
SplineSet
534 439 m 0,0,1
 534 301 534 301 474 190 c 0,2,3
 401 53 401 53 257 12 c 1,4,5
 179 7 179 7 116.5 30.5 c 128,-1,6
 54 54 54 54 51 92 c 0,7,8
 33 359 33 359 33 605 c 0,9,10
 33 696 33 696 37 735 c 1,11,12
 62 789 62 789 198 789 c 0,13,14
 275 789 275 789 335 771 c 1,15,16
 398 742 398 742 449 675 c 0,17,18
 534 563 534 563 534 439 c 0,0,1
284 529 m 0,19,20
 270 546 270 546 257 546 c 0,21,22
 251 546 251 546 242 542 c 128,-1,23
 233 538 233 538 232 538 c 1,24,25
 243 467 243 467 246 302 c 1,26,27
 275 322 275 322 294.5 361 c 128,-1,28
 314 400 314 400 314 440 c 0,29,30
 314 492 314 492 284 529 c 0,19,20
EndSplineSet
EndChar

StartChar: e
Encoding: 101 101 72
Width: 513
GlyphClass: 1
Flags: W
LayerCount: 2
Fore
SplineSet
478 486 m 1,0,1
 482 471 482 471 481 455 c 0,2,3
 481 402 481 402 438 366 c 0,4,5
 399 332 399 332 354 337 c 0,6,7
 346 340 346 340 324 338 c 1,8,9
 326 326 326 326 317 274 c 1,10,11
 317 250 317 250 338 238 c 1,12,13
 379 249 379 249 405 238 c 0,14,15
 446 222 446 222 450 184 c 0,16,17
 455 141 455 141 425 96.5 c 128,-1,18
 395 52 395 52 342 22 c 0,19,20
 295 -5 295 -5 231 -5 c 0,21,22
 175 -5 175 -5 130 16 c 0,23,24
 111 25 111 25 73 72 c 1,25,26
 32 140 32 140 31 359 c 0,27,28
 30 485 30 485 52 647 c 0,29,30
 65 741 65 741 106 769 c 1,31,-1
 273 786 l 1,32,33
 316 795 316 795 355 795 c 0,34,35
 433 795 433 795 447 756 c 0,36,37
 453 740 453 740 453 720 c 0,38,39
 453 677 453 677 421 650 c 128,-1,40
 389 623 389 623 332 623 c 0,41,42
 318 623 318 623 310 624 c 1,43,44
 303 609 303 609 302 576 c 0,45,46
 300 534 300 534 299 528 c 0,47,48
 302 514 302 514 320 510 c 1,49,50
 349 533 349 533 393 533 c 0,51,52
 444 533 444 533 478 486 c 1,0,1
EndSplineSet
EndChar

StartChar: f
Encoding: 102 102 73
Width: 496
GlyphClass: 1
Flags: W
LayerCount: 2
Fore
SplineSet
454 439 m 1,0,-1
 454 440 l 1,1,2
 468 414 468 414 468 392 c 0,3,4
 468 367 468 367 444 328 c 1,5,6
 423 281 423 281 370 269 c 0,7,8
 352 269 352 269 286 262 c 1,9,10
 285 244 285 244 290 186 c 0,11,12
 296 123 296 123 296 112 c 0,13,14
 296 5 296 5 217 5 c 0,15,16
 185 5 185 5 116 29 c 1,17,18
 52 94 52 94 46 222 c 2,19,-1
 29 562 l 1,20,21
 32 599 32 599 36 673 c 1,22,23
 47 736 47 736 95 759 c 1,24,25
 146 792 146 792 281 792 c 0,26,27
 354 792 354 792 398 778 c 1,28,29
 446 736 446 736 446 688 c 0,30,31
 446 624 446 624 399 595 c 0,32,33
 392 588 392 588 344 576 c 0,34,35
 300 564 300 564 295 554 c 1,36,37
 295 531 295 531 283 488 c 1,38,39
 288 483 288 483 297 483 c 0,40,41
 304 483 304 483 333.5 491 c 128,-1,42
 363 499 363 499 368 499 c 0,43,44
 422 498 422 498 454 439 c 1,0,-1
EndSplineSet
EndChar

StartChar: g
Encoding: 103 103 74
Width: 576
GlyphClass: 1
Flags: W
LayerCount: 2
Fore
SplineSet
544 610 m 1,0,1
 547 593 547 593 547 576 c 0,2,3
 547 522 547 522 525 492 c 0,4,5
 491 445 491 445 423 448 c 0,6,7
 361 451 361 451 340 506 c 1,8,-1
 340 534 l 2,9,10
 340 547 340 547 330 555 c 1,11,-1
 324 554 l 1,12,13
 260 392 260 392 260 282 c 0,14,15
 260 245 260 245 259 256 c 1,16,17
 260 242 260 242 276 226 c 1,18,19
 320 230 320 230 331 253 c 0,20,21
 336 267 336 267 320 279 c 1,22,23
 304 281 304 281 300 285 c 0,24,25
 289 290 289 290 288 301 c 0,26,27
 286 326 286 326 303 355 c 1,28,-1
 328 375 l 1,29,30
 338 375 338 375 380.5 378.5 c 128,-1,31
 423 382 423 382 437 382 c 0,32,33
 495 382 495 382 524 353 c 1,34,35
 543 325 543 325 543 278 c 0,36,37
 543 223 543 223 521 165 c 0,38,39
 497 101 497 101 453 57 c 0,40,41
 403 7 403 7 342 -1 c 0,42,43
 311 -5 311 -5 288 -5 c 0,44,45
 200 -5 200 -5 131 52 c 0,46,47
 83 92 83 92 56 172 c 128,-1,48
 29 252 29 252 29 353 c 0,49,50
 29 490 29 490 74 605 c 128,-1,51
 119 720 119 720 195 770 c 1,52,53
 247 797 247 797 312 797 c 0,54,55
 369 797 369 797 417 774 c 1,56,57
 534 694 534 694 542 610 c 1,58,-1
 544 610 l 1,0,1
EndSplineSet
EndChar

StartChar: h
Encoding: 104 104 75
Width: 636
GlyphClass: 1
Flags: W
LayerCount: 2
Fore
SplineSet
64 730 m 1,0,-1
 63 730 l 1,1,2
 107 774 107 774 174 774 c 0,3,4
 230 774 230 774 256 759 c 1,5,6
 285 730 285 730 287 668 c 1,7,8
 281 619 281 619 278 537 c 1,9,10
 290 493 290 493 314 493 c 0,11,12
 323 493 323 493 342 502 c 0,13,14
 353 507 353 507 359 543 c 1,15,16
 353 595 353 595 351 686 c 1,17,18
 355 738 355 738 417 776 c 0,19,20
 429 783 429 783 476 785 c 0,21,22
 511 786 511 786 523 783 c 0,23,24
 568 771 568 771 583 715 c 0,25,26
 588 698 588 698 594 681 c 0,27,28
 603 648 603 648 604 614 c 0,29,30
 610 474 610 474 610 404 c 0,31,32
 610 256 610 256 559 78 c 0,33,34
 543 23 543 23 471 8 c 0,35,36
 425 -2 425 -2 397 17 c 0,37,38
 359 42 359 42 353 100 c 0,39,40
 351 116 351 116 354.5 157 c 128,-1,41
 358 198 358 198 357 214 c 0,42,43
 351 239 351 239 325 239 c 0,44,45
 300 239 300 239 280.5 220 c 128,-1,46
 261 201 261 201 262 171 c 1,47,48
 267 151 267 151 276 100 c 0,49,50
 281 66 281 66 273 48 c 0,51,52
 261 21 261 21 234 9 c 0,53,54
 216 1 216 1 168 1 c 0,55,56
 122 1 122 1 92 33 c 0,57,58
 67 60 67 60 50 122 c 0,59,60
 30 191 30 191 28 275 c 0,61,62
 25 396 25 396 25 482 c 0,63,64
 25 673 25 673 64 730 c 1,0,-1
EndSplineSet
EndChar

StartChar: i
Encoding: 105 105 76
Width: 362
GlyphClass: 1
Flags: W
LayerCount: 2
Fore
SplineSet
320 659 m 1,0,1
 320 618 320 618 322 559 c 128,-1,2
 324 500 324 500 324 483 c 0,3,4
 325 285 325 285 297 129 c 0,5,6
 279 28 279 28 205 8 c 0,7,8
 183 6 183 6 175 6 c 0,9,10
 74 6 74 6 61 99 c 0,11,12
 38 259 38 259 39 388 c 0,13,14
 40 524 40 524 60 629 c 1,15,-1
 87 696 l 1,16,17
 139 771 139 771 235 771 c 0,18,19
 257 771 257 771 274 767 c 0,20,21
 302 754 302 754 311 720 c 2,22,-1
 320 659 l 1,0,1
EndSplineSet
EndChar

StartChar: j
Encoding: 106 106 77
Width: 506
GlyphClass: 1
Flags: W
LayerCount: 2
Fore
SplineSet
479 424 m 1,0,1
 479 398 479 398 480.5 337 c 128,-1,2
 482 276 482 276 482 266 c 0,3,4
 482 197 482 197 469 154 c 0,5,6
 453 101 453 101 411 53 c 1,7,8
 367 14 367 14 275 14 c 0,9,10
 234 14 234 14 194 21 c 0,11,12
 72 42 72 42 38 155 c 0,13,14
 23 205 23 205 23 236 c 0,15,16
 23 273 23 273 50 303 c 0,17,18
 65 320 65 320 109 352 c 0,19,20
 135 371 135 371 152 371 c 256,21,22
 169 371 169 371 177 351 c 0,23,24
 178 348 178 348 191 300 c 0,25,26
 201 261 201 261 221 261 c 0,27,28
 245 261 245 261 257 298 c 1,29,30
 261 380 261 380 246 487 c 2,31,-1
 222 656 l 1,32,33
 222 722 222 722 273 755 c 1,34,35
 340 773 340 773 366 773 c 0,36,37
 409 773 409 773 430 745 c 0,38,39
 461 704 461 704 480 424 c 1,40,-1
 479 424 l 1,0,1
EndSplineSet
EndChar

StartChar: k
Encoding: 107 107 78
Width: 648
GlyphClass: 1
Flags: W
LayerCount: 2
Fore
SplineSet
103 764 m 1,0,-1
 104 764 l 1,1,2
 135 806 135 806 199 806 c 0,3,4
 276 806 276 806 300 749 c 1,5,6
 302 723 302 723 302 707 c 0,7,8
 302 687 302 687 298 629 c 128,-1,9
 294 571 294 571 294 560 c 1,10,11
 298 551 298 551 307 551 c 0,12,13
 315 551 315 551 318 559 c 0,14,15
 317 560 317 560 317 566 c 0,16,17
 317 611 317 611 353 696 c 0,18,19
 396 798 396 798 449 813 c 1,20,21
 562 820 562 820 601 750 c 0,22,23
 615 725 615 725 615 691 c 0,24,25
 615 599 615 599 550 499 c 0,26,27
 528 466 528 466 485 400 c 1,28,29
 499 377 499 377 534 316 c 0,30,31
 601 195 601 195 601 126 c 0,32,33
 601 73 601 73 571 33 c 0,34,35
 549 3 549 3 496 -2 c 0,36,37
 448 -7 448 -7 381 105 c 0,38,39
 332 186 332 186 316 240 c 0,40,41
 312 244 312 244 296 249 c 1,42,-1
 289 242 l 1,43,44
 300 178 300 178 300 141 c 0,45,46
 300 77 300 77 276 40 c 1,47,48
 237 10 237 10 180 10 c 0,49,50
 133 10 133 10 103 33 c 0,51,52
 32 87 32 87 33 345 c 0,53,54
 33 486 33 486 54.5 617.5 c 128,-1,55
 76 749 76 749 103 764 c 1,0,-1
EndSplineSet
EndChar

StartChar: l
Encoding: 108 108 79
Width: 474
GlyphClass: 1
Flags: W
LayerCount: 2
Fore
SplineSet
448 157 m 1,0,-1
 447 157 l 1,1,2
 436 71 436 71 384 43 c 1,3,4
 312 14 312 14 238 14 c 0,5,6
 26 14 26 14 26 243 c 0,7,8
 26 302 26 302 26 302 c 2,9,10
 26 313 26 313 27 336 c 0,11,12
 28 354 28 354 28 362 c 0,13,14
 23 564 23 564 45 685 c 1,15,16
 63 736 63 736 86.5 755 c 128,-1,17
 110 774 110 774 159 778 c 0,18,19
 170 779 170 779 183 779 c 0,20,21
 226 779 226 779 245 761 c 0,22,23
 253 753 253 753 275 714 c 1,24,25
 292 648 292 648 292 546 c 0,26,27
 292 483 292 483 280 349 c 0,28,29
 272 256 272 256 278 250 c 1,30,31
 316 269 316 269 372 269 c 0,32,33
 386 269 386 269 392 266 c 0,34,35
 421 256 421 256 435 221 c 0,36,37
 444 198 444 198 448 155 c 1,38,-1
 448 157 l 1,0,-1
EndSplineSet
EndChar

StartChar: m
Encoding: 109 109 80
Width: 790
GlyphClass: 1
Flags: W
LayerCount: 2
Fore
SplineSet
755 134 m 2,0,1
 755 82 755 82 734 53 c 0,2,3
 717 30 717 30 690 23 c 0,4,5
 676 19 676 19 649 13 c 0,6,7
 628 8 628 8 622 8 c 0,8,9
 579 8 579 8 549 46.5 c 128,-1,10
 519 85 519 85 519 142 c 0,11,12
 519 164 519 164 530 244 c 0,13,14
 539 306 539 306 531 342 c 1,15,16
 526 327 526 327 500 251 c 0,17,18
 466 155 466 155 439 134 c 0,19,20
 424 122 424 122 403 122 c 0,21,22
 387 122 387 122 370 133 c 1,23,24
 316 189 316 189 286 350 c 1,25,26
 281 325 281 325 281 299 c 0,27,28
 281 284 281 284 289 204 c 0,29,30
 295 147 295 147 289 113 c 0,31,32
 281 69 281 69 246 35 c 1,33,34
 211 15 211 15 179 15 c 0,35,36
 135 15 135 15 98 54 c 1,37,38
 57 124 57 124 50 147 c 0,39,40
 35 192 35 192 35 282 c 0,41,42
 35 365 35 365 49 576 c 0,43,44
 54 649 54 649 93.5 700.5 c 128,-1,45
 133 752 133 752 200 771 c 1,46,47
 333 775 333 775 402 542 c 1,48,49
 407 585 407 585 433 656 c 0,50,51
 471 760 471 760 519 783 c 1,52,53
 566 797 566 797 599 797 c 0,54,55
 654 797 654 797 683 763 c 1,56,57
 721 728 721 728 736 673 c 0,58,59
 746 636 746 636 749 555 c 0,60,61
 750 481 750 481 751 407 c 0,62,63
 755 243 755 243 755 135 c 2,64,-1
 755 134 l 2,0,1
EndSplineSet
EndChar

StartChar: n
Encoding: 110 110 81
Width: 667
GlyphClass: 1
Flags: W
LayerCount: 2
Fore
SplineSet
620 590 m 1,0,-1
 620 591 l 1,1,2
 630 475 630 475 630 372 c 0,3,4
 630 55 630 55 525 16 c 0,5,6
 509 10 509 10 488 10 c 0,7,8
 463 10 463 10 423 20 c 1,9,10
 373 48 373 48 270 341 c 1,11,12
 288 264 288 264 288 189 c 0,13,14
 288 106 288 106 264 57 c 0,15,16
 253 34 253 34 224.5 17.5 c 128,-1,17
 196 1 196 1 170 4 c 0,18,19
 87 12 87 12 57 105 c 0,20,21
 37 167 37 167 37 297 c 0,22,23
 37 550 37 550 58 637 c 0,24,25
 74 702 74 702 131 744 c 0,26,27
 164 768 164 768 205 768 c 0,28,29
 227 768 227 768 249 761 c 1,30,31
 307 730 307 730 363 576 c 0,32,33
 386 514 386 514 406 429 c 1,34,35
 396 495 396 495 389 545 c 0,36,37
 377 633 377 633 377 674 c 0,38,39
 377 723 377 723 403 755 c 0,40,41
 433 792 433 792 488 792 c 0,42,43
 585 792 585 792 609 684 c 0,44,45
 614 661 614 661 620 590 c 1,0,-1
EndSplineSet
EndChar

StartChar: o
Encoding: 111 111 82
Width: 650
GlyphClass: 1
Flags: W
LayerCount: 2
Fore
SplineSet
593 176 m 1,0,-1
 594 175 l 1,1,2
 568 94 568 94 502.5 47 c 128,-1,3
 437 0 437 0 351 0 c 0,4,5
 192 0 192 0 104 120 c 0,6,7
 29 222 29 222 29 368 c 0,8,9
 29 435 29 435 41 492 c 0,10,11
 96 753 96 753 274 786 c 0,12,13
 290 789 290 789 308 789 c 0,14,15
 388 789 388 789 463.5 736 c 128,-1,16
 539 683 539 683 565 607 c 0,17,18
 621 442 621 442 621 350 c 0,19,20
 621 272 621 272 592 176 c 1,21,-1
 593 176 l 1,0,-1
345 248 m 1,22,-1
 345 249 l 1,23,24
 374 254 374 254 374 360 c 0,25,26
 374 421 374 421 363 472.5 c 128,-1,27
 352 524 352 524 339 526 c 0,28,29
 317 532 317 532 299 478 c 128,-1,30
 281 424 281 424 281 359 c 0,31,32
 281 238 281 238 345 248 c 1,22,-1
EndSplineSet
EndChar

StartChar: p
Encoding: 112 112 83
Width: 572
GlyphClass: 1
Flags: W
LayerCount: 2
Fore
SplineSet
530 680 m 1,0,-1
 529 679 l 1,1,2
 582 597 582 597 582 511 c 0,3,4
 582 418 582 418 521 337 c 0,5,6
 470 269 470 269 297 242 c 1,7,8
 295 223 295 223 301 181 c 0,9,10
 309 136 309 136 309 130 c 0,11,12
 309 94 309 94 289 52 c 0,13,14
 279 31 279 31 247.5 17 c 128,-1,15
 216 3 216 3 177 3 c 0,16,17
 119 3 119 3 84.5 34.5 c 128,-1,18
 50 66 50 66 47 122 c 1,19,20
 24 220 24 220 25 328 c 2,21,-1
 25 542 l 2,22,23
 25 551 25 551 29 616 c 0,24,25
 33 675 33 675 49 715 c 0,26,27
 70 767 70 767 109 777 c 0,28,29
 199 800 199 800 272 800 c 0,30,31
 449 800 449 800 529 680 c 1,32,-1
 530 680 l 1,0,-1
337 499 m 1,33,34
 349 523 349 523 349 545 c 0,35,36
 349 601 349 601 276 607 c 1,37,38
 271 565 271 565 271 543 c 0,39,40
 271 512 271 512 272 497 c 0,41,42
 274 474 274 474 277 430 c 1,43,44
 286 438 286 438 300 453 c 0,45,46
 326 479 326 479 336 500 c 1,47,-1
 337 499 l 1,33,34
EndSplineSet
EndChar

StartChar: q
Encoding: 113 113 84
Width: 646
GlyphClass: 1
Flags: W
LayerCount: 2
Fore
SplineSet
615 1 m 1,0,1
 604 -55 604 -55 508 -75 c 0,2,3
 499 -77 499 -77 487 -77 c 0,4,5
 423 -77 423 -77 372 1 c 1,6,7
 335 -8 335 -8 261 -3 c 0,8,9
 191 2 191 2 130 55 c 128,-1,10
 69 108 69 108 48 186.5 c 128,-1,11
 27 265 27 265 27 353 c 0,12,13
 27 648 27 648 183 771 c 1,14,15
 234 791 234 791 291 791 c 0,16,17
 371 791 371 791 429 746 c 0,18,19
 454 726 454 726 502 677 c 0,20,21
 594 582 594 582 595 402 c 0,22,23
 595 320 595 320 573 199 c 0,24,25
 573 197 573 197 564.5 173.5 c 128,-1,26
 556 150 556 150 556 142 c 1,27,28
 619 68 619 68 619 19 c 0,29,30
 619 13 619 13 617 1 c 1,31,-1
 615 1 l 1,0,1
342 269 m 2,32,-1
 315 482 l 2,33,34
 315 498 315 498 298 497 c 1,35,36
 276 475 276 475 269 434.5 c 128,-1,37
 262 394 262 394 262 357 c 256,38,39
 262 320 262 320 263 294 c 0,40,41
 264 273 264 273 264 268 c 0,42,43
 265 264 265 264 265 279 c 1,44,45
 265 257 265 257 267 219 c 0,46,47
 269 217 269 217 271 217 c 0,48,49
 275 217 275 217 281 222 c 1,50,51
 286 261 286 261 312 274 c 0,52,53
 314 274 314 274 321 266 c 128,-1,54
 328 258 328 258 331 258 c 0,55,56
 337 256 337 256 340 259.5 c 128,-1,57
 343 263 343 263 342 269 c 2,32,-1
EndSplineSet
EndChar

StartChar: r
Encoding: 114 114 85
Width: 634
GlyphClass: 1
Flags: W
LayerCount: 2
Fore
SplineSet
599 106 m 1,0,-1
 598 106 l 1,1,2
 584 76 584 76 551 45 c 0,3,4
 508 6 508 6 464 1 c 0,5,6
 379 -8 379 -8 290 174 c 1,7,8
 293 148 293 148 293 129 c 0,9,10
 293 67 293 67 263 31 c 1,11,12
 217 -1 217 -1 171 -1 c 0,13,14
 151 -1 151 -1 135 3 c 0,15,16
 76 18 76 18 58 41 c 0,17,18
 34 71 34 71 34 149 c 2,19,-1
 34 189 l 2,20,21
 31 192 31 192 36 368 c 0,22,23
 42 567 42 567 59 671 c 0,24,25
 72 746 72 746 165 774 c 0,26,27
 209 787 209 787 338 800 c 1,28,29
 491 795 491 795 548 698 c 1,30,31
 591 601 591 601 590 520 c 0,32,33
 589 437 589 437 545 381 c 0,34,35
 538 372 538 372 488 328 c 1,36,37
 601 206 601 206 601 124 c 0,38,39
 601 118 601 118 599 106 c 1,0,-1
313 572 m 1,40,-1
 312 572 l 2,41,42
 306 574 306 574 302 574 c 256,43,44
 298 574 298 574 271 560 c 0,45,46
 267 556 267 556 268 509 c 0,47,48
 269 454 269 454 269 405 c 1,49,50
 307 418 307 418 333.5 442.5 c 128,-1,51
 360 467 360 467 360 494 c 0,52,53
 360 531 360 531 313 572 c 1,40,-1
EndSplineSet
EndChar

StartChar: s
Encoding: 115 115 86
Width: 562
GlyphClass: 1
Flags: W
LayerCount: 2
Fore
SplineSet
213 205 m 1,0,-1
 214 205 l 1,1,2
 250 214 250 214 251 241 c 0,3,4
 251 251 251 251 242.5 260 c 128,-1,5
 234 269 234 269 179 303 c 0,6,7
 133 332 133 332 112 352 c 0,8,9
 83 380 83 380 59 428 c 0,10,11
 28 491 28 491 28 556 c 0,12,13
 28 650 28 650 102 724 c 0,14,15
 184 806 184 806 298 806 c 0,16,17
 364 806 364 806 417 775 c 0,18,19
 450 755 450 755 488 701 c 0,20,21
 504 677 504 677 505 656 c 0,22,23
 506 631 506 631 481 595 c 1,24,-1
 482 594 l 1,25,26
 450 549 450 549 415 549 c 0,27,28
 403 549 403 549 382 554 c 0,29,30
 350 562 350 562 345 610 c 0,31,32
 343 629 343 629 316 629 c 0,33,34
 302 629 302 629 291 622 c 1,35,36
 280 602 280 602 280 582 c 0,37,38
 280 548 280 548 312 525 c 0,39,40
 430 441 430 441 451 421 c 0,41,42
 526 350 526 350 531 272 c 0,43,44
 532 253 532 253 534 221 c 0,45,46
 536 92 536 92 379 20 c 0,47,48
 320 -7 320 -7 267 -7 c 0,49,50
 259 -7 259 -7 245 -5 c 1,51,-1
 243 -4 l 1,52,53
 51 27 51 27 36 141 c 0,54,55
 32 167 32 167 30.5 177.5 c 128,-1,56
 29 188 29 188 29 184 c 1,57,58
 29 211 29 211 45 231 c 128,-1,59
 61 251 61 251 81 251 c 0,60,61
 90 251 90 251 134 227.5 c 128,-1,62
 178 204 178 204 195 204 c 0,63,64
 202 204 202 204 212 206 c 1,65,-1
 213 205 l 1,0,-1
EndSplineSet
EndChar

StartChar: t
Encoding: 116 116 87
Width: 599
GlyphClass: 1
Flags: W
LayerCount: 2
Fore
SplineSet
582 664 m 1,0,-1
 583 664 l 1,1,2
 586 649 586 649 586 625 c 0,3,4
 585 575 585 575 562 549 c 0,5,6
 553 539 553 539 481.5 525.5 c 128,-1,7
 410 512 410 512 408 508 c 0,8,9
 406 497 406 497 431 299 c 0,10,11
 436 259 436 259 436 219 c 0,12,13
 436 128 436 128 412 69 c 0,14,15
 382 -5 382 -5 324 -3 c 0,16,17
 230 0 230 0 193 56 c 0,18,19
 165 98 165 98 164 189 c 1,20,21
 164 181 164 181 168 294 c 2,22,-1
 173 422 l 2,23,24
 177 482 177 482 186 526 c 1,25,26
 180 524 180 524 168 524 c 0,27,28
 134 524 134 524 100 535 c 0,29,30
 54 550 54 550 37 579 c 0,31,32
 13 620 13 620 13 656 c 0,33,34
 13 716 13 716 79 749 c 0,35,36
 164 792 164 792 284 792 c 0,37,38
 347 792 347 792 416 780 c 1,39,40
 449 768 449 768 516 743 c 1,41,42
 572 714 572 714 582 664 c 1,0,-1
EndSplineSet
EndChar

StartChar: u
Encoding: 117 117 88
Width: 670
GlyphClass: 1
Flags: W
LayerCount: 2
Fore
SplineSet
633 675 m 1,0,-1
 634 676 l 1,1,2
 638 629 638 629 638 571 c 0,3,4
 638 342 638 342 565 147 c 0,5,6
 546 96 546 96 505.5 54.5 c 128,-1,7
 465 13 465 13 421 0 c 1,8,9
 380 -6 380 -6 341 -6 c 0,10,11
 230 -6 230 -6 155 46 c 0,12,13
 83 95 83 95 54 185 c 0,14,15
 32 253 32 253 32 373 c 0,16,17
 32 553 32 553 67 673 c 0,18,19
 78 710 78 710 114.5 739 c 128,-1,20
 151 768 151 768 188 772 c 0,21,22
 220 775 220 775 251.5 755.5 c 128,-1,23
 283 736 283 736 298 705 c 1,24,25
 301 681 301 681 301 654 c 0,26,27
 301 621 301 621 283 513 c 128,-1,28
 265 405 265 405 265 374 c 0,29,30
 265 344 265 344 269 321 c 0,31,32
 275 304 275 304 302 287 c 1,33,34
 335 283 335 283 349 295 c 0,35,36
 375 323 375 323 381 369 c 1,37,38
 380 437 380 437 384 544 c 1,39,40
 394 630 394 630 397 650 c 0,41,42
 405 707 405 707 416 737 c 1,43,44
 452 795 452 795 498 794 c 0,45,46
 541 793 541 793 577 761 c 128,-1,47
 613 729 613 729 633 675 c 1,0,-1
EndSplineSet
EndChar

StartChar: v
Encoding: 118 118 89
Width: 669
GlyphClass: 1
Flags: W
LayerCount: 2
Fore
SplineSet
605 752 m 1,0,1
 643 725 643 725 643 647 c 0,2,3
 643 479 643 479 478 103 c 0,4,5
 438 12 438 12 343 -3 c 0,6,7
 330 -5 330 -5 321 -5 c 0,8,9
 271 -5 271 -5 226 15 c 128,-1,10
 181 35 181 35 160 68 c 0,11,12
 93 173 93 173 57 320 c 0,13,14
 26 448 26 448 26 562 c 0,15,16
 26 644 26 644 38 681 c 0,17,18
 53 726 53 726 96 749 c 0,19,20
 133 769 133 769 167 767 c 0,21,22
 235 763 235 763 262 710 c 0,23,24
 285 663 285 663 300 523 c 2,25,-1
 313 398 l 1,26,27
 321 470 321 470 339 611.5 c 128,-1,28
 357 753 357 753 412 779 c 0,29,30
 448 796 448 796 489 796 c 0,31,32
 558 796 558 796 605 752 c 1,0,1
EndSplineSet
EndChar

StartChar: w
Encoding: 119 119 90
Width: 848
GlyphClass: 1
Flags: W
LayerCount: 2
Fore
SplineSet
94 754 m 0,0,1
 126 779 126 779 162 779 c 0,2,3
 238 779 238 779 261 694 c 0,4,5
 265 678 265 678 275 600 c 1,6,-1
 278 426 l 1,7,8
 285 417 285 417 293 417 c 1,9,10
 301 427 301 427 303 452 c 0,11,12
 305 482 305 482 305 482 c 1,13,14
 317 518 317 518 343 589 c 0,15,16
 368 651 368 651 428 662 c 1,17,18
 471 663 471 663 492 624 c 0,19,20
 507 596 507 596 517 528 c 0,21,22
 525 474 525 474 523 461 c 0,23,24
 516 439 516 439 525 413 c 1,25,26
 539 410 539 410 540 421 c 0,27,28
 553 640 553 640 612 739 c 0,29,30
 630 770 630 770 652 780 c 0,31,32
 666 789 666 789 694 792 c 0,33,34
 743 797 743 797 786 755 c 0,35,36
 819 723 819 723 819 665 c 0,37,38
 819 643 819 643 803 562 c 0,39,40
 786 466 786 466 750 275 c 0,41,42
 717 106 717 106 645 25 c 1,43,44
 619 4 619 4 576 4 c 0,45,46
 526 4 526 4 484 28 c 1,47,48
 450 56 450 56 439 103 c 0,49,50
 430 140 430 140 429 195 c 0,51,52
 427 261 427 261 422 285 c 1,53,54
 412 294 412 294 405 293 c 1,55,56
 402 278 402 278 392 173 c 0,57,58
 384 94 384 94 369 56 c 0,59,60
 345 -2 345 -2 276 -7 c 0,61,62
 165 -15 165 -15 106 89 c 1,63,64
 70 139 70 139 49.5 240.5 c 128,-1,65
 29 342 29 342 30 463 c 0,66,67
 32 705 32 705 94 754 c 0,0,1
EndSplineSet
EndChar

StartChar: x
Encoding: 120 120 91
Width: 626
GlyphClass: 1
Flags: W
LayerCount: 2
Fore
SplineSet
591 590 m 1,0,-1
 590 591 l 1,1,2
 598 626 598 626 597 651 c 0,3,4
 595 729 595 729 525 782 c 0,5,6
 489 809 489 809 460 809 c 0,7,8
 367 809 367 809 348 683 c 0,9,10
 343 646 343 646 333 573 c 1,11,12
 328 571 328 571 318 576 c 1,13,14
 320 590 320 590 320 597 c 0,15,16
 320 641 320 641 296.5 695.5 c 128,-1,17
 273 750 273 750 242 774 c 1,18,19
 209 788 209 788 174 788 c 0,20,21
 128 788 128 788 104 763 c 0,22,23
 66 724 66 724 66 655 c 0,24,25
 66 607 66 607 84 528 c 0,26,27
 88 510 88 510 127 458 c 0,28,29
 163 409 163 409 162 386 c 1,30,31
 133 346 133 346 76 267 c 0,32,33
 29 198 29 198 28 134 c 0,34,35
 27 71 27 71 70 29 c 0,36,37
 97 3 97 3 142 3 c 0,38,39
 174 3 174 3 212 16 c 0,40,41
 247 32 247 32 259 72 c 0,42,43
 277 131 277 131 296 157 c 0,44,45
 305 169 305 169 311 158 c 1,46,47
 312 69 312 69 363 23 c 1,48,49
 406 -2 406 -2 456 -2 c 0,50,51
 492 -2 492 -2 519 12 c 0,52,53
 572 40 572 40 571 123 c 0,54,55
 571 158 571 158 565 190 c 0,56,57
 558 229 558 229 504 290 c 0,58,59
 460 340 460 340 464 386 c 0,60,61
 468 393 468 393 535 485 c 0,62,63
 581 549 581 549 591 590 c 1,0,-1
EndSplineSet
EndChar

StartChar: y
Encoding: 121 121 92
Width: 597
GlyphClass: 1
Flags: W
LayerCount: 2
Fore
SplineSet
71 770 m 1,0,-1
 72 770 l 1,1,2
 97 783 97 783 126 783 c 0,3,4
 188 783 188 783 215 734 c 1,5,6
 237 710 237 710 257 646 c 0,7,8
 283 562 283 562 287 555 c 1,9,10
 331 743 331 743 390 801 c 1,11,12
 418 812 418 812 449 812 c 0,13,14
 496 812 496 812 524 787 c 1,15,16
 577 752 577 752 577 672 c 1,17,18
 568 589 568 589 526 493 c 0,19,20
 501 437 501 437 442 328 c 1,21,22
 442 285 442 285 441 201 c 0,23,24
 439 127 439 127 418 78 c 0,25,26
 392 19 392 19 331 -2 c 0,27,28
 315 -4 315 -4 308 -4 c 0,29,30
 228 -4 228 -4 197 59 c 1,31,32
 183 99 183 99 183 164 c 0,33,34
 183 195 183 195 184 222 c 0,35,36
 185 258 185 258 184 276 c 1,37,38
 20 556 20 556 20 674 c 0,39,40
 20 744 20 744 71 770 c 1,0,-1
EndSplineSet
EndChar

StartChar: z
Encoding: 122 122 93
Width: 622
GlyphClass: 1
Flags: W
LayerCount: 2
Fore
SplineSet
592 703 m 1,0,-1
 595 673 l 1,1,2
 595 488 595 488 334 265 c 1,3,4
 326 248 326 248 345 244 c 1,5,6
 382 263 382 263 464 263 c 0,7,8
 514 263 514 263 538 255 c 0,9,10
 585 239 585 239 586 172 c 0,11,12
 586 156 586 156 580 136 c 0,13,14
 555 54 555 54 513 32 c 1,15,16
 397 4 397 4 291 4 c 0,17,18
 173 4 173 4 94 40 c 0,19,20
 45 62 45 62 27 133 c 1,21,22
 31 231 31 231 66 303.5 c 128,-1,23
 101 376 101 376 188 463 c 1,24,25
 265 510 265 510 277 552 c 1,26,27
 269 557 269 557 256 557 c 0,28,29
 242 557 242 557 225 554 c 128,-1,30
 208 551 208 551 198 549 c 128,-1,31
 188 547 188 547 165 547 c 0,32,33
 100 547 100 547 69 601 c 0,34,35
 58 620 58 620 58 652 c 0,36,37
 58 738 58 738 106 769 c 0,38,39
 170 810 170 810 367 810 c 0,40,41
 465 810 465 810 476 802 c 1,42,43
 513 796 513 796 547 768 c 128,-1,44
 581 740 581 740 592 705 c 1,45,-1
 592 703 l 1,0,-1
EndSplineSet
EndChar

StartChar: cent
Encoding: 162 162 96
Width: 191
GlyphClass: 1
Flags: W
LayerCount: 2
Fore
SplineSet
212 691 m 0,0,1
 206 664 206 664 195 664 c 0,2,3
 192 664 192 664 179 666.5 c 128,-1,4
 166 669 166 669 162 669 c 0,5,6
 140 669 140 669 126 658.5 c 128,-1,7
 112 648 112 648 112 634 c 0,8,9
 112 616 112 616 142 607 c 0,10,11
 149 605 149 605 150 605 c 0,12,13
 154 605 154 605 171 611.5 c 128,-1,14
 188 618 188 618 194 617 c 0,15,16
 213 614 213 614 213 584 c 0,17,18
 213 562 213 562 189 551 c 0,19,20
 166 540 166 540 147 552 c 1,21,22
 145 544 145 544 143 528 c 0,23,24
 143 516 143 516 151.5 449 c 128,-1,25
 160 382 160 382 160 362 c 0,26,27
 159 320 159 320 139 305 c 1,28,29
 110 307 110 307 98 342 c 0,30,31
 91 364 91 364 83 441 c 0,32,33
 83 464 83 464 90 503 c 0,34,35
 98 547 98 547 98 553 c 1,36,37
 70 552 70 552 51 576 c 128,-1,38
 32 600 32 600 33 629 c 0,39,40
 35 693 35 693 84 709 c 1,41,42
 75 759 75 759 81 775 c 0,43,44
 89 796 89 796 111 796 c 0,45,46
 139 796 139 796 145 767 c 1,47,-1
 140 715 l 1,48,49
 154 722 154 722 172 722 c 0,50,51
 192 722 192 722 203.5 713 c 128,-1,52
 215 704 215 704 212 691 c 0,0,1
EndSplineSet
EndChar

StartChar: uni0410
Encoding: 1040 1040 97
Width: 656
GlyphClass: 2
Flags: W
LayerCount: 2
Fore
SplineSet
609 88 m 1,0,-1
 609 87 l 1,1,2
 600 39 600 39 550 27 c 0,3,4
 525 21 525 21 498 21 c 0,5,6
 449 21 449 21 418 44 c 1,7,8
 396 73 396 73 392 82 c 0,9,10
 379 108 379 108 379 149 c 1,11,12
 339 151 339 151 288 145 c 1,13,14
 290 136 290 136 292 118 c 0,15,16
 292 77 292 77 269 33 c 1,17,18
 240 -8 240 -8 184 -8 c 0,19,20
 157 -8 157 -8 117 2 c 1,21,-1
 115 4 l 1,22,23
 30 46 30 46 30 213 c 0,24,25
 30 224 30 224 32 265 c 0,26,27
 40 422 40 422 61 511 c 0,28,29
 91 637 91 637 167 737 c 0,30,31
 226 814 226 814 338 814 c 0,32,33
 458 814 458 814 519 739 c 0,34,35
 555 695 555 695 570 636 c 0,36,37
 625 425 625 425 625 265 c 0,38,39
 625 171 625 171 609 88 c 1,0,-1
356 350 m 0,40,41
 363 431 363 431 346 603 c 1,42,43
 339 610 339 610 325 598 c 1,44,45
 312 513 312 513 306 460 c 0,46,47
 296 367 296 367 299 354 c 0,48,49
 304 343 304 343 316 343 c 0,50,51
 320 343 320 343 336.5 346.5 c 128,-1,52
 353 350 353 350 356 350 c 0,40,41
EndSplineSet
EndChar

StartChar: uni0411
Encoding: 1041 1041 98
Width: 572
GlyphClass: 2
Flags: W
LayerCount: 2
Fore
SplineSet
401 809 m 0,0,1
 479 809 479 809 493 770 c 0,2,3
 499 754 499 754 499 734 c 0,4,5
 499 691 499 691 467 664 c 128,-1,6
 435 637 435 637 378 637 c 0,7,8
 338 637 338 637 297 635 c 1,9,10
 297 635 297 635 297 570 c 1,11,12
 470 543 470 543 521 475 c 0,13,14
 582 394 582 394 582 301 c 0,15,16
 582 215 582 215 529 133 c 1,17,18
 529 133 529 133 530 132 c 1,19,-1
 529 132 l 1,20,21
 449 12 449 12 272 12 c 0,22,23
 199 12 199 12 109 35 c 0,24,25
 70 45 70 45 49 97 c 0,26,27
 33 137 33 137 29 196 c 0,28,29
 25 261 25 261 25 270 c 0,30,31
 17 412 17 412 25 484 c 1,32,33
 25 597 25 597 47 690 c 1,34,35
 50 746 50 746 84.5 777.5 c 128,-1,36
 119 809 119 809 177 809 c 0,37,38
 289 809 289 809 401 809 c 0,0,1
339 313 m 1,39,40
 339 313 339 313 338 312 c 1,41,42
 328 333 328 333 302 359 c 0,43,44
 288 374 288 374 279 382 c 1,45,46
 276 338 276 338 274 315 c 0,47,48
 273 300 273 300 273 269 c 0,49,50
 273 247 273 247 278 205 c 1,51,52
 359 211 359 211 359 266 c 0,53,54
 359 273 359 273 339 313 c 1,39,40
EndSplineSet
EndChar

StartChar: uni0412
Encoding: 1042 1042 99
Width: 605
GlyphClass: 2
Flags: W
LayerCount: 2
Fore
SplineSet
570 241 m 0,0,1
 561 132 561 132 487 75 c 0,2,3
 448 45 448 45 346 8 c 1,4,5
 301 0 301 0 253 0 c 0,6,7
 112 0 112 0 50 59 c 0,8,9
 35 78 35 78 35 362 c 0,10,11
 35 699 35 699 51 732 c 1,12,13
 121 792 121 792 262 792 c 0,14,15
 303 792 303 792 324 788 c 0,16,17
 434 767 434 767 488 707.5 c 128,-1,18
 542 648 542 648 545 556 c 1,19,20
 537 502 537 502 501 468 c 0,21,22
 485 453 485 453 433 425 c 1,23,24
 498 413 498 413 536.5 359 c 128,-1,25
 575 305 575 305 570 241 c 0,0,1
316 586 m 1,26,-1
 315 585 l 1,27,28
 310 611 310 611 271 611 c 0,29,30
 258 611 258 611 256 609 c 0,31,32
 249 608 249 608 243 596 c 1,33,34
 250 537 250 537 244 464 c 1,35,-1
 288 492 l 1,36,37
 318 544 318 544 318 571 c 0,38,39
 318 576 318 576 316 586 c 1,26,-1
297 247 m 1,40,-1
 297 246 l 1,41,42
 304 269 304 269 304 285 c 0,43,44
 304 331 304 331 273 331 c 0,45,46
 256 331 256 331 240 318 c 1,47,48
 241 305 241 305 237 270 c 0,49,50
 231 228 231 228 231 219 c 0,51,52
 231 213 231 213 233 188 c 1,53,54
 263 192 263 192 279 211 c 0,55,56
 286 220 286 220 297 247 c 1,40,-1
EndSplineSet
EndChar

StartChar: uni0413
Encoding: 1043 1043 100
Width: 474
GlyphClass: 2
Flags: W
LayerCount: 2
Fore
SplineSet
448 647 m 1,0,-1
 447 647 l 1,1,2
 436 733 436 733 384 761 c 1,3,4
 312 790 312 790 238 790 c 0,5,6
 26 790 26 790 26 561 c 0,7,8
 26 502 26 502 26 502 c 2,9,10
 26 491 26 491 27 468 c 0,11,12
 28 450 28 450 28 442 c 0,13,14
 23 240 23 240 45 119 c 1,15,16
 63 68 63 68 86.5 49 c 128,-1,17
 110 30 110 30 159 26 c 0,18,19
 170 25 170 25 183 25 c 0,20,21
 226 25 226 25 245 43 c 0,22,23
 253 51 253 51 275 90 c 1,24,25
 292 156 292 156 292 258 c 0,26,27
 292 321 292 321 280 455 c 0,28,29
 272 548 272 548 278 554 c 1,30,31
 316 535 316 535 372 535 c 0,32,33
 386 535 386 535 392 538 c 0,34,35
 421 548 421 548 435 583 c 0,36,37
 444 606 444 606 448 649 c 1,38,-1
 448 647 l 1,0,-1
EndSplineSet
EndChar

StartChar: uni0414
Encoding: 1044 1044 101
Width: 888
GlyphClass: 2
Flags: W
LayerCount: 2
Fore
SplineSet
742 286 m 1,0,-1
 692 362 l 1,1,-1
 697 438 l 1,2,-1
 701 633 l 1,3,-1
 680 688 l 1,4,-1
 650 736 l 1,5,-1
 574 792 l 1,6,-1
 424 814 l 1,7,-1
 353 777 l 1,8,-1
 281 719 l 1,9,-1
 222 614 l 1,10,-1
 189 506 l 1,11,-1
 171 400 l 1,12,-1
 158 344 l 1,13,-1
 145 316 l 1,14,-1
 113 296 l 1,15,-1
 50 264 l 1,16,-1
 18 176 l 1,17,-1
 29 74 l 1,18,-1
 40 37 l 1,19,-1
 88 -9 l 1,20,-1
 167 -38 l 1,21,-1
 249 -5 l 1,22,-1
 282 19 l 1,23,-1
 300 57 l 1,24,-1
 301 89 l 1,25,-1
 299 113 l 1,26,-1
 361 130 l 1,27,-1
 419 134 l 1,28,-1
 476 131 l 1,29,-1
 548 117 l 1,30,-1
 546 63 l 1,31,-1
 566 17 l 1,32,-1
 600 -20 l 1,33,-1
 655 -34 l 1,34,-1
 754 -38 l 1,35,-1
 804 -19 l 1,36,-1
 848 39 l 1,37,-1
 863 158 l 1,38,-1
 825 241 l 1,39,-1
 742 286 l 1,0,-1
476 340 m 0,40,41
 473 339 473 339 452 336 c 0,42,43
 432 332 432 332 426 332 c 0,44,45
 410 332 410 332 405 344 c 0,46,47
 400 358 400 358 414 460 c 0,48,49
 422 518 422 518 438 610 c 1,50,51
 476 641 476 641 506 614 c 1,52,53
 554 382 554 382 476 340 c 0,40,41
EndSplineSet
EndChar

StartChar: uni0415
Encoding: 1045 1045 102
Width: 513
GlyphClass: 2
Flags: W
LayerCount: 2
Fore
SplineSet
478 486 m 5,0,1
 482 471 482 471 481 455 c 4,2,3
 481 402 481 402 438 366 c 4,4,5
 399 332 399 332 354 337 c 4,6,7
 346 340 346 340 324 338 c 5,8,9
 326 326 326 326 317 274 c 5,10,11
 317 250 317 250 338 238 c 5,12,13
 379 249 379 249 405 238 c 4,14,15
 446 222 446 222 450 184 c 4,16,17
 455 141 455 141 425 96.5 c 132,-1,18
 395 52 395 52 342 22 c 4,19,20
 295 -5 295 -5 231 -5 c 4,21,22
 175 -5 175 -5 130 16 c 4,23,24
 111 25 111 25 73 72 c 5,25,26
 32 140 32 140 31 359 c 4,27,28
 30 485 30 485 52 647 c 4,29,30
 65 741 65 741 106 769 c 5,31,-1
 273 786 l 5,32,33
 316 795 316 795 355 795 c 4,34,35
 433 795 433 795 447 756 c 4,36,37
 453 740 453 740 453 720 c 4,38,39
 453 677 453 677 421 650 c 132,-1,40
 389 623 389 623 332 623 c 4,41,42
 318 623 318 623 310 624 c 5,43,44
 303 609 303 609 302 576 c 4,45,46
 300 534 300 534 299 528 c 4,47,48
 302 514 302 514 320 510 c 5,49,50
 349 533 349 533 393 533 c 4,51,52
 444 533 444 533 478 486 c 5,0,1
EndSplineSet
EndChar

StartChar: uni0416
Encoding: 1046 1046 103
Width: 1052
GlyphClass: 2
Flags: W
LayerCount: 2
Fore
SplineSet
363 500 m 0,0,1
 361 502 361 502 331 606 c 2,2,-1
 302 711 l 1,3,4
 262 770 262 770 214 779 c 0,5,6
 130 795 130 795 69 756 c 0,7,8
 38 736 38 736 26 658 c 0,9,10
 24 641 24 641 45 598 c 0,11,12
 74 539 74 539 93 520 c 0,13,14
 148 466 148 466 179 466 c 1,15,16
 248 421 248 421 241 418 c 0,17,18
 230 414 230 414 209 366 c 0,19,20
 189 319 189 319 163 306 c 0,21,22
 97 273 97 273 89 266 c 0,23,24
 42 226 42 226 39 226 c 0,25,26
 15 215 15 215 31 138 c 0,27,28
 38 105 38 105 69 80 c 0,29,30
 112 46 112 46 151 42 c 0,31,32
 226 35 226 35 267 60 c 0,33,34
 279 68 279 68 309 138 c 1,35,-1
 355 270 l 1,36,37
 405 328 405 328 445 298 c 1,38,-1
 427 216 l 2,39,40
 411 144 411 144 411 142 c 0,41,42
 403 80 403 80 409 70 c 0,43,44
 430 36 430 36 481 26 c 0,45,46
 528 17 528 17 579 38 c 0,47,48
 621 55 621 55 631 88 c 0,49,50
 637 108 637 108 623 180 c 1,51,-1
 599 252 l 1,52,53
 603 302 603 302 632 303 c 0,54,55
 650 304 650 304 696 257 c 0,56,57
 719 234 719 234 729 204 c 1,58,-1
 745 114 l 1,59,60
 759 88 759 88 803 66 c 0,61,62
 861 38 861 38 891 43 c 0,63,64
 963 55 963 55 999 98 c 0,65,66
 1018 119 1018 119 1027 206 c 0,67,68
 1032 248 1032 248 1020 290 c 0,69,70
 1012 318 1012 318 991 332 c 0,71,72
 934 370 934 370 901 370 c 1,73,74
 831 408 831 408 833 418 c 0,75,76
 845 486 845 486 921 486 c 1,77,78
 985 540 985 540 995 556 c 0,79,80
 1002 567 1002 567 1009 628 c 0,81,82
 1016 685 1016 685 1012 695 c 0,83,84
 994 740 994 740 956 762 c 0,85,86
 927 778 927 778 859 783 c 0,87,88
 798 787 798 787 779 774 c 0,89,90
 768 767 768 767 729 692 c 0,91,92
 719 672 719 672 715 651 c 0,93,94
 706 601 706 601 706 563 c 1,95,-1
 696 534 l 1,96,-1
 687 506 l 1,97,98
 678 499 678 499 655 503 c 0,99,100
 625 508 625 508 619 518 c 0,101,102
 600 550 600 550 603 590 c 1,103,-1
 631 662 l 1,104,105
 649 737 649 737 643 754 c 0,106,107
 630 790 630 790 581 802 c 0,108,109
 543 812 543 812 467 798 c 0,110,111
 405 787 405 787 385 766 c 0,112,113
 370 750 370 750 373 700 c 1,114,-1
 395 620 l 2,115,116
 411 556 411 556 411 548 c 0,117,118
 425 500 425 500 429 500 c 1,119,120
 395 466 395 466 363 500 c 0,0,1
EndSplineSet
EndChar

StartChar: uni0417
Encoding: 1047 1047 104
Width: 620
GlyphClass: 2
Flags: W
LayerCount: 2
Fore
SplineSet
476 418 m 1,0,-1
 477 418 l 1,1,2
 473 405 473 405 488 402 c 0,3,4
 509 398 509 398 513 394 c 0,5,6
 565 355 565 355 565 273 c 0,7,8
 565 240 565 240 557 201 c 0,9,10
 544 140 544 140 491 87 c 128,-1,11
 438 34 438 34 371 18 c 0,12,13
 322 6 322 6 275 6 c 0,14,15
 157 6 157 6 102 75 c 0,16,17
 67 119 67 119 68 177 c 0,18,19
 69 208 69 208 77 233 c 1,20,21
 88 253 88 253 94 260 c 0,22,23
 104 274 104 274 115 277.5 c 128,-1,24
 126 281 126 281 137 281 c 0,25,26
 149 281 149 281 187 271 c 128,-1,27
 225 261 225 261 235 261 c 0,28,29
 268 261 268 261 272 301 c 1,30,31
 264 328 264 328 233 335 c 0,32,33
 214 338 214 338 176 346 c 1,34,35
 147 357 147 357 144 388 c 0,36,37
 140 399 140 399 140 415 c 0,38,39
 140 446 140 446 157 463 c 0,40,41
 165 471 165 471 222 490 c 0,42,43
 265 504 265 504 267 534 c 1,44,45
 262 554 262 554 239 562 c 1,46,47
 220 563 220 563 182.5 550 c 128,-1,48
 145 537 145 537 141 537 c 0,49,50
 110 537 110 537 81 566.5 c 128,-1,51
 52 596 52 596 52 631 c 0,52,53
 52 709 52 709 168 772 c 0,54,55
 217 799 217 799 284 799 c 0,56,57
 384 799 384 799 460 745 c 0,58,59
 555 677 555 677 565 606 c 0,60,61
 567 591 567 591 567 575 c 0,62,63
 567 466 567 466 476 418 c 1,0,-1
EndSplineSet
EndChar

StartChar: uni0418
Encoding: 1048 1048 105
Width: 667
GlyphClass: 2
Flags: W
LayerCount: 2
Fore
SplineSet
621 215 m 1,0,-1
 621 214 l 1,1,2
 631 330 631 330 631 433 c 0,3,4
 631 750 631 750 526 789 c 0,5,6
 510 795 510 795 489 795 c 0,7,8
 464 795 464 795 424 785 c 1,9,10
 374 757 374 757 271 464 c 1,11,12
 289 541 289 541 289 616 c 0,13,14
 289 699 289 699 265 748 c 0,15,16
 254 771 254 771 225.5 787.5 c 128,-1,17
 197 804 197 804 171 801 c 0,18,19
 88 793 88 793 58 700 c 0,20,21
 38 638 38 638 38 508 c 0,22,23
 38 255 38 255 59 168 c 0,24,25
 75 103 75 103 132 61 c 0,26,27
 165 37 165 37 206 37 c 0,28,29
 228 37 228 37 250 44 c 1,30,31
 308 75 308 75 364 229 c 0,32,33
 387 291 387 291 407 376 c 1,34,35
 397 310 397 310 390 260 c 0,36,37
 378 172 378 172 378 131 c 0,38,39
 378 82 378 82 404 50 c 0,40,41
 434 13 434 13 489 13 c 0,42,43
 586 13 586 13 610 121 c 0,44,45
 615 144 615 144 621 215 c 1,0,-1
EndSplineSet
EndChar

StartChar: uni0419
Encoding: 1049 1049 106
Width: 667
GlyphClass: 2
Flags: W
LayerCount: 2
Fore
SplineSet
358 842 m 0,0,1
 385 817 385 817 383 801 c 0,2,3
 377 764 377 764 346 764 c 0,4,5
 312 764 312 764 262 802 c 0,6,7
 228 827 228 827 246 839 c 0,8,9
 257 846 257 846 331 848 c 0,10,11
 351 849 351 849 358 842 c 0,0,1
621 215 m 1,12,-1
 621 214 l 1,13,14
 631 330 631 330 631 433 c 0,15,16
 631 750 631 750 526 789 c 0,17,18
 510 795 510 795 489 795 c 0,19,20
 464 795 464 795 424 785 c 1,21,22
 374 757 374 757 271 464 c 1,23,24
 289 541 289 541 289 616 c 0,25,26
 289 699 289 699 265 748 c 0,27,28
 254 771 254 771 225.5 787.5 c 128,-1,29
 197 804 197 804 171 801 c 0,30,31
 88 793 88 793 58 700 c 0,32,33
 38 638 38 638 38 508 c 0,34,35
 38 255 38 255 59 168 c 0,36,37
 75 103 75 103 132 61 c 0,38,39
 165 37 165 37 206 37 c 0,40,41
 228 37 228 37 250 44 c 1,42,43
 308 75 308 75 364 229 c 0,44,45
 387 291 387 291 407 376 c 1,46,47
 397 310 397 310 390 260 c 0,48,49
 378 172 378 172 378 131 c 0,50,51
 378 82 378 82 404 50 c 0,52,53
 434 13 434 13 489 13 c 0,54,55
 586 13 586 13 610 121 c 0,56,57
 615 144 615 144 621 215 c 1,12,-1
EndSplineSet
EndChar

StartChar: uni041A
Encoding: 1050 1050 107
Width: 648
GlyphClass: 2
Flags: W
LayerCount: 2
Fore
SplineSet
103 764 m 1,0,-1
 104 764 l 1,1,2
 135 806 135 806 199 806 c 0,3,4
 276 806 276 806 300 749 c 1,5,6
 302 723 302 723 302 707 c 0,7,8
 302 687 302 687 298 629 c 128,-1,9
 294 571 294 571 294 560 c 1,10,11
 298 551 298 551 307 551 c 0,12,13
 315 551 315 551 318 559 c 0,14,15
 317 560 317 560 317 566 c 0,16,17
 317 611 317 611 353 696 c 0,18,19
 396 798 396 798 449 813 c 1,20,21
 562 820 562 820 601 750 c 0,22,23
 615 725 615 725 615 691 c 0,24,25
 615 599 615 599 550 499 c 0,26,27
 528 466 528 466 485 400 c 1,28,29
 499 377 499 377 534 316 c 0,30,31
 601 195 601 195 601 126 c 0,32,33
 601 73 601 73 571 33 c 0,34,35
 549 3 549 3 496 -2 c 0,36,37
 448 -7 448 -7 381 105 c 0,38,39
 332 186 332 186 316 240 c 0,40,41
 312 244 312 244 296 249 c 1,42,-1
 289 242 l 1,43,44
 300 178 300 178 300 141 c 0,45,46
 300 77 300 77 276 40 c 1,47,48
 237 10 237 10 180 10 c 0,49,50
 133 10 133 10 103 33 c 0,51,52
 32 87 32 87 33 345 c 0,53,54
 33 486 33 486 54.5 617.5 c 128,-1,55
 76 749 76 749 103 764 c 1,0,-1
EndSplineSet
EndChar

StartChar: uni041B
Encoding: 1051 1051 108
Width: 597
GlyphClass: 2
Flags: W
LayerCount: 2
Fore
SplineSet
294 431 m 1,0,-1
 263 303 l 2,1,2
 258 276 258 276 258 233 c 1,3,-1
 240 138 l 1,4,-1
 211 87 l 2,5,6
 190 58 190 58 175 50 c 0,7,8
 153 38 153 38 122 38 c 2,9,-1
 94 41 l 1,10,-1
 68 51 l 1,11,-1
 67 51 l 1,12,13
 30 86 30 86 29 88 c 0,14,15
 16 112 16 112 16 147 c 1,16,-1
 34 278 l 1,17,-1
 90 411 l 1,18,-1
 122 477 l 2,19,20
 137 513 137 513 152 555 c 0,21,22
 161 580 161 580 171 618 c 0,23,24
 176 638 176 638 179 657 c 0,25,26
 193 748 193 748 193 762 c 1,27,28
 204 791 204 791 236 809 c 0,29,30
 264 825 264 825 304 825 c 2,31,-1
 318 824 l 1,32,-1
 327 823 l 1,33,34
 374 801 374 801 381 794 c 0,35,36
 398 778 398 778 414 743 c 0,37,38
 414 742 414 742 423 702 c 0,39,40
 447 595 447 595 447 594 c 2,41,-1
 464 526 l 1,42,-1
 486 456 l 2,43,44
 522 333 522 333 522 328 c 2,45,-1
 536 279 l 1,46,-1
 573 149 l 1,47,-1
 560 80 l 1,48,49
 551 62 551 62 520 34 c 0,50,51
 506 22 506 22 487 15 c 0,52,53
 468 9 468 9 445 9 c 2,54,-1
 405 9 l 1,55,56
 389 13 389 13 373 26 c 0,57,58
 356 40 356 40 347 56 c 0,59,60
 334 80 334 80 334 98 c 2,61,-1
 338 167 l 1,62,-1
 329 253 l 1,63,64
 302 431 302 431 294 431 c 1,0,-1
EndSplineSet
EndChar

StartChar: uni041C
Encoding: 1052 1052 109
Width: 790
GlyphClass: 2
Flags: W
LayerCount: 2
Fore
SplineSet
755 134 m 2,0,1
 755 82 755 82 734 53 c 0,2,3
 717 30 717 30 690 23 c 0,4,5
 676 19 676 19 649 13 c 0,6,7
 628 8 628 8 622 8 c 0,8,9
 579 8 579 8 549 46.5 c 128,-1,10
 519 85 519 85 519 142 c 0,11,12
 519 164 519 164 530 244 c 0,13,14
 539 306 539 306 531 342 c 1,15,16
 526 327 526 327 500 251 c 0,17,18
 466 155 466 155 439 134 c 0,19,20
 424 122 424 122 403 122 c 0,21,22
 387 122 387 122 370 133 c 1,23,24
 316 189 316 189 286 350 c 1,25,26
 281 325 281 325 281 299 c 0,27,28
 281 284 281 284 289 204 c 0,29,30
 295 147 295 147 289 113 c 0,31,32
 281 69 281 69 246 35 c 1,33,34
 211 15 211 15 179 15 c 0,35,36
 135 15 135 15 98 54 c 1,37,38
 57 124 57 124 50 147 c 0,39,40
 35 192 35 192 35 282 c 0,41,42
 35 365 35 365 49 576 c 0,43,44
 54 649 54 649 93.5 700.5 c 128,-1,45
 133 752 133 752 200 771 c 1,46,47
 333 775 333 775 402 542 c 1,48,49
 407 585 407 585 433 656 c 0,50,51
 471 760 471 760 519 783 c 1,52,53
 566 797 566 797 599 797 c 0,54,55
 654 797 654 797 683 763 c 1,56,57
 721 728 721 728 736 673 c 0,58,59
 746 636 746 636 749 555 c 0,60,61
 750 481 750 481 751 407 c 0,62,63
 755 243 755 243 755 135 c 2,64,-1
 755 134 l 2,0,1
EndSplineSet
EndChar

StartChar: uni041D
Encoding: 1053 1053 110
Width: 636
GlyphClass: 2
Flags: W
LayerCount: 2
Fore
SplineSet
64 730 m 1,0,-1
 63 730 l 1,1,2
 107 774 107 774 174 774 c 0,3,4
 230 774 230 774 256 759 c 1,5,6
 285 730 285 730 287 668 c 1,7,8
 281 619 281 619 278 537 c 1,9,10
 290 493 290 493 314 493 c 0,11,12
 323 493 323 493 342 502 c 0,13,14
 353 507 353 507 359 543 c 1,15,16
 353 595 353 595 351 686 c 1,17,18
 355 738 355 738 417 776 c 0,19,20
 429 783 429 783 476 785 c 0,21,22
 511 786 511 786 523 783 c 0,23,24
 568 771 568 771 583 715 c 0,25,26
 588 698 588 698 594 681 c 0,27,28
 603 648 603 648 604 614 c 0,29,30
 610 474 610 474 610 404 c 0,31,32
 610 256 610 256 559 78 c 0,33,34
 543 23 543 23 471 8 c 0,35,36
 425 -2 425 -2 397 17 c 0,37,38
 359 42 359 42 353 100 c 0,39,40
 351 116 351 116 354.5 157 c 128,-1,41
 358 198 358 198 357 214 c 0,42,43
 351 239 351 239 325 239 c 0,44,45
 300 239 300 239 280.5 220 c 128,-1,46
 261 201 261 201 262 171 c 1,47,48
 267 151 267 151 276 100 c 0,49,50
 281 66 281 66 273 48 c 0,51,52
 261 21 261 21 234 9 c 0,53,54
 216 1 216 1 168 1 c 0,55,56
 122 1 122 1 92 33 c 0,57,58
 67 60 67 60 50 122 c 0,59,60
 30 191 30 191 28 275 c 0,61,62
 25 396 25 396 25 482 c 0,63,64
 25 673 25 673 64 730 c 1,0,-1
EndSplineSet
EndChar

StartChar: uni041E
Encoding: 1054 1054 111
Width: 650
GlyphClass: 2
Flags: W
LayerCount: 2
Fore
SplineSet
593 176 m 1,0,-1
 594 175 l 1,1,2
 568 94 568 94 502.5 47 c 128,-1,3
 437 0 437 0 351 0 c 0,4,5
 192 0 192 0 104 120 c 0,6,7
 29 222 29 222 29 368 c 0,8,9
 29 435 29 435 41 492 c 0,10,11
 96 753 96 753 274 786 c 0,12,13
 290 789 290 789 308 789 c 0,14,15
 388 789 388 789 463.5 736 c 128,-1,16
 539 683 539 683 565 607 c 0,17,18
 621 442 621 442 621 350 c 0,19,20
 621 272 621 272 592 176 c 1,21,-1
 593 176 l 1,0,-1
345 248 m 1,22,-1
 345 249 l 1,23,24
 374 254 374 254 374 360 c 0,25,26
 374 421 374 421 363 472.5 c 128,-1,27
 352 524 352 524 339 526 c 0,28,29
 317 532 317 532 299 478 c 128,-1,30
 281 424 281 424 281 359 c 0,31,32
 281 238 281 238 345 248 c 1,22,-1
EndSplineSet
EndChar

StartChar: uni041F
Encoding: 1055 1055 112
Width: 667
GlyphClass: 2
Flags: W
LayerCount: 2
Fore
SplineSet
206 37 m 0,0,1
 159 35 159 35 158 35 c 0,2,3
 140 39 140 39 119 56 c 0,4,5
 87 82 87 82 72 104 c 0,6,7
 52 134 52 134 46 163 c 0,8,9
 45 167 45 167 43 295 c 0,10,11
 38 479 38 479 38 508 c 0,12,13
 38 573 38 573 43 621 c 0,14,15
 49 677 49 677 58 700 c 0,16,17
 70 731 70 731 95 753 c 0,18,19
 116 772 116 772 171 801 c 1,20,-1
 189 803 l 1,21,-1
 220 806 l 2,22,23
 225 807 225 807 248 808 c 0,24,25
 272 809 272 809 278 809 c 2,26,-1
 376 809 l 1,27,-1
 410 810 l 2,28,29
 434 808 434 808 472 801 c 0,30,31
 522 792 522 792 526 789 c 0,32,33
 591 733 591 733 605 686 c 0,34,35
 617 645 617 645 631 433 c 0,36,37
 632 408 632 408 628 327 c 0,38,39
 628 324 628 324 621 214 c 1,40,-1
 621 215 l 1,41,-1
 615 156 l 2,42,43
 612 126 612 126 610 121 c 0,44,45
 582 53 582 53 568 40 c 0,46,47
 546 21 546 21 489 13 c 0,48,49
 464 10 464 10 440 22 c 0,50,51
 432 26 432 26 422 48 c 0,52,53
 414 65 414 65 412 83 c 0,54,55
 410 106 410 106 408 129 c 2,56,-1
 413 270 l 2,57,58
 412 316 412 316 413 363 c 0,59,60
 417 458 417 458 417 458 c 1,61,62
 425 514 425 514 411 531 c 0,63,64
 401 544 401 544 343 543 c 128,-1,65
 285 542 285 542 277 531 c 0,66,67
 249 490 249 490 243 423 c 1,68,-1
 245 287 l 2,69,70
 251 129 251 129 251 128 c 0,71,72
 249 112 249 112 238 82 c 0,73,74
 230 61 230 61 222 50 c 0,75,76
 214 38 214 38 206 37 c 0,0,1
EndSplineSet
EndChar

StartChar: uni0420
Encoding: 1056 1056 113
Width: 572
GlyphClass: 2
Flags: W
LayerCount: 2
Fore
SplineSet
530 680 m 1,0,-1
 529 679 l 1,1,2
 582 597 582 597 582 511 c 0,3,4
 582 418 582 418 521 337 c 0,5,6
 470 269 470 269 297 242 c 1,7,8
 295 223 295 223 301 181 c 0,9,10
 309 136 309 136 309 130 c 0,11,12
 309 94 309 94 289 52 c 0,13,14
 279 31 279 31 247.5 17 c 128,-1,15
 216 3 216 3 177 3 c 0,16,17
 119 3 119 3 84.5 34.5 c 128,-1,18
 50 66 50 66 47 122 c 1,19,20
 24 220 24 220 25 328 c 2,21,-1
 25 542 l 2,22,23
 25 551 25 551 29 616 c 0,24,25
 33 675 33 675 49 715 c 0,26,27
 70 767 70 767 109 777 c 0,28,29
 199 800 199 800 272 800 c 0,30,31
 449 800 449 800 529 680 c 1,32,-1
 530 680 l 1,0,-1
337 499 m 1,33,34
 349 523 349 523 349 545 c 0,35,36
 349 601 349 601 276 607 c 1,37,38
 271 565 271 565 271 543 c 0,39,40
 271 512 271 512 272 497 c 0,41,42
 274 474 274 474 277 430 c 1,43,44
 286 438 286 438 300 453 c 0,45,46
 326 479 326 479 336 500 c 1,47,-1
 337 499 l 1,33,34
EndSplineSet
EndChar

StartChar: uni0421
Encoding: 1057 1057 114
Width: 582
GlyphClass: 2
Flags: W
LayerCount: 2
Fore
SplineSet
552 257 m 2,0,-1
 552 256 l 2,1,2
 552 251 552 251 552 242 c 0,3,4
 553 232 553 232 553 228 c 0,5,6
 553 82 553 82 442 30 c 0,7,8
 380 1 380 1 309 1 c 0,9,10
 214 1 214 1 154 54 c 0,11,12
 28 165 28 165 29 366 c 0,13,14
 29 454 29 454 50 566 c 0,15,16
 66 652 66 652 119 725 c 0,17,18
 145 761 145 761 194.5 783.5 c 128,-1,19
 244 806 244 806 301 806 c 0,20,21
 367 806 367 806 424.5 771.5 c 128,-1,22
 482 737 482 737 514 679 c 0,23,24
 533 644 533 644 534 601 c 0,25,26
 535 560 535 560 514 526 c 0,27,28
 486 480 486 480 442 475 c 0,29,30
 372 468 372 468 318 538 c 0,31,32
 317 541 317 541 314 562 c 0,33,34
 312 578 312 578 299 577 c 1,35,-1
 289 559 l 1,36,37
 279 347 279 347 279 342 c 0,38,39
 279 313 279 313 281 285 c 128,-1,40
 283 257 283 257 305 248 c 1,41,42
 328 249 328 249 384.5 299 c 128,-1,43
 441 349 441 349 462 349 c 0,44,45
 478 349 478 349 495 342 c 0,46,47
 552 325 552 325 552 257 c 2,0,-1
EndSplineSet
EndChar

StartChar: uni0422
Encoding: 1058 1058 115
Width: 599
GlyphClass: 2
Flags: W
LayerCount: 2
Fore
SplineSet
241 583 m 1024,0,-1
582 664 m 1,1,-1
 583 664 l 1,2,3
 586 649 586 649 586 625 c 0,4,5
 585 575 585 575 562 549 c 0,6,7
 553 539 553 539 481.5 525.5 c 128,-1,8
 410 512 410 512 408 508 c 0,9,10
 406 497 406 497 431 299 c 0,11,12
 436 259 436 259 436 219 c 0,13,14
 436 128 436 128 412 69 c 0,15,16
 382 -5 382 -5 324 -3 c 0,17,18
 230 0 230 0 193 56 c 0,19,20
 165 98 165 98 164 189 c 1,21,22
 164 181 164 181 168 294 c 2,23,-1
 173 422 l 2,24,25
 177 482 177 482 186 526 c 1,26,27
 180 524 180 524 168 524 c 0,28,29
 134 524 134 524 100 535 c 0,30,31
 54 550 54 550 37 579 c 0,32,33
 13 620 13 620 13 656 c 0,34,35
 13 716 13 716 79 749 c 0,36,37
 164 792 164 792 284 792 c 0,38,39
 347 792 347 792 416 780 c 1,40,41
 449 768 449 768 516 743 c 1,42,43
 572 714 572 714 582 664 c 1,1,-1
EndSplineSet
EndChar

StartChar: uni0423
Encoding: 1059 1059 116
Width: 597
GlyphClass: 2
Flags: W
LayerCount: 2
Fore
SplineSet
71 770 m 1,0,-1
 72 770 l 1,1,-1
 98 780 l 1,2,-1
 126 783 l 1,3,-1
 179 771 l 1,4,-1
 215 734 l 1,5,-1
 236 700 l 1,6,-1
 257 646 l 1,7,-1
 278 581 l 1,8,-1
 287 555 l 1,9,-1
 335 710 l 1,10,-1
 390 801 l 1,11,-1
 419 809 l 1,12,-1
 449 812 l 1,13,-1
 491 806 l 1,14,-1
 524 787 l 1,15,-1
 564 741 l 1,16,-1
 577 672 l 1,17,-1
 556 617 l 1,18,-1
 526 493 l 1,19,-1
 512 428 l 1,20,-1
 497 364 l 1,21,-1
 473 280 l 1,22,-1
 455 204 l 1,23,-1
 434 133 l 1,24,-1
 418 78 l 1,25,-1
 383 27 l 1,26,-1
 331 -2 l 1,27,-1
 322 -4 l 1,28,-1
 308 -4 l 1,29,-1
 240 12 l 1,30,-1
 197 59 l 1,31,-1
 186 105 l 1,32,-1
 183 164 l 1,33,-1
 199 230 l 1,34,-1
 215 300 l 1,35,-1
 165 356 l 1,36,-1
 109 426 l 1,37,-1
 41 548 l 1,38,-1
 20 674 l 1,39,-1
 33 733 l 1,40,-1
 71 770 l 1,0,-1
EndSplineSet
EndChar

StartChar: uni0424
Encoding: 1060 1060 117
Width: 850
GlyphClass: 2
Flags: W
LayerCount: 2
Fore
SplineSet
253 0 m 1,0,1
 131 89 131 89 131 89 c 1,2,3
 31 200 31 200 31 359 c 0,4,5
 31 433 31 433 47 495 c 0,6,7
 122 783 122 783 359 815 c 0,8,9
 380 818 380 818 404 818 c 0,10,11
 507 820 507 820 612 761 c 0,12,13
 713 703 713 703 748 620 c 0,14,15
 823 440 823 440 823 340 c 0,16,17
 823 255 823 255 784 150 c 1,18,19
 784 150 784 150 785 150 c 2,20,-1
 787 149 l 1,21,22
 750 57 750 57 664 10 c 0,23,24
 571 -42 571 -42 536 -46 c 1,25,26
 536 -160 536 -160 509 -186 c 0,27,28
 416 -276 416 -276 346 -177 c 0,29,30
 315 -134 315 -134 312 -71 c 1,31,32
 312 -71 312 -71 314 -28 c 1,33,-1
 253 0 l 1,0,1
530 152 m 1,34,35
 579 159 579 159 580 163 c 0,36,37
 590 201 590 201 617 226 c 0,38,39
 667 272 667 272 673 337 c 0,40,41
 680 412 680 412 617 527 c 0,42,43
 583 591 583 591 556 609 c 1,44,45
 556 609 556 609 542 386 c 1,46,-1
 534 207 l 1,47,-1
 530 152 l 1,34,35
346 163 m 1,48,49
 345 263 345 263 345 263 c 1,50,-1
 347 455 l 1,51,-1
 351 610 l 1,52,53
 352 604 352 604 294 536 c 0,54,55
 234 469 234 469 203 336 c 0,56,57
 174 213 174 213 332 167 c 0,58,59
 339 165 339 165 346 163 c 1,48,49
536 -46 m 1024,60,61
EndSplineSet
EndChar

StartChar: uni0425
Encoding: 1061 1061 118
Width: 626
GlyphClass: 2
Flags: W
LayerCount: 2
Fore
SplineSet
591 590 m 1,0,-1
 590 591 l 1,1,2
 598 626 598 626 597 651 c 0,3,4
 595 729 595 729 525 782 c 0,5,6
 489 809 489 809 460 809 c 0,7,8
 367 809 367 809 348 683 c 0,9,10
 343 646 343 646 333 573 c 1,11,12
 328 571 328 571 318 576 c 1,13,14
 320 590 320 590 320 597 c 0,15,16
 320 641 320 641 296.5 695.5 c 128,-1,17
 273 750 273 750 242 774 c 1,18,19
 209 788 209 788 174 788 c 0,20,21
 128 788 128 788 104 763 c 0,22,23
 66 724 66 724 66 655 c 0,24,25
 66 607 66 607 84 528 c 0,26,27
 88 510 88 510 127 458 c 0,28,29
 163 409 163 409 162 386 c 1,30,31
 133 346 133 346 76 267 c 0,32,33
 29 198 29 198 28 134 c 0,34,35
 27 71 27 71 70 29 c 0,36,37
 97 3 97 3 142 3 c 0,38,39
 174 3 174 3 212 16 c 0,40,41
 247 32 247 32 259 72 c 0,42,43
 277 131 277 131 296 157 c 0,44,45
 305 169 305 169 311 158 c 1,46,47
 312 69 312 69 363 23 c 1,48,49
 406 -2 406 -2 456 -2 c 0,50,51
 492 -2 492 -2 519 12 c 0,52,53
 572 40 572 40 571 123 c 0,54,55
 571 158 571 158 565 190 c 0,56,57
 558 229 558 229 504 290 c 0,58,59
 460 340 460 340 464 386 c 0,60,61
 468 393 468 393 535 485 c 0,62,63
 581 549 581 549 591 590 c 1,0,-1
EndSplineSet
EndChar

StartChar: uni0426
Encoding: 1062 1062 119
Width: 694
GlyphClass: 2
Flags: W
LayerCount: 2
Fore
SplineSet
33 347 m 0,0,1
 39 445 39 445 51 544 c 0,2,3
 61 630 61 630 64 650 c 0,4,5
 72 707 72 707 83 737 c 1,6,7
 119 795 119 795 165 794 c 0,8,9
 208 793 208 793 240.5 768.5 c 128,-1,10
 273 744 273 744 293 690 c 1,11,12
 290 635 290 635 290 635 c 1,13,14
 278 506 278 506 278 506 c 2,15,16
 273 440 273 440 267 386 c 0,17,18
 264 357 264 357 298 319 c 0,19,20
 313 301 313 301 333 316 c 0,21,22
 338 320 338 320 349 358 c 0,23,24
 351 364 351 364 351 377 c 0,25,26
 350 445 350 445 354 552 c 1,27,28
 364 638 364 638 367 658 c 0,29,30
 375 715 375 715 386 745 c 1,31,32
 422 803 422 803 468 802 c 0,33,34
 511 801 511 801 547 769 c 128,-1,35
 583 737 583 737 603 683 c 1,36,37
 604 684 604 684 604 684 c 1,38,39
 630 621 630 621 622 575 c 0,40,41
 573 293 573 293 573 261 c 0,42,43
 573 206 573 206 572 194 c 0,44,45
 568 146 568 146 654 77 c 0,46,47
 704 36 704 36 646 -116 c 0,48,49
 600 -236 600 -236 511 -177 c 0,50,51
 422 -117 422 -117 435 -60 c 0,52,53
 455 27 455 27 373 6 c 0,54,55
 130 -55 130 -55 61 135 c 0,56,57
 26 231 26 231 33 347 c 0,0,1
EndSplineSet
EndChar

StartChar: uni0427
Encoding: 1063 1063 120
Width: 636
GlyphClass: 2
Flags: W
LayerCount: 2
Fore
SplineSet
84 338 m 1,0,-1
 41 421 l 1,1,-1
 38 488 l 1,2,-1
 38 641 l 1,3,-1
 49 708 l 1,4,-1
 64 730 l 1,5,-1
 63 730 l 1,6,-1
 99 754 l 1,7,-1
 113 763 l 1,8,-1
 142 771 l 1,9,-1
 174 774 l 1,10,-1
 222 770 l 1,11,-1
 244 765 l 1,12,-1
 256 759 l 1,13,-1
 268 744 l 1,14,-1
 278 722 l 1,15,-1
 285 695 l 1,16,-1
 287 668 l 1,17,-1
 282 611 l 1,18,-1
 279 559 l 1,19,-1
 278 537 l 1,20,-1
 282 520 l 1,21,-1
 293 504 l 1,22,-1
 303 496 l 1,23,-1
 314 493 l 1,24,-1
 326 495 l 1,25,-1
 337 499 l 1,26,-1
 342 502 l 1,27,-1
 348 507 l 1,28,-1
 352 515 l 1,29,-1
 357 530 l 1,30,-1
 359 543 l 1,31,-1
 354 605 l 1,32,-1
 351 661 l 1,33,-1
 351 686 l 1,34,-1
 357 713 l 1,35,-1
 370 736 l 1,36,-1
 387 754 l 1,37,-1
 417 776 l 1,38,-1
 424 779 l 1,39,-1
 438 782 l 1,40,-1
 458 784 l 1,41,-1
 476 785 l 1,42,-1
 505 785 l 1,43,-1
 523 783 l 1,44,-1
 546 771 l 1,45,-1
 560 760 l 1,46,-1
 568 746 l 1,47,-1
 583 715 l 1,48,-1
 587 705 l 1,49,-1
 588 698 l 1,50,-1
 594 681 l 1,51,-1
 599 664 l 1,52,-1
 601 652 l 1,53,-1
 603 635 l 1,54,-1
 604 614 l 1,55,-1
 607 520 l 1,56,-1
 608 460 l 1,57,-1
 610 404 l 1,58,-1
 608 249 l 1,59,-1
 560 43 l 1,60,-1
 548 18 l 1,61,-1
 530 -2 l 1,62,-1
 507 -15 l 1,63,-1
 472 -27 l 1,64,-1
 456 -29 l 1,65,-1
 428 -30 l 1,66,-1
 395 -24 l 1,67,-1
 359 -7 l 1,68,-1
 329 13 l 1,69,-1
 314 27 l 1,70,-1
 310 44 l 1,71,-1
 308 74 l 1,72,-1
 311 146 l 1,73,-1
 326 214 l 1,74,-1
 323 245 l 1,75,-1
 314 266 l 1,76,-1
 294 280 l 1,77,-1
 261 291 l 1,78,-1
 219 298 l 1,79,-1
 171 301 l 1,80,-1
 84 338 l 1,0,-1
EndSplineSet
EndChar

StartChar: uni0428
Encoding: 1064 1064 121
Width: 922
GlyphClass: 2
Flags: W
LayerCount: 2
Fore
SplineSet
569 500 m 2,0,1
 569 500 569 500 581 629 c 1,2,3
 581 629 581 629 584 684 c 1,4,5
 564 738 564 738 531.5 762.5 c 128,-1,6
 499 787 499 787 456 788 c 0,7,8
 410 789 410 789 374 731 c 1,9,10
 363 701 363 701 355 644 c 0,11,12
 352 624 352 624 342 538 c 1,13,14
 338 431 338 431 339 363 c 1,15,16
 322 272 322 272 287 294 c 0,17,18
 258 312 258 312 254 328 c 128,-1,19
 250 344 250 344 250 381 c 0,20,21
 250 412 250 412 268 520 c 128,-1,22
 286 628 286 628 286 661 c 0,23,24
 286 688 286 688 283 712 c 1,25,26
 268 743 268 743 236.5 762.5 c 128,-1,27
 205 782 205 782 173 779 c 0,28,29
 136 775 136 775 99.5 746 c 128,-1,30
 63 717 63 717 52 680 c 0,31,32
 17 560 17 560 17 380 c 0,33,34
 17 260 17 260 39 192 c 0,35,36
 68 102 68 102 140 53 c 0,37,38
 219 -1 219 -1 308 -1 c 0,39,40
 486 -1 486 -1 664 0 c 1,41,42
 690 -7 690 -7 760 58 c 0,43,44
 808 101 808 101 826 149 c 0,45,46
 899 344 899 344 899 573 c 0,47,48
 899 631 899 631 895 678 c 1,49,50
 895 678 895 678 894 677 c 1,51,52
 874 731 874 731 838 763 c 128,-1,53
 802 795 802 795 759 796 c 0,54,55
 713 797 713 797 677 739 c 1,56,57
 666 709 666 709 658 652 c 0,58,59
 655 632 655 632 645 546 c 1,60,61
 641 439 641 439 642 371 c 0,62,63
 642 359 642 359 640 352 c 0,64,65
 629 314 629 314 624 310 c 0,66,67
 604 295 604 295 588 313 c 0,68,69
 555 351 555 351 558 380 c 0,70,71
 564 434 564 434 569 500 c 2,0,1
EndSplineSet
EndChar

StartChar: uni0429
Encoding: 1065 1065 122
Width: 994
GlyphClass: 2
Flags: W
LayerCount: 2
Fore
SplineSet
865 256 m 0,0,1
 865 276 865 276 914 570 c 0,2,3
 922 616 922 616 896 679 c 1,4,5
 896 679 896 679 895 678 c 1,6,7
 875 732 875 732 839 764 c 128,-1,8
 803 796 803 796 760 797 c 0,9,10
 714 798 714 798 678 740 c 1,11,12
 667 710 667 710 659 653 c 0,13,14
 656 633 656 633 646 547 c 1,15,16
 642 440 642 440 643 372 c 0,17,18
 643 360 643 360 641 353 c 0,19,20
 630 315 630 315 625 311 c 0,21,22
 605 296 605 296 590 314 c 0,23,24
 556 352 556 352 559 381 c 0,25,26
 565 435 565 435 570 501 c 2,27,28
 570 501 570 501 582 630 c 1,29,30
 582 630 582 630 585 685 c 1,31,32
 565 739 565 739 532.5 763.5 c 128,-1,33
 500 788 500 788 457 789 c 0,34,35
 411 790 411 790 375 732 c 1,36,37
 364 702 364 702 356 645 c 0,38,39
 353 625 353 625 343 539 c 1,40,41
 339 432 339 432 340 364 c 1,42,43
 323 273 323 273 288 295 c 0,44,45
 259 313 259 313 255 329 c 128,-1,46
 251 345 251 345 251 382 c 0,47,48
 251 413 251 413 269 521 c 128,-1,49
 287 629 287 629 287 662 c 0,50,51
 287 689 287 689 284 713 c 1,52,53
 269 744 269 744 237.5 763.5 c 128,-1,54
 206 783 206 783 174 780 c 0,55,56
 137 776 137 776 100.5 747 c 128,-1,57
 64 718 64 718 53 681 c 0,58,59
 18 561 18 561 18 381 c 0,60,61
 18 261 18 261 40 193 c 0,62,63
 69 103 69 103 141 54 c 0,64,65
 220 0 220 0 309 0 c 0,66,67
 661 2 661 2 665 1 c 0,68,69
 739 -17 739 -17 727 -65 c 0,70,71
 714 -122 714 -122 803 -182 c 0,72,73
 892 -241 892 -241 938 -121 c 0,74,75
 996 31 996 31 946 72 c 0,76,77
 860 141 860 141 864 189 c 0,78,79
 865 201 865 201 865 256 c 0,0,1
EndSplineSet
EndChar

StartChar: uni042A
Encoding: 1066 1066 123
Width: 772
GlyphClass: 2
Flags: W
LayerCount: 2
Fore
SplineSet
214 554 m 1,0,1
 198 490 198 490 198 458 c 1,2,3
 189 404 189 404 198 244 c 0,4,5
 198 235 198 235 202 170 c 0,6,7
 206 111 206 111 222 71 c 0,8,9
 243 19 243 19 282 9 c 0,10,11
 372 -14 372 -14 445 -14 c 0,12,13
 622 -14 622 -14 702 106 c 1,14,15
 702 106 702 106 703 106 c 1,16,-1
 702 107 l 1,17,18
 755 189 755 189 755 275 c 0,19,20
 755 368 755 368 694 449 c 0,21,22
 643 517 643 517 470 544 c 1,23,24
 467 568 467 568 474 605 c 0,25,26
 482 650 482 650 482 656 c 0,27,28
 482 692 482 692 462 734 c 0,29,30
 448 762 448 762 420 769 c 0,31,32
 389 777 389 777 350 783 c 0,33,34
 233 805 233 805 134 782 c 0,35,36
 71 767 71 767 44 733 c 0,37,38
 -61 597 -61 597 149 565 c 1,39,40
 149 565 149 565 182 562 c 1,41,-1
 214 554 l 1,0,1
510 287 m 1,42,43
 522 263 522 263 522 241 c 0,44,45
 522 185 522 185 449 179 c 1,46,47
 444 221 444 221 444 243 c 0,48,49
 444 274 444 274 445 289 c 0,50,51
 447 312 447 312 450 356 c 1,52,53
 459 348 459 348 473 333 c 0,54,55
 499 307 499 307 509 286 c 1,56,-1
 510 287 l 1,42,43
EndSplineSet
EndChar

StartChar: uni042B
Encoding: 1067 1067 124
Width: 842
GlyphClass: 2
Flags: W
LayerCount: 2
Fore
SplineSet
799 672 m 1,0,1
 799 629 799 629 801 567 c 128,-1,2
 803 505 803 505 803 488 c 0,3,4
 804 281 804 281 776 118 c 0,5,6
 758 12 758 12 684 -9 c 1,7,8
 662 -11 662 -11 654 -11 c 0,9,10
 553 -11 553 -11 540 86 c 0,11,12
 517 254 517 254 518 388 c 0,13,14
 519 531 519 531 539 640 c 1,15,-1
 566 710 l 1,16,17
 618 789 618 789 714 789 c 0,18,19
 736 789 736 789 753 784 c 0,20,21
 781 771 781 771 790 735 c 2,22,-1
 799 672 l 1,0,1
453 102 m 1,23,-1
 452 103 l 1,24,25
 495 188 495 188 495 278 c 0,26,27
 495 375 495 375 445 460 c 0,28,29
 404 531 404 531 262 559 c 1,30,31
 260 579 260 579 265 623 c 0,32,33
 272 670 272 670 272 676 c 0,34,35
 272 714 272 714 255 758 c 0,36,37
 247 780 247 780 221.5 794.5 c 128,-1,38
 196 809 196 809 164 809 c 0,39,40
 116 809 116 809 88 776 c 128,-1,41
 60 743 60 743 57 685 c 1,42,43
 38 582 38 582 39 469 c 2,44,-1
 39 246 l 2,45,46
 39 236 39 236 42 168 c 0,47,48
 46 107 46 107 59 65 c 0,49,50
 76 11 76 11 108 0 c 0,51,52
 182 -24 182 -24 241 -24 c 0,53,54
 386 -24 386 -24 452 102 c 1,55,-1
 453 102 l 1,23,-1
295 291 m 1,56,57
 304 266 304 266 304 243 c 0,58,59
 304 184 304 184 245 178 c 1,60,61
 241 222 241 222 241 245 c 0,62,63
 241 277 241 277 241 293 c 0,64,65
 243 317 243 317 246 363 c 1,66,67
 253 354 253 354 264 339 c 0,68,69
 286 312 286 312 294 290 c 1,70,-1
 295 291 l 1,56,57
EndSplineSet
EndChar

StartChar: uni042C
Encoding: 1068 1068 125
Width: 596
GlyphClass: 2
Flags: W
LayerCount: 2
Fore
SplineSet
527 106 m 1,0,-1
 526 107 l 1,1,2
 579 189 579 189 579 275 c 0,3,4
 579 368 579 368 518 449 c 0,5,6
 467 517 467 517 294 544 c 1,7,8
 292 563 292 563 298 605 c 0,9,10
 306 650 306 650 306 656 c 0,11,12
 306 692 306 692 286 734 c 0,13,14
 276 755 276 755 244.5 769 c 128,-1,15
 213 783 213 783 174 783 c 0,16,17
 116 783 116 783 81.5 751.5 c 128,-1,18
 47 720 47 720 44 664 c 1,19,20
 21 566 21 566 22 458 c 2,21,-1
 22 244 l 2,22,23
 22 235 22 235 26 170 c 0,24,25
 30 111 30 111 46 71 c 0,26,27
 67 19 67 19 106 9 c 0,28,29
 196 -14 196 -14 269 -14 c 0,30,31
 446 -14 446 -14 526 106 c 1,32,-1
 527 106 l 1,0,-1
334 287 m 1,33,34
 346 263 346 263 346 241 c 0,35,36
 346 185 346 185 273 179 c 1,37,38
 268 221 268 221 268 243 c 0,39,40
 268 274 268 274 269 289 c 0,41,42
 271 312 271 312 274 356 c 1,43,44
 283 348 283 348 297 333 c 0,45,46
 323 307 323 307 333 286 c 1,47,-1
 334 287 l 1,33,34
EndSplineSet
EndChar

StartChar: uni042D
Encoding: 1069 1069 126
Width: 620
GlyphClass: 2
Flags: W
LayerCount: 2
Fore
SplineSet
579 285 m 0,0,1
 571 240 571 240 557 201 c 0,2,3
 540 159 540 159 491 87 c 1,4,5
 438 34 438 34 371 18 c 0,6,7
 322 6 322 6 275 6 c 0,8,9
 157 6 157 6 102 75 c 0,10,11
 67 119 67 119 68 177 c 0,12,13
 69 208 69 208 77 233 c 1,14,15
 88 253 88 253 94 260 c 0,16,17
 104 274 104 274 115 277.5 c 128,-1,18
 126 281 126 281 137 281 c 0,19,20
 149 281 149 281 187 271 c 128,-1,21
 225 261 225 261 235 261 c 0,22,23
 268 261 268 261 272 301 c 1,24,25
 263 330 263 330 233 335 c 0,26,27
 214 338 214 338 176 346 c 1,28,29
 149 356 149 356 144 388 c 0,30,31
 140 412 140 412 140 415 c 0,32,33
 140 446 140 446 157 463 c 0,34,35
 165 471 165 471 222 490 c 0,36,37
 265 504 265 504 267 534 c 1,38,39
 262 554 262 554 239 562 c 1,40,41
 220 563 220 563 182.5 550 c 128,-1,42
 145 537 145 537 141 537 c 0,43,44
 110 537 110 537 81 566.5 c 128,-1,45
 52 596 52 596 52 631 c 0,46,47
 52 709 52 709 168 772 c 0,48,49
 217 799 217 799 284 799 c 0,50,51
 384 799 384 799 460 745 c 0,52,53
 550 681 550 681 565 606 c 0,54,55
 602 416 602 416 579 285 c 0,0,1
EndSplineSet
EndChar

StartChar: uni042E
Encoding: 1070 1070 127
Width: 898
GlyphClass: 2
Flags: W
LayerCount: 2
Fore
SplineSet
599 261 m 0,0,1
 535 251 535 251 535 372 c 0,2,3
 535 437 535 437 553 491 c 128,-1,4
 571 545 571 545 593 539 c 0,5,6
 606 537 606 537 617 485.5 c 128,-1,7
 628 434 628 434 628 373 c 0,8,9
 628 267 628 267 599 262 c 1,10,11
 599 262 599 262 599 261 c 0,0,1
358 133 m 0,12,13
 445 14 445 14 605 13 c 0,14,15
 691 12 691 12 756 60 c 0,16,17
 822 106 822 106 848 188 c 1,18,19
 848 188 848 188 847 189 c 2,20,-1
 846 189 l 1,21,22
 875 284 875 284 875 363 c 0,23,24
 875 454 875 454 819 620 c 0,25,26
 793 696 793 696 718 749 c 0,27,28
 646 800 646 800 562 802 c 0,29,30
 544 802 544 802 528 799 c 1,31,32
 386 727 386 727 295 505 c 0,33,34
 288 488 288 488 270 544 c 1,35,36
 273 626 273 626 279 674 c 1,37,38
 277 736 277 736 248 766 c 1,39,40
 222 780 222 780 166 780 c 0,41,42
 99 780 99 780 55 736 c 1,43,44
 55 736 55 736 56 736 c 1,45,46
 17 680 17 680 17 488 c 0,47,48
 17 402 17 402 20 282 c 0,49,50
 22 202 22 202 42 128 c 0,51,52
 59 66 59 66 84 40 c 0,53,54
 114 8 114 8 160 8 c 0,55,56
 208 8 208 8 226 16 c 0,57,58
 274 36 274 36 265 54 c 0,59,60
 261 62 261 62 268 106 c 0,61,62
 272 132 272 132 276 158 c 1,63,64
 309 202 309 202 358 133 c 0,12,13
EndSplineSet
EndChar

StartChar: uni042F
Encoding: 1071 1071 128
Width: 634
GlyphClass: 2
Flags: W
LayerCount: 2
Fore
SplineSet
32 118 m 1,0,-1
 33 118 l 1,1,2
 47 88 47 88 80 57 c 0,3,4
 123 18 123 18 167 13 c 0,5,6
 252 4 252 4 341 186 c 1,7,8
 338 160 338 160 338 141 c 0,9,10
 338 79 338 79 368 43 c 1,11,12
 414 11 414 11 460 11 c 0,13,14
 480 11 480 11 496 15 c 0,15,16
 555 30 555 30 573 53 c 0,17,18
 597 83 597 83 597 161 c 2,19,-1
 597 201 l 2,20,21
 600 204 600 204 595 380 c 0,22,23
 589 579 589 579 572 683 c 0,24,25
 559 758 559 758 466 786 c 0,26,27
 422 799 422 799 293 812 c 1,28,29
 140 807 140 807 83 710 c 1,30,31
 40 613 40 613 41 532 c 0,32,33
 42 449 42 449 86 393 c 0,34,35
 93 384 93 384 143 340 c 1,36,37
 30 218 30 218 30 136 c 0,38,39
 30 130 30 130 32 118 c 1,0,-1
318 584 m 1,40,-1
 319 584 l 2,41,42
 325 586 325 586 329 586 c 256,43,44
 333 586 333 586 360 572 c 0,45,46
 364 568 364 568 363 521 c 0,47,48
 362 466 362 466 362 417 c 1,49,50
 324 430 324 430 297.5 454.5 c 128,-1,51
 271 479 271 479 271 506 c 0,52,53
 271 543 271 543 318 584 c 1,40,-1
EndSplineSet
EndChar

StartChar: uni0430
Encoding: 1072 1072 129
Width: 656
GlyphClass: 2
Flags: W
LayerCount: 2
Fore
SplineSet
609 88 m 1,0,-1
 609 87 l 1,1,2
 600 39 600 39 550 27 c 0,3,4
 525 21 525 21 498 21 c 0,5,6
 449 21 449 21 418 44 c 1,7,8
 396 73 396 73 392 82 c 0,9,10
 379 108 379 108 379 149 c 1,11,12
 339 151 339 151 288 145 c 1,13,14
 290 136 290 136 292 118 c 0,15,16
 292 77 292 77 269 33 c 1,17,18
 240 -8 240 -8 184 -8 c 0,19,20
 157 -8 157 -8 117 2 c 1,21,-1
 115 4 l 1,22,23
 30 46 30 46 30 213 c 0,24,25
 30 224 30 224 32 265 c 0,26,27
 40 422 40 422 61 511 c 0,28,29
 91 637 91 637 167 737 c 0,30,31
 226 814 226 814 338 814 c 0,32,33
 458 814 458 814 519 739 c 0,34,35
 555 695 555 695 570 636 c 0,36,37
 625 425 625 425 625 265 c 0,38,39
 625 171 625 171 609 88 c 1,0,-1
356 350 m 0,40,41
 363 431 363 431 346 603 c 1,42,43
 339 610 339 610 325 598 c 1,44,45
 312 513 312 513 306 460 c 0,46,47
 296 367 296 367 299 354 c 0,48,49
 304 343 304 343 316 343 c 0,50,51
 320 343 320 343 336.5 346.5 c 128,-1,52
 353 350 353 350 356 350 c 0,40,41
EndSplineSet
EndChar

StartChar: uni0431
Encoding: 1073 1073 130
Width: 572
GlyphClass: 2
Flags: W
LayerCount: 2
Fore
SplineSet
401 809 m 0,0,1
 479 809 479 809 493 770 c 0,2,3
 499 754 499 754 499 734 c 0,4,5
 499 691 499 691 467 664 c 128,-1,6
 435 637 435 637 378 637 c 0,7,8
 338 637 338 637 297 635 c 1,9,10
 297 635 297 635 297 570 c 1,11,12
 470 543 470 543 521 475 c 0,13,14
 582 394 582 394 582 301 c 0,15,16
 582 215 582 215 529 133 c 1,17,18
 529 133 529 133 530 132 c 1,19,-1
 529 132 l 1,20,21
 449 12 449 12 272 12 c 0,22,23
 199 12 199 12 109 35 c 0,24,25
 70 45 70 45 49 97 c 0,26,27
 33 137 33 137 29 196 c 0,28,29
 25 261 25 261 25 270 c 0,30,31
 17 412 17 412 25 484 c 1,32,33
 25 597 25 597 47 690 c 1,34,35
 50 746 50 746 84.5 777.5 c 128,-1,36
 119 809 119 809 177 809 c 0,37,38
 289 809 289 809 401 809 c 0,0,1
339 313 m 1,39,40
 339 313 339 313 338 312 c 1,41,42
 328 333 328 333 302 359 c 0,43,44
 288 374 288 374 279 382 c 1,45,46
 276 338 276 338 274 315 c 0,47,48
 273 300 273 300 273 269 c 0,49,50
 273 247 273 247 278 205 c 1,51,52
 359 211 359 211 359 266 c 0,53,54
 359 273 359 273 339 313 c 1,39,40
EndSplineSet
EndChar

StartChar: uni0432
Encoding: 1074 1074 131
Width: 605
GlyphClass: 2
Flags: W
LayerCount: 2
Fore
SplineSet
570 241 m 0,0,1
 561 132 561 132 487 75 c 0,2,3
 448 45 448 45 346 8 c 1,4,5
 301 0 301 0 253 0 c 0,6,7
 112 0 112 0 50 59 c 0,8,9
 35 78 35 78 35 362 c 0,10,11
 35 699 35 699 51 732 c 1,12,13
 121 792 121 792 262 792 c 0,14,15
 303 792 303 792 324 788 c 0,16,17
 434 767 434 767 488 707.5 c 128,-1,18
 542 648 542 648 545 556 c 1,19,20
 537 502 537 502 501 468 c 0,21,22
 485 453 485 453 433 425 c 1,23,24
 498 413 498 413 536.5 359 c 128,-1,25
 575 305 575 305 570 241 c 0,0,1
316 586 m 1,26,-1
 315 585 l 1,27,28
 310 611 310 611 271 611 c 0,29,30
 258 611 258 611 256 609 c 0,31,32
 249 608 249 608 243 596 c 1,33,34
 250 537 250 537 244 464 c 1,35,-1
 288 492 l 1,36,37
 318 544 318 544 318 571 c 0,38,39
 318 576 318 576 316 586 c 1,26,-1
297 247 m 1,40,-1
 297 246 l 1,41,42
 304 269 304 269 304 285 c 0,43,44
 304 331 304 331 273 331 c 0,45,46
 256 331 256 331 240 318 c 1,47,48
 241 305 241 305 237 270 c 0,49,50
 231 228 231 228 231 219 c 0,51,52
 231 213 231 213 233 188 c 1,53,54
 263 192 263 192 279 211 c 0,55,56
 286 220 286 220 297 247 c 1,40,-1
EndSplineSet
EndChar

StartChar: uni0433
Encoding: 1075 1075 132
Width: 474
GlyphClass: 2
Flags: W
LayerCount: 2
Fore
SplineSet
448 647 m 1,0,-1
 447 647 l 1,1,2
 436 733 436 733 384 761 c 1,3,4
 312 790 312 790 238 790 c 0,5,6
 26 790 26 790 26 561 c 0,7,8
 26 502 26 502 26 502 c 2,9,10
 26 491 26 491 27 468 c 0,11,12
 28 450 28 450 28 442 c 0,13,14
 23 240 23 240 45 119 c 1,15,16
 63 68 63 68 86.5 49 c 128,-1,17
 110 30 110 30 159 26 c 0,18,19
 170 25 170 25 183 25 c 0,20,21
 226 25 226 25 245 43 c 0,22,23
 253 51 253 51 275 90 c 1,24,25
 292 156 292 156 292 258 c 0,26,27
 292 321 292 321 280 455 c 0,28,29
 272 548 272 548 278 554 c 1,30,31
 316 535 316 535 372 535 c 0,32,33
 386 535 386 535 392 538 c 0,34,35
 421 548 421 548 435 583 c 0,36,37
 444 606 444 606 448 649 c 1,38,-1
 448 647 l 1,0,-1
EndSplineSet
EndChar

StartChar: uni0434
Encoding: 1076 1076 133
Width: 888
GlyphClass: 2
Flags: W
LayerCount: 2
Fore
SplineSet
742 286 m 1,0,-1
 692 362 l 1,1,-1
 697 438 l 1,2,-1
 701 633 l 1,3,-1
 680 688 l 1,4,-1
 650 736 l 1,5,-1
 574 792 l 1,6,-1
 424 814 l 1,7,-1
 353 777 l 1,8,-1
 281 719 l 1,9,-1
 222 614 l 1,10,-1
 189 506 l 1,11,-1
 171 400 l 1,12,-1
 158 344 l 1,13,-1
 145 316 l 1,14,-1
 113 296 l 1,15,-1
 50 264 l 1,16,-1
 18 176 l 1,17,-1
 29 74 l 1,18,-1
 40 37 l 1,19,-1
 88 -9 l 1,20,-1
 167 -38 l 1,21,-1
 249 -5 l 1,22,-1
 282 19 l 1,23,-1
 300 57 l 1,24,-1
 301 89 l 1,25,-1
 299 113 l 1,26,-1
 361 130 l 1,27,-1
 419 134 l 1,28,-1
 476 131 l 1,29,-1
 548 117 l 1,30,-1
 546 63 l 1,31,-1
 566 17 l 1,32,-1
 600 -20 l 1,33,-1
 655 -34 l 1,34,-1
 754 -38 l 1,35,-1
 804 -19 l 1,36,-1
 848 39 l 1,37,-1
 863 158 l 1,38,-1
 825 241 l 1,39,-1
 742 286 l 1,0,-1
476 340 m 0,40,41
 473 339 473 339 452 336 c 0,42,43
 432 332 432 332 426 332 c 0,44,45
 410 332 410 332 405 344 c 0,46,47
 400 358 400 358 414 460 c 0,48,49
 422 518 422 518 438 610 c 1,50,51
 476 641 476 641 506 614 c 1,52,53
 554 382 554 382 476 340 c 0,40,41
EndSplineSet
EndChar

StartChar: uni0435
Encoding: 1077 1077 134
Width: 513
GlyphClass: 2
Flags: W
LayerCount: 2
Fore
SplineSet
478 486 m 1,0,1
 482 471 482 471 481 455 c 0,2,3
 481 402 481 402 438 366 c 0,4,5
 399 332 399 332 354 337 c 0,6,7
 346 340 346 340 324 338 c 1,8,9
 326 326 326 326 317 274 c 1,10,11
 317 250 317 250 338 238 c 1,12,13
 379 249 379 249 405 238 c 0,14,15
 446 222 446 222 450 184 c 0,16,17
 455 141 455 141 425 96.5 c 128,-1,18
 395 52 395 52 342 22 c 0,19,20
 295 -5 295 -5 231 -5 c 0,21,22
 175 -5 175 -5 130 16 c 0,23,24
 111 25 111 25 73 72 c 1,25,26
 32 140 32 140 31 359 c 0,27,28
 30 485 30 485 52 647 c 0,29,30
 65 741 65 741 106 769 c 1,31,-1
 273 786 l 1,32,33
 316 795 316 795 355 795 c 0,34,35
 433 795 433 795 447 756 c 0,36,37
 453 740 453 740 453 720 c 0,38,39
 453 677 453 677 421 650 c 128,-1,40
 389 623 389 623 332 623 c 0,41,42
 318 623 318 623 310 624 c 1,43,44
 303 609 303 609 302 576 c 0,45,46
 300 534 300 534 299 528 c 0,47,48
 302 514 302 514 320 510 c 1,49,50
 349 533 349 533 393 533 c 0,51,52
 444 533 444 533 478 486 c 1,0,1
EndSplineSet
EndChar

StartChar: uni0436
Encoding: 1078 1078 135
Width: 1052
GlyphClass: 2
Flags: W
LayerCount: 2
Fore
SplineSet
363 500 m 0,0,1
 361 502 361 502 331 606 c 2,2,-1
 302 711 l 1,3,4
 262 770 262 770 214 779 c 0,5,6
 130 795 130 795 69 756 c 0,7,8
 38 736 38 736 26 658 c 0,9,10
 24 641 24 641 45 598 c 0,11,12
 74 539 74 539 93 520 c 0,13,14
 148 466 148 466 179 466 c 1,15,16
 248 421 248 421 241 418 c 0,17,18
 230 414 230 414 209 366 c 0,19,20
 189 319 189 319 163 306 c 0,21,22
 97 273 97 273 89 266 c 0,23,24
 42 226 42 226 39 226 c 0,25,26
 15 215 15 215 31 138 c 0,27,28
 38 105 38 105 69 80 c 0,29,30
 112 46 112 46 151 42 c 0,31,32
 226 35 226 35 267 60 c 0,33,34
 279 68 279 68 309 138 c 1,35,-1
 355 270 l 1,36,37
 405 328 405 328 445 298 c 1,38,-1
 427 216 l 2,39,40
 411 144 411 144 411 142 c 0,41,42
 403 80 403 80 409 70 c 0,43,44
 430 36 430 36 481 26 c 0,45,46
 528 17 528 17 579 38 c 0,47,48
 621 55 621 55 631 88 c 0,49,50
 637 108 637 108 623 180 c 1,51,-1
 599 252 l 1,52,53
 603 302 603 302 632 303 c 0,54,55
 650 304 650 304 696 257 c 0,56,57
 719 234 719 234 729 204 c 1,58,-1
 745 114 l 1,59,60
 759 88 759 88 803 66 c 0,61,62
 861 38 861 38 891 43 c 0,63,64
 963 55 963 55 999 98 c 0,65,66
 1018 119 1018 119 1027 206 c 0,67,68
 1032 248 1032 248 1020 290 c 0,69,70
 1012 318 1012 318 991 332 c 0,71,72
 934 370 934 370 901 370 c 1,73,74
 831 408 831 408 833 418 c 0,75,76
 845 486 845 486 921 486 c 1,77,78
 985 540 985 540 995 556 c 0,79,80
 1002 567 1002 567 1009 628 c 0,81,82
 1016 685 1016 685 1012 695 c 0,83,84
 994 740 994 740 956 762 c 0,85,86
 927 778 927 778 859 783 c 0,87,88
 798 787 798 787 779 774 c 0,89,90
 768 767 768 767 729 692 c 0,91,92
 719 672 719 672 715 651 c 0,93,94
 706 601 706 601 706 563 c 1,95,-1
 696 534 l 1,96,-1
 687 506 l 1,97,98
 678 499 678 499 655 503 c 0,99,100
 625 508 625 508 619 518 c 0,101,102
 600 550 600 550 603 590 c 1,103,-1
 631 662 l 1,104,105
 649 737 649 737 643 754 c 0,106,107
 630 790 630 790 581 802 c 0,108,109
 543 812 543 812 467 798 c 0,110,111
 405 787 405 787 385 766 c 0,112,113
 370 750 370 750 373 700 c 1,114,-1
 395 620 l 2,115,116
 411 556 411 556 411 548 c 0,117,118
 425 500 425 500 429 500 c 1,119,120
 395 466 395 466 363 500 c 0,0,1
EndSplineSet
EndChar

StartChar: uni0437
Encoding: 1079 1079 136
Width: 620
GlyphClass: 2
Flags: W
LayerCount: 2
Fore
SplineSet
476 418 m 1,0,-1
 477 418 l 1,1,2
 473 405 473 405 488 402 c 0,3,4
 509 398 509 398 513 394 c 0,5,6
 565 355 565 355 565 273 c 0,7,8
 565 240 565 240 557 201 c 0,9,10
 544 140 544 140 491 87 c 128,-1,11
 438 34 438 34 371 18 c 0,12,13
 322 6 322 6 275 6 c 0,14,15
 157 6 157 6 102 75 c 0,16,17
 67 119 67 119 68 177 c 0,18,19
 69 208 69 208 77 233 c 1,20,21
 88 253 88 253 94 260 c 0,22,23
 104 274 104 274 115 277.5 c 128,-1,24
 126 281 126 281 137 281 c 0,25,26
 149 281 149 281 187 271 c 128,-1,27
 225 261 225 261 235 261 c 0,28,29
 268 261 268 261 272 301 c 1,30,31
 264 328 264 328 233 335 c 0,32,33
 214 338 214 338 176 346 c 1,34,35
 147 357 147 357 144 388 c 0,36,37
 140 399 140 399 140 415 c 0,38,39
 140 446 140 446 157 463 c 0,40,41
 165 471 165 471 222 490 c 0,42,43
 265 504 265 504 267 534 c 1,44,45
 262 554 262 554 239 562 c 1,46,47
 220 563 220 563 182.5 550 c 128,-1,48
 145 537 145 537 141 537 c 0,49,50
 110 537 110 537 81 566.5 c 128,-1,51
 52 596 52 596 52 631 c 0,52,53
 52 709 52 709 168 772 c 0,54,55
 217 799 217 799 284 799 c 0,56,57
 384 799 384 799 460 745 c 0,58,59
 555 677 555 677 565 606 c 0,60,61
 567 591 567 591 567 575 c 0,62,63
 567 466 567 466 476 418 c 1,0,-1
EndSplineSet
EndChar

StartChar: uni0438
Encoding: 1080 1080 137
Width: 667
GlyphClass: 2
Flags: W
LayerCount: 2
Fore
SplineSet
621 215 m 1,0,-1
 621 214 l 1,1,2
 631 330 631 330 631 433 c 0,3,4
 631 750 631 750 526 789 c 0,5,6
 510 795 510 795 489 795 c 0,7,8
 464 795 464 795 424 785 c 1,9,10
 374 757 374 757 271 464 c 1,11,12
 289 541 289 541 289 616 c 0,13,14
 289 699 289 699 265 748 c 0,15,16
 254 771 254 771 225.5 787.5 c 128,-1,17
 197 804 197 804 171 801 c 0,18,19
 88 793 88 793 58 700 c 0,20,21
 38 638 38 638 38 508 c 0,22,23
 38 255 38 255 59 168 c 0,24,25
 75 103 75 103 132 61 c 0,26,27
 165 37 165 37 206 37 c 0,28,29
 228 37 228 37 250 44 c 1,30,31
 308 75 308 75 364 229 c 0,32,33
 387 291 387 291 407 376 c 1,34,35
 397 310 397 310 390 260 c 0,36,37
 378 172 378 172 378 131 c 0,38,39
 378 82 378 82 404 50 c 0,40,41
 434 13 434 13 489 13 c 0,42,43
 586 13 586 13 610 121 c 0,44,45
 615 144 615 144 621 215 c 1,0,-1
EndSplineSet
EndChar

StartChar: uni0439
Encoding: 1081 1081 138
Width: 667
GlyphClass: 2
Flags: W
LayerCount: 2
Fore
SplineSet
358 842 m 0,0,1
 385 817 385 817 383 801 c 0,2,3
 377 764 377 764 346 764 c 0,4,5
 312 764 312 764 262 802 c 0,6,7
 228 827 228 827 246 839 c 0,8,9
 257 846 257 846 331 848 c 0,10,11
 351 849 351 849 358 842 c 0,0,1
621 215 m 1,12,-1
 621 214 l 1,13,14
 631 330 631 330 631 433 c 0,15,16
 631 750 631 750 526 789 c 0,17,18
 510 795 510 795 489 795 c 0,19,20
 464 795 464 795 424 785 c 1,21,22
 374 757 374 757 271 464 c 1,23,24
 289 541 289 541 289 616 c 0,25,26
 289 699 289 699 265 748 c 0,27,28
 254 771 254 771 225.5 787.5 c 128,-1,29
 197 804 197 804 171 801 c 0,30,31
 88 793 88 793 58 700 c 0,32,33
 38 638 38 638 38 508 c 0,34,35
 38 255 38 255 59 168 c 0,36,37
 75 103 75 103 132 61 c 0,38,39
 165 37 165 37 206 37 c 0,40,41
 228 37 228 37 250 44 c 1,42,43
 308 75 308 75 364 229 c 0,44,45
 387 291 387 291 407 376 c 1,46,47
 397 310 397 310 390 260 c 0,48,49
 378 172 378 172 378 131 c 0,50,51
 378 82 378 82 404 50 c 0,52,53
 434 13 434 13 489 13 c 0,54,55
 586 13 586 13 610 121 c 0,56,57
 615 144 615 144 621 215 c 1,12,-1
EndSplineSet
EndChar

StartChar: uni043A
Encoding: 1082 1082 139
Width: 648
GlyphClass: 2
Flags: W
LayerCount: 2
Fore
SplineSet
103 764 m 1,0,-1
 104 764 l 1,1,2
 135 806 135 806 199 806 c 0,3,4
 276 806 276 806 300 749 c 1,5,6
 302 723 302 723 302 707 c 0,7,8
 302 687 302 687 298 629 c 128,-1,9
 294 571 294 571 294 560 c 1,10,11
 298 551 298 551 307 551 c 0,12,13
 315 551 315 551 318 559 c 0,14,15
 317 560 317 560 317 566 c 0,16,17
 317 611 317 611 353 696 c 0,18,19
 396 798 396 798 449 813 c 1,20,21
 562 820 562 820 601 750 c 0,22,23
 615 725 615 725 615 691 c 0,24,25
 615 599 615 599 550 499 c 0,26,27
 528 466 528 466 485 400 c 1,28,29
 499 377 499 377 534 316 c 0,30,31
 601 195 601 195 601 126 c 0,32,33
 601 73 601 73 571 33 c 0,34,35
 549 3 549 3 496 -2 c 0,36,37
 448 -7 448 -7 381 105 c 0,38,39
 332 186 332 186 316 240 c 0,40,41
 312 244 312 244 296 249 c 1,42,-1
 289 242 l 1,43,44
 300 178 300 178 300 141 c 0,45,46
 300 77 300 77 276 40 c 1,47,48
 237 10 237 10 180 10 c 0,49,50
 133 10 133 10 103 33 c 0,51,52
 32 87 32 87 33 345 c 0,53,54
 33 486 33 486 54.5 617.5 c 128,-1,55
 76 749 76 749 103 764 c 1,0,-1
EndSplineSet
EndChar

StartChar: uni043B
Encoding: 1083 1083 140
Width: 597
GlyphClass: 2
Flags: W
LayerCount: 2
Fore
SplineSet
294 431 m 1,0,-1
 263 303 l 2,1,2
 258 276 258 276 258 233 c 1,3,-1
 240 138 l 1,4,-1
 211 87 l 2,5,6
 190 58 190 58 175 50 c 0,7,8
 153 38 153 38 122 38 c 2,9,-1
 94 41 l 1,10,-1
 68 51 l 1,11,-1
 67 51 l 1,12,13
 30 86 30 86 29 88 c 0,14,15
 16 112 16 112 16 147 c 1,16,-1
 34 278 l 1,17,-1
 90 411 l 1,18,-1
 122 477 l 2,19,20
 137 513 137 513 152 555 c 0,21,22
 161 580 161 580 171 618 c 0,23,24
 176 638 176 638 179 657 c 0,25,26
 193 748 193 748 193 762 c 1,27,28
 204 791 204 791 236 809 c 0,29,30
 264 825 264 825 304 825 c 2,31,-1
 318 824 l 1,32,-1
 327 823 l 1,33,34
 374 801 374 801 381 794 c 0,35,36
 398 778 398 778 414 743 c 0,37,38
 414 742 414 742 423 702 c 0,39,40
 447 595 447 595 447 594 c 2,41,-1
 464 526 l 1,42,-1
 486 456 l 2,43,44
 522 333 522 333 522 328 c 2,45,-1
 536 279 l 1,46,-1
 573 149 l 1,47,-1
 560 80 l 1,48,49
 551 62 551 62 520 34 c 0,50,51
 506 22 506 22 487 15 c 0,52,53
 468 9 468 9 445 9 c 2,54,-1
 405 9 l 1,55,56
 389 13 389 13 373 26 c 0,57,58
 356 40 356 40 347 56 c 0,59,60
 334 80 334 80 334 98 c 2,61,-1
 338 167 l 1,62,-1
 329 253 l 1,63,64
 302 431 302 431 294 431 c 1,0,-1
EndSplineSet
EndChar

StartChar: uni043C
Encoding: 1084 1084 141
Width: 790
GlyphClass: 2
Flags: W
LayerCount: 2
Fore
SplineSet
755 134 m 2,0,1
 755 82 755 82 734 53 c 0,2,3
 717 30 717 30 690 23 c 0,4,5
 676 19 676 19 649 13 c 0,6,7
 628 8 628 8 622 8 c 0,8,9
 579 8 579 8 549 46.5 c 128,-1,10
 519 85 519 85 519 142 c 0,11,12
 519 164 519 164 530 244 c 0,13,14
 539 306 539 306 531 342 c 1,15,16
 526 327 526 327 500 251 c 0,17,18
 466 155 466 155 439 134 c 0,19,20
 424 122 424 122 403 122 c 0,21,22
 387 122 387 122 370 133 c 1,23,24
 316 189 316 189 286 350 c 1,25,26
 281 325 281 325 281 299 c 0,27,28
 281 284 281 284 289 204 c 0,29,30
 295 147 295 147 289 113 c 0,31,32
 281 69 281 69 246 35 c 1,33,34
 211 15 211 15 179 15 c 0,35,36
 135 15 135 15 98 54 c 1,37,38
 57 124 57 124 50 147 c 0,39,40
 35 192 35 192 35 282 c 0,41,42
 35 365 35 365 49 576 c 0,43,44
 54 649 54 649 93.5 700.5 c 128,-1,45
 133 752 133 752 200 771 c 1,46,47
 333 775 333 775 402 542 c 1,48,49
 407 585 407 585 433 656 c 0,50,51
 471 760 471 760 519 783 c 1,52,53
 566 797 566 797 599 797 c 0,54,55
 654 797 654 797 683 763 c 1,56,57
 721 728 721 728 736 673 c 0,58,59
 746 636 746 636 749 555 c 0,60,61
 750 481 750 481 751 407 c 0,62,63
 755 243 755 243 755 135 c 2,64,-1
 755 134 l 2,0,1
EndSplineSet
EndChar

StartChar: uni043D
Encoding: 1085 1085 142
Width: 636
GlyphClass: 2
Flags: W
LayerCount: 2
Fore
SplineSet
64 730 m 1,0,-1
 63 730 l 1,1,2
 107 774 107 774 174 774 c 0,3,4
 230 774 230 774 256 759 c 1,5,6
 285 730 285 730 287 668 c 1,7,8
 281 619 281 619 278 537 c 1,9,10
 290 493 290 493 314 493 c 0,11,12
 323 493 323 493 342 502 c 0,13,14
 353 507 353 507 359 543 c 1,15,16
 353 595 353 595 351 686 c 1,17,18
 355 738 355 738 417 776 c 0,19,20
 429 783 429 783 476 785 c 0,21,22
 511 786 511 786 523 783 c 0,23,24
 568 771 568 771 583 715 c 0,25,26
 588 698 588 698 594 681 c 0,27,28
 603 648 603 648 604 614 c 0,29,30
 610 474 610 474 610 404 c 0,31,32
 610 256 610 256 559 78 c 0,33,34
 543 23 543 23 471 8 c 0,35,36
 425 -2 425 -2 397 17 c 0,37,38
 359 42 359 42 353 100 c 0,39,40
 351 116 351 116 354.5 157 c 128,-1,41
 358 198 358 198 357 214 c 0,42,43
 351 239 351 239 325 239 c 0,44,45
 300 239 300 239 280.5 220 c 128,-1,46
 261 201 261 201 262 171 c 1,47,48
 267 151 267 151 276 100 c 0,49,50
 281 66 281 66 273 48 c 0,51,52
 261 21 261 21 234 9 c 0,53,54
 216 1 216 1 168 1 c 0,55,56
 122 1 122 1 92 33 c 0,57,58
 67 60 67 60 50 122 c 0,59,60
 30 191 30 191 28 275 c 0,61,62
 25 396 25 396 25 482 c 0,63,64
 25 673 25 673 64 730 c 1,0,-1
EndSplineSet
EndChar

StartChar: uni043E
Encoding: 1086 1086 143
Width: 650
GlyphClass: 2
Flags: W
LayerCount: 2
Fore
SplineSet
593 176 m 1,0,-1
 594 175 l 1,1,2
 568 94 568 94 502.5 47 c 128,-1,3
 437 0 437 0 351 0 c 0,4,5
 192 0 192 0 104 120 c 0,6,7
 29 222 29 222 29 368 c 0,8,9
 29 435 29 435 41 492 c 0,10,11
 96 753 96 753 274 786 c 0,12,13
 290 789 290 789 308 789 c 0,14,15
 388 789 388 789 463.5 736 c 128,-1,16
 539 683 539 683 565 607 c 0,17,18
 621 442 621 442 621 350 c 0,19,20
 621 272 621 272 592 176 c 1,21,-1
 593 176 l 1,0,-1
345 248 m 1,22,-1
 345 249 l 1,23,24
 374 254 374 254 374 360 c 0,25,26
 374 421 374 421 363 472.5 c 128,-1,27
 352 524 352 524 339 526 c 0,28,29
 317 532 317 532 299 478 c 128,-1,30
 281 424 281 424 281 359 c 0,31,32
 281 238 281 238 345 248 c 1,22,-1
EndSplineSet
EndChar

StartChar: uni043F
Encoding: 1087 1087 144
Width: 667
GlyphClass: 2
Flags: W
LayerCount: 2
Fore
SplineSet
206 37 m 0,0,1
 159 35 159 35 158 35 c 0,2,3
 140 39 140 39 119 56 c 0,4,5
 87 82 87 82 72 104 c 0,6,7
 52 134 52 134 46 163 c 0,8,9
 45 167 45 167 43 295 c 0,10,11
 38 479 38 479 38 508 c 0,12,13
 38 573 38 573 43 621 c 0,14,15
 49 677 49 677 58 700 c 0,16,17
 70 731 70 731 95 753 c 0,18,19
 116 772 116 772 171 801 c 1,20,-1
 189 803 l 1,21,-1
 220 806 l 2,22,23
 225 807 225 807 248 808 c 0,24,25
 272 809 272 809 278 809 c 2,26,-1
 376 809 l 1,27,-1
 410 810 l 2,28,29
 434 808 434 808 472 801 c 0,30,31
 522 792 522 792 526 789 c 0,32,33
 591 733 591 733 605 686 c 0,34,35
 617 645 617 645 631 433 c 0,36,37
 632 408 632 408 628 327 c 0,38,39
 628 324 628 324 621 214 c 1,40,-1
 621 215 l 1,41,-1
 615 156 l 2,42,43
 612 126 612 126 610 121 c 0,44,45
 582 53 582 53 568 40 c 0,46,47
 546 21 546 21 489 13 c 0,48,49
 464 10 464 10 440 22 c 0,50,51
 432 26 432 26 422 48 c 0,52,53
 414 65 414 65 412 83 c 0,54,55
 410 106 410 106 408 129 c 2,56,-1
 413 270 l 2,57,58
 412 316 412 316 413 363 c 0,59,60
 417 458 417 458 417 458 c 1,61,62
 425 514 425 514 411 531 c 0,63,64
 401 544 401 544 343 543 c 128,-1,65
 285 542 285 542 277 531 c 0,66,67
 249 490 249 490 243 423 c 1,68,-1
 245 287 l 2,69,70
 251 129 251 129 251 128 c 0,71,72
 249 112 249 112 238 82 c 0,73,74
 230 61 230 61 222 50 c 0,75,76
 214 38 214 38 206 37 c 0,0,1
EndSplineSet
EndChar

StartChar: uni0440
Encoding: 1088 1088 145
Width: 572
GlyphClass: 2
Flags: W
LayerCount: 2
Fore
SplineSet
530 680 m 1,0,-1
 529 679 l 1,1,2
 582 597 582 597 582 511 c 0,3,4
 582 418 582 418 521 337 c 0,5,6
 470 269 470 269 297 242 c 1,7,8
 295 223 295 223 301 181 c 0,9,10
 309 136 309 136 309 130 c 0,11,12
 309 94 309 94 289 52 c 0,13,14
 279 31 279 31 247.5 17 c 128,-1,15
 216 3 216 3 177 3 c 0,16,17
 119 3 119 3 84.5 34.5 c 128,-1,18
 50 66 50 66 47 122 c 1,19,20
 24 220 24 220 25 328 c 2,21,-1
 25 542 l 2,22,23
 25 551 25 551 29 616 c 0,24,25
 33 675 33 675 49 715 c 0,26,27
 70 767 70 767 109 777 c 0,28,29
 199 800 199 800 272 800 c 0,30,31
 449 800 449 800 529 680 c 1,32,-1
 530 680 l 1,0,-1
337 499 m 1,33,34
 349 523 349 523 349 545 c 0,35,36
 349 601 349 601 276 607 c 1,37,38
 271 565 271 565 271 543 c 0,39,40
 271 512 271 512 272 497 c 0,41,42
 274 474 274 474 277 430 c 1,43,44
 286 438 286 438 300 453 c 0,45,46
 326 479 326 479 336 500 c 1,47,-1
 337 499 l 1,33,34
EndSplineSet
EndChar

StartChar: uni0441
Encoding: 1089 1089 146
Width: 582
GlyphClass: 2
Flags: W
LayerCount: 2
Fore
SplineSet
552 257 m 2,0,-1
 552 256 l 2,1,2
 552 251 552 251 552 242 c 0,3,4
 553 232 553 232 553 228 c 0,5,6
 553 82 553 82 442 30 c 0,7,8
 380 1 380 1 309 1 c 0,9,10
 214 1 214 1 154 54 c 0,11,12
 28 165 28 165 29 366 c 0,13,14
 29 454 29 454 50 566 c 0,15,16
 66 652 66 652 119 725 c 0,17,18
 145 761 145 761 194.5 783.5 c 128,-1,19
 244 806 244 806 301 806 c 0,20,21
 367 806 367 806 424.5 771.5 c 128,-1,22
 482 737 482 737 514 679 c 0,23,24
 533 644 533 644 534 601 c 0,25,26
 535 560 535 560 514 526 c 0,27,28
 486 480 486 480 442 475 c 0,29,30
 372 468 372 468 318 538 c 0,31,32
 317 541 317 541 314 562 c 0,33,34
 312 578 312 578 299 577 c 1,35,-1
 289 559 l 1,36,37
 279 347 279 347 279 342 c 0,38,39
 279 313 279 313 281 285 c 128,-1,40
 283 257 283 257 305 248 c 1,41,42
 328 249 328 249 384.5 299 c 128,-1,43
 441 349 441 349 462 349 c 0,44,45
 478 349 478 349 495 342 c 0,46,47
 552 325 552 325 552 257 c 2,0,-1
EndSplineSet
EndChar

StartChar: uni0442
Encoding: 1090 1090 147
Width: 599
GlyphClass: 2
Flags: W
LayerCount: 2
Fore
SplineSet
241 583 m 1024,0,-1
582 664 m 1,1,-1
 583 664 l 1,2,3
 586 649 586 649 586 625 c 0,4,5
 585 575 585 575 562 549 c 0,6,7
 553 539 553 539 481.5 525.5 c 128,-1,8
 410 512 410 512 408 508 c 0,9,10
 406 497 406 497 431 299 c 0,11,12
 436 259 436 259 436 219 c 0,13,14
 436 128 436 128 412 69 c 0,15,16
 382 -5 382 -5 324 -3 c 0,17,18
 230 0 230 0 193 56 c 0,19,20
 165 98 165 98 164 189 c 1,21,22
 164 181 164 181 168 294 c 2,23,-1
 173 422 l 2,24,25
 177 482 177 482 186 526 c 1,26,27
 180 524 180 524 168 524 c 0,28,29
 134 524 134 524 100 535 c 0,30,31
 54 550 54 550 37 579 c 0,32,33
 13 620 13 620 13 656 c 0,34,35
 13 716 13 716 79 749 c 0,36,37
 164 792 164 792 284 792 c 0,38,39
 347 792 347 792 416 780 c 1,40,41
 449 768 449 768 516 743 c 1,42,43
 572 714 572 714 582 664 c 1,1,-1
EndSplineSet
EndChar

StartChar: uni0443
Encoding: 1091 1091 148
Width: 597
GlyphClass: 2
Flags: W
LayerCount: 2
Fore
SplineSet
71 770 m 1,0,-1
 72 770 l 1,1,-1
 98 780 l 1,2,-1
 126 783 l 1,3,-1
 179 771 l 1,4,-1
 215 734 l 1,5,-1
 236 700 l 1,6,-1
 257 646 l 1,7,-1
 278 581 l 1,8,-1
 287 555 l 1,9,-1
 335 710 l 1,10,-1
 390 801 l 1,11,-1
 419 809 l 1,12,-1
 449 812 l 1,13,-1
 491 806 l 1,14,-1
 524 787 l 1,15,-1
 564 741 l 1,16,-1
 577 672 l 1,17,-1
 556 617 l 1,18,-1
 526 493 l 1,19,-1
 512 428 l 1,20,-1
 497 364 l 1,21,-1
 473 280 l 1,22,-1
 455 204 l 1,23,-1
 434 133 l 1,24,-1
 418 78 l 1,25,-1
 383 27 l 1,26,-1
 331 -2 l 1,27,-1
 322 -4 l 1,28,-1
 308 -4 l 1,29,-1
 240 12 l 1,30,-1
 197 59 l 1,31,-1
 186 105 l 1,32,-1
 183 164 l 1,33,-1
 199 230 l 1,34,-1
 215 300 l 1,35,-1
 165 356 l 1,36,-1
 109 426 l 1,37,-1
 41 548 l 1,38,-1
 20 674 l 1,39,-1
 33 733 l 1,40,-1
 71 770 l 1,0,-1
EndSplineSet
EndChar

StartChar: uni0444
Encoding: 1092 1092 149
Width: 850
GlyphClass: 2
Flags: W
LayerCount: 2
Fore
SplineSet
253 0 m 1,0,1
 131 89 131 89 131 89 c 1,2,3
 31 200 31 200 31 359 c 0,4,5
 31 433 31 433 47 495 c 0,6,7
 122 783 122 783 359 815 c 0,8,9
 380 818 380 818 404 818 c 0,10,11
 507 820 507 820 612 761 c 0,12,13
 713 703 713 703 748 620 c 0,14,15
 823 440 823 440 823 340 c 0,16,17
 823 255 823 255 784 150 c 1,18,19
 784 150 784 150 785 150 c 2,20,-1
 787 149 l 1,21,22
 750 57 750 57 664 10 c 0,23,24
 571 -42 571 -42 536 -46 c 1,25,26
 536 -160 536 -160 509 -186 c 0,27,28
 416 -276 416 -276 346 -177 c 0,29,30
 315 -134 315 -134 312 -71 c 1,31,32
 312 -71 312 -71 314 -28 c 1,33,-1
 253 0 l 1,0,1
530 152 m 1,34,35
 579 159 579 159 580 163 c 0,36,37
 590 201 590 201 617 226 c 0,38,39
 667 272 667 272 673 337 c 0,40,41
 680 412 680 412 617 527 c 0,42,43
 583 591 583 591 556 609 c 1,44,45
 556 609 556 609 542 386 c 1,46,-1
 534 207 l 1,47,-1
 530 152 l 1,34,35
346 163 m 1,48,49
 345 263 345 263 345 263 c 1,50,-1
 347 455 l 1,51,-1
 351 610 l 1,52,53
 352 604 352 604 294 536 c 0,54,55
 234 469 234 469 203 336 c 0,56,57
 174 213 174 213 332 167 c 0,58,59
 339 165 339 165 346 163 c 1,48,49
536 -46 m 1024,60,61
EndSplineSet
EndChar

StartChar: uni0445
Encoding: 1093 1093 150
Width: 626
GlyphClass: 2
Flags: W
LayerCount: 2
Fore
SplineSet
591 590 m 1,0,-1
 590 591 l 1,1,2
 598 626 598 626 597 651 c 0,3,4
 595 729 595 729 525 782 c 0,5,6
 489 809 489 809 460 809 c 0,7,8
 367 809 367 809 348 683 c 0,9,10
 343 646 343 646 333 573 c 1,11,12
 328 571 328 571 318 576 c 1,13,14
 320 590 320 590 320 597 c 0,15,16
 320 641 320 641 296.5 695.5 c 128,-1,17
 273 750 273 750 242 774 c 1,18,19
 209 788 209 788 174 788 c 0,20,21
 128 788 128 788 104 763 c 0,22,23
 66 724 66 724 66 655 c 0,24,25
 66 607 66 607 84 528 c 0,26,27
 88 510 88 510 127 458 c 0,28,29
 163 409 163 409 162 386 c 1,30,31
 133 346 133 346 76 267 c 0,32,33
 29 198 29 198 28 134 c 0,34,35
 27 71 27 71 70 29 c 0,36,37
 97 3 97 3 142 3 c 0,38,39
 174 3 174 3 212 16 c 0,40,41
 247 32 247 32 259 72 c 0,42,43
 277 131 277 131 296 157 c 0,44,45
 305 169 305 169 311 158 c 1,46,47
 312 69 312 69 363 23 c 1,48,49
 406 -2 406 -2 456 -2 c 0,50,51
 492 -2 492 -2 519 12 c 0,52,53
 572 40 572 40 571 123 c 0,54,55
 571 158 571 158 565 190 c 0,56,57
 558 229 558 229 504 290 c 0,58,59
 460 340 460 340 464 386 c 0,60,61
 468 393 468 393 535 485 c 0,62,63
 581 549 581 549 591 590 c 1,0,-1
EndSplineSet
EndChar

StartChar: uni0446
Encoding: 1094 1094 151
Width: 694
GlyphClass: 2
Flags: W
LayerCount: 2
Fore
SplineSet
33 347 m 0,0,1
 39 445 39 445 51 544 c 0,2,3
 61 630 61 630 64 650 c 0,4,5
 72 707 72 707 83 737 c 1,6,7
 119 795 119 795 165 794 c 0,8,9
 208 793 208 793 240.5 768.5 c 128,-1,10
 273 744 273 744 293 690 c 1,11,12
 290 635 290 635 290 635 c 1,13,14
 278 506 278 506 278 506 c 2,15,16
 273 440 273 440 267 386 c 0,17,18
 264 357 264 357 298 319 c 0,19,20
 313 301 313 301 333 316 c 0,21,22
 338 320 338 320 349 358 c 0,23,24
 351 364 351 364 351 377 c 0,25,26
 350 445 350 445 354 552 c 1,27,28
 364 638 364 638 367 658 c 0,29,30
 375 715 375 715 386 745 c 1,31,32
 422 803 422 803 468 802 c 0,33,34
 511 801 511 801 547 769 c 128,-1,35
 583 737 583 737 603 683 c 1,36,37
 604 684 604 684 604 684 c 1,38,39
 630 621 630 621 622 575 c 0,40,41
 573 293 573 293 573 261 c 0,42,43
 573 206 573 206 572 194 c 0,44,45
 568 146 568 146 654 77 c 0,46,47
 704 36 704 36 646 -116 c 0,48,49
 600 -236 600 -236 511 -177 c 0,50,51
 422 -117 422 -117 435 -60 c 0,52,53
 455 27 455 27 373 6 c 0,54,55
 130 -55 130 -55 61 135 c 0,56,57
 26 231 26 231 33 347 c 0,0,1
EndSplineSet
EndChar

StartChar: uni0447
Encoding: 1095 1095 152
Width: 636
GlyphClass: 2
Flags: W
LayerCount: 2
Fore
SplineSet
84 338 m 1,0,-1
 41 421 l 1,1,-1
 38 488 l 1,2,-1
 38 641 l 1,3,-1
 49 708 l 1,4,-1
 64 730 l 1,5,-1
 63 730 l 1,6,-1
 99 754 l 1,7,-1
 113 763 l 1,8,-1
 142 771 l 1,9,-1
 174 774 l 1,10,-1
 222 770 l 1,11,-1
 244 765 l 1,12,-1
 256 759 l 1,13,-1
 268 744 l 1,14,-1
 278 722 l 1,15,-1
 285 695 l 1,16,-1
 287 668 l 1,17,-1
 282 611 l 1,18,-1
 279 559 l 1,19,-1
 278 537 l 1,20,-1
 282 520 l 1,21,-1
 293 504 l 1,22,-1
 303 496 l 1,23,-1
 314 493 l 1,24,-1
 326 495 l 1,25,-1
 337 499 l 1,26,-1
 342 502 l 1,27,-1
 348 507 l 1,28,-1
 352 515 l 1,29,-1
 357 530 l 1,30,-1
 359 543 l 1,31,-1
 354 605 l 1,32,-1
 351 661 l 1,33,-1
 351 686 l 1,34,-1
 357 713 l 1,35,-1
 370 736 l 1,36,-1
 387 754 l 1,37,-1
 417 776 l 1,38,-1
 424 779 l 1,39,-1
 438 782 l 1,40,-1
 458 784 l 1,41,-1
 476 785 l 1,42,-1
 505 785 l 1,43,-1
 523 783 l 1,44,-1
 546 771 l 1,45,-1
 560 760 l 1,46,-1
 568 746 l 1,47,-1
 583 715 l 1,48,-1
 587 705 l 1,49,-1
 588 698 l 1,50,-1
 594 681 l 1,51,-1
 599 664 l 1,52,-1
 601 652 l 1,53,-1
 603 635 l 1,54,-1
 604 614 l 1,55,-1
 607 520 l 1,56,-1
 608 460 l 1,57,-1
 610 404 l 1,58,-1
 608 249 l 1,59,-1
 560 43 l 1,60,-1
 548 18 l 1,61,-1
 530 -2 l 1,62,-1
 507 -15 l 1,63,-1
 472 -27 l 1,64,-1
 456 -29 l 1,65,-1
 428 -30 l 1,66,-1
 395 -24 l 1,67,-1
 359 -7 l 1,68,-1
 329 13 l 1,69,-1
 314 27 l 1,70,-1
 310 44 l 1,71,-1
 308 74 l 1,72,-1
 311 146 l 1,73,-1
 326 214 l 1,74,-1
 323 245 l 1,75,-1
 314 266 l 1,76,-1
 294 280 l 1,77,-1
 261 291 l 1,78,-1
 219 298 l 1,79,-1
 171 301 l 1,80,-1
 84 338 l 1,0,-1
EndSplineSet
EndChar

StartChar: uni0448
Encoding: 1096 1096 153
Width: 922
GlyphClass: 2
Flags: W
LayerCount: 2
Fore
SplineSet
569 500 m 2,0,1
 569 500 569 500 581 629 c 1,2,3
 581 629 581 629 584 684 c 1,4,5
 564 738 564 738 531.5 762.5 c 128,-1,6
 499 787 499 787 456 788 c 0,7,8
 410 789 410 789 374 731 c 1,9,10
 363 701 363 701 355 644 c 0,11,12
 352 624 352 624 342 538 c 1,13,14
 338 431 338 431 339 363 c 1,15,16
 322 272 322 272 287 294 c 0,17,18
 258 312 258 312 254 328 c 128,-1,19
 250 344 250 344 250 381 c 0,20,21
 250 412 250 412 268 520 c 128,-1,22
 286 628 286 628 286 661 c 0,23,24
 286 688 286 688 283 712 c 1,25,26
 268 743 268 743 236.5 762.5 c 128,-1,27
 205 782 205 782 173 779 c 0,28,29
 136 775 136 775 99.5 746 c 128,-1,30
 63 717 63 717 52 680 c 0,31,32
 17 560 17 560 17 380 c 0,33,34
 17 260 17 260 39 192 c 0,35,36
 68 102 68 102 140 53 c 0,37,38
 219 -1 219 -1 308 -1 c 0,39,40
 486 -1 486 -1 664 0 c 1,41,42
 690 -7 690 -7 760 58 c 0,43,44
 808 101 808 101 826 149 c 0,45,46
 899 344 899 344 899 573 c 0,47,48
 899 631 899 631 895 678 c 1,49,50
 895 678 895 678 894 677 c 1,51,52
 874 731 874 731 838 763 c 128,-1,53
 802 795 802 795 759 796 c 0,54,55
 713 797 713 797 677 739 c 1,56,57
 666 709 666 709 658 652 c 0,58,59
 655 632 655 632 645 546 c 1,60,61
 641 439 641 439 642 371 c 0,62,63
 642 359 642 359 640 352 c 0,64,65
 629 314 629 314 624 310 c 0,66,67
 604 295 604 295 588 313 c 0,68,69
 555 351 555 351 558 380 c 0,70,71
 564 434 564 434 569 500 c 2,0,1
EndSplineSet
EndChar

StartChar: uni0449
Encoding: 1097 1097 154
Width: 994
GlyphClass: 2
Flags: W
LayerCount: 2
Fore
SplineSet
865 256 m 0,0,1
 865 276 865 276 914 570 c 0,2,3
 922 616 922 616 896 679 c 1,4,5
 896 679 896 679 895 678 c 1,6,7
 875 732 875 732 839 764 c 128,-1,8
 803 796 803 796 760 797 c 0,9,10
 714 798 714 798 678 740 c 1,11,12
 667 710 667 710 659 653 c 0,13,14
 656 633 656 633 646 547 c 1,15,16
 642 440 642 440 643 372 c 0,17,18
 643 360 643 360 641 353 c 0,19,20
 630 315 630 315 625 311 c 0,21,22
 605 296 605 296 590 314 c 0,23,24
 556 352 556 352 559 381 c 0,25,26
 565 435 565 435 570 501 c 2,27,28
 570 501 570 501 582 630 c 1,29,30
 582 630 582 630 585 685 c 1,31,32
 565 739 565 739 532.5 763.5 c 128,-1,33
 500 788 500 788 457 789 c 0,34,35
 411 790 411 790 375 732 c 1,36,37
 364 702 364 702 356 645 c 0,38,39
 353 625 353 625 343 539 c 1,40,41
 339 432 339 432 340 364 c 1,42,43
 323 273 323 273 288 295 c 0,44,45
 259 313 259 313 255 329 c 128,-1,46
 251 345 251 345 251 382 c 0,47,48
 251 413 251 413 269 521 c 128,-1,49
 287 629 287 629 287 662 c 0,50,51
 287 689 287 689 284 713 c 1,52,53
 269 744 269 744 237.5 763.5 c 128,-1,54
 206 783 206 783 174 780 c 0,55,56
 137 776 137 776 100.5 747 c 128,-1,57
 64 718 64 718 53 681 c 0,58,59
 18 561 18 561 18 381 c 0,60,61
 18 261 18 261 40 193 c 0,62,63
 69 103 69 103 141 54 c 0,64,65
 220 0 220 0 309 0 c 0,66,67
 661 2 661 2 665 1 c 0,68,69
 739 -17 739 -17 727 -65 c 0,70,71
 714 -122 714 -122 803 -182 c 0,72,73
 892 -241 892 -241 938 -121 c 0,74,75
 996 31 996 31 946 72 c 0,76,77
 860 141 860 141 864 189 c 0,78,79
 865 201 865 201 865 256 c 0,0,1
EndSplineSet
EndChar

StartChar: uni044A
Encoding: 1098 1098 155
Width: 772
GlyphClass: 2
Flags: W
LayerCount: 2
Fore
SplineSet
214 554 m 1,0,1
 198 490 198 490 198 458 c 1,2,3
 189 404 189 404 198 244 c 0,4,5
 198 235 198 235 202 170 c 0,6,7
 206 111 206 111 222 71 c 0,8,9
 243 19 243 19 282 9 c 0,10,11
 372 -14 372 -14 445 -14 c 0,12,13
 622 -14 622 -14 702 106 c 1,14,15
 702 106 702 106 703 106 c 1,16,-1
 702 107 l 1,17,18
 755 189 755 189 755 275 c 0,19,20
 755 368 755 368 694 449 c 0,21,22
 643 517 643 517 470 544 c 1,23,24
 467 568 467 568 474 605 c 0,25,26
 482 650 482 650 482 656 c 0,27,28
 482 692 482 692 462 734 c 0,29,30
 448 762 448 762 420 769 c 0,31,32
 389 777 389 777 350 783 c 0,33,34
 233 805 233 805 134 782 c 0,35,36
 71 767 71 767 44 733 c 0,37,38
 -61 597 -61 597 149 565 c 1,39,40
 149 565 149 565 182 562 c 1,41,-1
 214 554 l 1,0,1
510 287 m 1,42,43
 522 263 522 263 522 241 c 0,44,45
 522 185 522 185 449 179 c 1,46,47
 444 221 444 221 444 243 c 0,48,49
 444 274 444 274 445 289 c 0,50,51
 447 312 447 312 450 356 c 1,52,53
 459 348 459 348 473 333 c 0,54,55
 499 307 499 307 509 286 c 1,56,-1
 510 287 l 1,42,43
EndSplineSet
EndChar

StartChar: uni044B
Encoding: 1099 1099 156
Width: 842
GlyphClass: 2
Flags: W
LayerCount: 2
Fore
SplineSet
799 672 m 1,0,1
 799 629 799 629 801 567 c 128,-1,2
 803 505 803 505 803 488 c 0,3,4
 804 281 804 281 776 118 c 0,5,6
 758 12 758 12 684 -9 c 1,7,8
 662 -11 662 -11 654 -11 c 0,9,10
 553 -11 553 -11 540 86 c 0,11,12
 517 254 517 254 518 388 c 0,13,14
 519 531 519 531 539 640 c 1,15,-1
 566 710 l 1,16,17
 618 789 618 789 714 789 c 0,18,19
 736 789 736 789 753 784 c 0,20,21
 781 771 781 771 790 735 c 2,22,-1
 799 672 l 1,0,1
453 102 m 1,23,-1
 452 103 l 1,24,25
 495 188 495 188 495 278 c 0,26,27
 495 375 495 375 445 460 c 0,28,29
 404 531 404 531 262 559 c 1,30,31
 260 579 260 579 265 623 c 0,32,33
 272 670 272 670 272 676 c 0,34,35
 272 714 272 714 255 758 c 0,36,37
 247 780 247 780 221.5 794.5 c 128,-1,38
 196 809 196 809 164 809 c 0,39,40
 116 809 116 809 88 776 c 128,-1,41
 60 743 60 743 57 685 c 1,42,43
 38 582 38 582 39 469 c 2,44,-1
 39 246 l 2,45,46
 39 236 39 236 42 168 c 0,47,48
 46 107 46 107 59 65 c 0,49,50
 76 11 76 11 108 0 c 0,51,52
 182 -24 182 -24 241 -24 c 0,53,54
 386 -24 386 -24 452 102 c 1,55,-1
 453 102 l 1,23,-1
295 291 m 1,56,57
 304 266 304 266 304 243 c 0,58,59
 304 184 304 184 245 178 c 1,60,61
 241 222 241 222 241 245 c 0,62,63
 241 277 241 277 241 293 c 0,64,65
 243 317 243 317 246 363 c 1,66,67
 253 354 253 354 264 339 c 0,68,69
 286 312 286 312 294 290 c 1,70,-1
 295 291 l 1,56,57
EndSplineSet
EndChar

StartChar: uni044C
Encoding: 1100 1100 157
Width: 596
GlyphClass: 2
Flags: W
LayerCount: 2
Fore
SplineSet
527 106 m 1,0,-1
 526 107 l 1,1,2
 579 189 579 189 579 275 c 0,3,4
 579 368 579 368 518 449 c 0,5,6
 467 517 467 517 294 544 c 1,7,8
 292 563 292 563 298 605 c 0,9,10
 306 650 306 650 306 656 c 0,11,12
 306 692 306 692 286 734 c 0,13,14
 276 755 276 755 244.5 769 c 128,-1,15
 213 783 213 783 174 783 c 0,16,17
 116 783 116 783 81.5 751.5 c 128,-1,18
 47 720 47 720 44 664 c 1,19,20
 21 566 21 566 22 458 c 2,21,-1
 22 244 l 2,22,23
 22 235 22 235 26 170 c 0,24,25
 30 111 30 111 46 71 c 0,26,27
 67 19 67 19 106 9 c 0,28,29
 196 -14 196 -14 269 -14 c 0,30,31
 446 -14 446 -14 526 106 c 1,32,-1
 527 106 l 1,0,-1
334 287 m 1,33,34
 346 263 346 263 346 241 c 0,35,36
 346 185 346 185 273 179 c 1,37,38
 268 221 268 221 268 243 c 0,39,40
 268 274 268 274 269 289 c 0,41,42
 271 312 271 312 274 356 c 1,43,44
 283 348 283 348 297 333 c 0,45,46
 323 307 323 307 333 286 c 1,47,-1
 334 287 l 1,33,34
EndSplineSet
EndChar

StartChar: uni044D
Encoding: 1101 1101 158
Width: 620
GlyphClass: 2
Flags: W
LayerCount: 2
Fore
SplineSet
579 285 m 0,0,1
 571 240 571 240 557 201 c 0,2,3
 540 159 540 159 491 87 c 1,4,5
 438 34 438 34 371 18 c 0,6,7
 322 6 322 6 275 6 c 0,8,9
 157 6 157 6 102 75 c 0,10,11
 67 119 67 119 68 177 c 0,12,13
 69 208 69 208 77 233 c 1,14,15
 88 253 88 253 94 260 c 0,16,17
 104 274 104 274 115 277.5 c 128,-1,18
 126 281 126 281 137 281 c 0,19,20
 149 281 149 281 187 271 c 128,-1,21
 225 261 225 261 235 261 c 0,22,23
 268 261 268 261 272 301 c 1,24,25
 263 330 263 330 233 335 c 0,26,27
 214 338 214 338 176 346 c 1,28,29
 149 356 149 356 144 388 c 0,30,31
 140 412 140 412 140 415 c 0,32,33
 140 446 140 446 157 463 c 0,34,35
 165 471 165 471 222 490 c 0,36,37
 265 504 265 504 267 534 c 1,38,39
 262 554 262 554 239 562 c 1,40,41
 220 563 220 563 182.5 550 c 128,-1,42
 145 537 145 537 141 537 c 0,43,44
 110 537 110 537 81 566.5 c 128,-1,45
 52 596 52 596 52 631 c 0,46,47
 52 709 52 709 168 772 c 0,48,49
 217 799 217 799 284 799 c 0,50,51
 384 799 384 799 460 745 c 0,52,53
 550 681 550 681 565 606 c 0,54,55
 602 416 602 416 579 285 c 0,0,1
EndSplineSet
EndChar

StartChar: uni044E
Encoding: 1102 1102 159
Width: 898
GlyphClass: 2
Flags: W
LayerCount: 2
Fore
SplineSet
599 261 m 0,0,1
 535 251 535 251 535 372 c 0,2,3
 535 437 535 437 553 491 c 128,-1,4
 571 545 571 545 593 539 c 0,5,6
 606 537 606 537 617 485.5 c 128,-1,7
 628 434 628 434 628 373 c 0,8,9
 628 267 628 267 599 262 c 1,10,11
 599 262 599 262 599 261 c 0,0,1
358 133 m 0,12,13
 445 14 445 14 605 13 c 0,14,15
 691 12 691 12 756 60 c 0,16,17
 822 106 822 106 848 188 c 1,18,19
 848 188 848 188 847 189 c 2,20,-1
 846 189 l 1,21,22
 875 284 875 284 875 363 c 0,23,24
 875 454 875 454 819 620 c 0,25,26
 793 696 793 696 718 749 c 0,27,28
 646 800 646 800 562 802 c 0,29,30
 544 802 544 802 528 799 c 1,31,32
 386 727 386 727 295 505 c 0,33,34
 288 488 288 488 270 544 c 1,35,36
 273 626 273 626 279 674 c 1,37,38
 277 736 277 736 248 766 c 1,39,40
 222 780 222 780 166 780 c 0,41,42
 99 780 99 780 55 736 c 1,43,44
 55 736 55 736 56 736 c 1,45,46
 17 680 17 680 17 488 c 0,47,48
 17 402 17 402 20 282 c 0,49,50
 22 202 22 202 42 128 c 0,51,52
 59 66 59 66 84 40 c 0,53,54
 114 8 114 8 160 8 c 0,55,56
 208 8 208 8 226 16 c 0,57,58
 274 36 274 36 265 54 c 0,59,60
 261 62 261 62 268 106 c 0,61,62
 272 132 272 132 276 158 c 1,63,64
 309 202 309 202 358 133 c 0,12,13
EndSplineSet
EndChar

StartChar: uni044F
Encoding: 1103 1103 160
Width: 634
GlyphClass: 2
Flags: W
LayerCount: 2
Fore
SplineSet
32 118 m 1,0,-1
 33 118 l 1,1,2
 47 88 47 88 80 57 c 0,3,4
 123 18 123 18 167 13 c 0,5,6
 252 4 252 4 341 186 c 1,7,8
 338 160 338 160 338 141 c 0,9,10
 338 79 338 79 368 43 c 1,11,12
 414 11 414 11 460 11 c 0,13,14
 480 11 480 11 496 15 c 0,15,16
 555 30 555 30 573 53 c 0,17,18
 597 83 597 83 597 161 c 2,19,-1
 597 201 l 2,20,21
 600 204 600 204 595 380 c 0,22,23
 589 579 589 579 572 683 c 0,24,25
 559 758 559 758 466 786 c 0,26,27
 422 799 422 799 293 812 c 1,28,29
 140 807 140 807 83 710 c 1,30,31
 40 613 40 613 41 532 c 0,32,33
 42 449 42 449 86 393 c 0,34,35
 93 384 93 384 143 340 c 1,36,37
 30 218 30 218 30 136 c 0,38,39
 30 130 30 130 32 118 c 1,0,-1
318 584 m 1,40,-1
 319 584 l 2,41,42
 325 586 325 586 329 586 c 256,43,44
 333 586 333 586 360 572 c 0,45,46
 364 568 364 568 363 521 c 0,47,48
 362 466 362 466 362 417 c 1,49,50
 324 430 324 430 297.5 454.5 c 128,-1,51
 271 479 271 479 271 506 c 0,52,53
 271 543 271 543 318 584 c 1,40,-1
EndSplineSet
EndChar

StartChar: bullet
Encoding: 8226 8226 165
Width: 481
GlyphClass: 1
Flags: W
LayerCount: 2
Fore
SplineSet
123 449 m 1,0,-1
 124 449 l 1,1,2
 145 533 145 533 254 531 c 1,3,4
 299 524 299 524 321 512 c 0,5,6
 351 495 351 495 369 456 c 0,7,8
 375 443 375 443 375 422 c 0,9,10
 375 375 375 375 354 336 c 1,11,12
 320 291 320 291 253 292 c 0,13,14
 197 292 197 292 160 324 c 0,15,16
 120 358 120 358 120 418 c 0,17,18
 120 433 120 433 123 449 c 1,0,-1
EndSplineSet
EndChar

StartChar: uni0401
Encoding: 1025 1025 167
Width: 513
Flags: W
LayerCount: 2
Fore
SplineSet
331.435546875 828.96484375 m 24,0,1
 324.579101562 803.14453125 324.579101562 803.14453125 293.467773438 802.5 c 24,2,3
 257.47265625 802.5 257.47265625 802.5 264.129882812 827.571289062 c 24,4,5
 272.223632812 860.23828125 272.223632812 860.23828125 309 861 c 24,6,7
 340.064453125 861 340.064453125 861 331.435546875 828.96484375 c 24,0,1
331.435546875 828.96484375 m 24,8,9
 324.579101562 803.14453125 324.579101562 803.14453125 293.467773438 802.5 c 24,10,11
 257.47265625 802.5 257.47265625 802.5 264.129882812 827.571289062 c 24,12,13
 272.223632812 860.23828125 272.223632812 860.23828125 309 861 c 24,14,15
 340.064453125 861 340.064453125 861 331.435546875 828.96484375 c 24,8,9
230.239257812 817.157226562 m 24,16,17
 223.137950235 791.491657008 223.137950235 791.491657008 190.911132812 790.8515625 c 24,18,19
 153.39206151 790.008806513 153.39206151 790.008806513 160.520507812 815.772460938 c 24,20,21
 170.078435368 848.266657628 170.078435368 848.266657628 207 849 c 24,22,23
 239 850 239 850 230.239257812 817.157226562 c 24,16,17
230.239257812 817.157226562 m 24,24,25
 223.137950235 791.491657008 223.137950235 791.491657008 190.911132812 790.8515625 c 24,26,27
 153.39206151 790.008806513 153.39206151 790.008806513 160.520507812 815.772460938 c 24,28,29
 170.078435368 848.266657628 170.078435368 848.266657628 207 849 c 24,30,31
 239 850 239 850 230.239257812 817.157226562 c 24,24,25
478 486 m 1,32,33
 482 471 482 471 481 455 c 0,34,35
 481 402 481 402 438 366 c 0,36,37
 399 332 399 332 354 337 c 0,38,39
 346 340 346 340 324 338 c 1,40,41
 326 326 326 326 317 274 c 1,42,43
 317 250 317 250 338 238 c 1,44,45
 379 249 379 249 405 238 c 0,46,47
 446 222 446 222 450 184 c 0,48,49
 455 141 455 141 425 96.5 c 128,-1,50
 395 52 395 52 342 22 c 0,51,52
 295 -5 295 -5 231 -5 c 0,53,54
 175 -5 175 -5 130 16 c 0,55,56
 111 25 111 25 73 72 c 1,57,58
 32 140 32 140 31 359 c 0,59,60
 30 485 30 485 52 647 c 0,61,62
 65 741 65 741 106 769 c 1,63,-1
 273 786 l 1,64,65
 316 795 316 795 355 795 c 0,66,67
 433 795 433 795 447 756 c 0,68,69
 453 740 453 740 453 720 c 0,70,71
 453 677 453 677 421 650 c 128,-1,72
 389 623 389 623 332 623 c 0,73,74
 318 623 318 623 310 624 c 1,75,76
 303 609 303 609 302 576 c 0,77,78
 300 534 300 534 299 528 c 0,79,80
 302 514 302 514 320 510 c 1,81,82
 349 533 349 533 393 533 c 0,83,84
 444 533 444 533 478 486 c 1,32,33
EndSplineSet
EndChar

StartChar: uni0451
Encoding: 1105 1105 168
Width: 513
Flags: WO
LayerCount: 2
Fore
SplineSet
331.435546875 828.96484375 m 28,0,1
 324.579101562 803.14453125 324.579101562 803.14453125 293.467773438 802.5 c 28,2,3
 257.47265625 802.5 257.47265625 802.5 264.129882812 827.571289062 c 28,4,5
 272.223632812 860.23828125 272.223632812 860.23828125 309 861 c 28,6,7
 340.064453125 861 340.064453125 861 331.435546875 828.96484375 c 28,0,1
331.435546875 828.96484375 m 28,8,9
 324.579101562 803.14453125 324.579101562 803.14453125 293.467773438 802.5 c 28,10,11
 257.47265625 802.5 257.47265625 802.5 264.129882812 827.571289062 c 28,12,13
 272.223632812 860.23828125 272.223632812 860.23828125 309 861 c 28,14,15
 340.064453125 861 340.064453125 861 331.435546875 828.96484375 c 28,8,9
230.239257812 817.157226562 m 28,16,17
 223.137950235 791.491657008 223.137950235 791.491657008 190.911132812 790.8515625 c 28,18,19
 153.39206151 790.008806513 153.39206151 790.008806513 160.520507812 815.772460938 c 28,20,21
 170.078435368 848.266657628 170.078435368 848.266657628 207 849 c 28,22,23
 239 850 239 850 230.239257812 817.157226562 c 28,16,17
230.239257812 817.157226562 m 28,24,25
 223.137950235 791.491657008 223.137950235 791.491657008 190.911132812 790.8515625 c 28,26,27
 153.39206151 790.008806513 153.39206151 790.008806513 160.520507812 815.772460938 c 28,28,29
 170.078435368 848.266657628 170.078435368 848.266657628 207 849 c 28,30,31
 239 850 239 850 230.239257812 817.157226562 c 28,24,25
478 486 m 5,32,33
 482 471 482 471 481 455 c 4,34,35
 481 402 481 402 438 366 c 4,36,37
 399 332 399 332 354 337 c 4,38,39
 346 340 346 340 324 338 c 5,40,41
 326 326 326 326 317 274 c 5,42,43
 317 250 317 250 338 238 c 5,44,45
 379 249 379 249 405 238 c 4,46,47
 446 222 446 222 450 184 c 4,48,49
 455 141 455 141 425 96.5 c 132,-1,50
 395 52 395 52 342 22 c 4,51,52
 295 -5 295 -5 231 -5 c 4,53,54
 175 -5 175 -5 130 16 c 4,55,56
 111 25 111 25 73 72 c 5,57,58
 32 140 32 140 31 359 c 4,59,60
 30 485 30 485 52 647 c 4,61,62
 65 741 65 741 106 769 c 5,63,-1
 273 786 l 5,64,65
 316 795 316 795 355 795 c 4,66,67
 433 795 433 795 447 756 c 4,68,69
 453 740 453 740 453 720 c 4,70,71
 453 677 453 677 421 650 c 132,-1,72
 389 623 389 623 332 623 c 4,73,74
 318 623 318 623 310 624 c 5,75,76
 303 609 303 609 302 576 c 4,77,78
 300 534 300 534 299 528 c 4,79,80
 302 514 302 514 320 510 c 5,81,82
 349 533 349 533 393 533 c 4,83,84
 444 533 444 533 478 486 c 5,32,33
EndSplineSet
EndChar
